<svg width="239" height="80" viewBox="0 0 239 80" fill="none" xmlns="http://www.w3.org/2000/svg">
<rect width="239" height="80" rx="8" fill="#3ac5f1"/>
<path d="M52.4583 20.5C54.3259 20.5 56.117 21.2419 57.4375 22.5625C58.7581 23.883 59.5 25.6741 59.5 27.5417V52.4583C59.5 54.3259 58.7581 56.117 57.4375 57.4375C56.117 58.7581 54.3259 59.5 52.4583 59.5H27.5417C25.6741 59.5 23.883 58.7581 22.5625 57.4375C21.2419 56.117 20.5 54.3259 20.5 52.4583V27.5417C20.5 25.6741 21.2419 23.883 22.5625 22.5625C23.883 21.2419 25.6741 20.5 27.5417 20.5H52.4583ZM52.4583 23.75H27.5417C26.5361 23.75 25.5716 24.1495 24.8606 24.8606C24.1495 25.5716 23.75 26.5361 23.75 27.5417V52.4583C23.75 54.5513 25.4487 56.25 27.5417 56.25H52.4583C53.4639 56.25 54.4284 55.8505 55.1394 55.1394C55.8505 54.4284 56.25 53.4639 56.25 52.4583V27.5417C56.25 26.5361 55.8505 25.5716 55.1394 24.8606C54.4284 24.1495 53.4639 23.75 52.4583 23.75ZM34.2995 47.0503L33.1945 48.9397C32.9856 49.2928 32.6508 49.5538 32.2574 49.6703C31.864 49.7868 31.4411 49.7502 31.0736 49.5678C30.7061 49.3854 30.4212 49.0707 30.276 48.687C30.1309 48.3032 30.1363 47.8788 30.2912 47.4988L30.3887 47.3017L30.5338 47.0503H34.2995V47.0503ZM42.8015 35.7187L46.526 42.1753H50.296C50.6893 42.1755 51.0693 42.3183 51.3653 42.5773C51.6613 42.8363 51.8534 43.1938 51.9058 43.5837L51.921 43.8003C51.9215 44.1934 51.7795 44.5733 51.5214 44.8697C51.2632 45.1661 50.9064 45.3589 50.517 45.4123L50.296 45.4275H48.4002L49.4878 47.3125C49.6952 47.6694 49.759 48.0919 49.6661 48.4941C49.5733 48.8964 49.3309 49.2482 48.9881 49.4782C48.6453 49.7082 48.2279 49.7991 47.8205 49.7325C47.4131 49.6659 47.0463 49.4467 46.7947 49.1195L46.6733 48.9353L40.9143 38.9513L42.7993 35.7187H42.8015ZM42.7365 29.3855C43.076 29.5835 43.3323 29.8979 43.4578 30.2704C43.5833 30.6429 43.5695 31.0482 43.419 31.4113L43.3193 31.6085L37.1443 42.1753H40.897L42.7712 45.4253H29.7127C29.3035 45.4215 28.9109 45.2635 28.6132 44.9828C28.3155 44.7021 28.1346 44.3194 28.1067 43.9112C28.0788 43.503 28.2059 43.0993 28.4626 42.7807C28.7194 42.4622 29.0869 42.2521 29.4917 42.1927L29.7127 42.1775H33.383L38.1063 34.0872L36.672 31.602C36.4754 31.2617 36.4088 30.8617 36.4845 30.4761C36.5602 30.0905 36.773 29.7454 37.0837 29.5047L37.2678 29.3812C37.6081 29.1846 38.0081 29.118 38.3937 29.1937C38.7793 29.2694 39.1244 29.4822 39.3652 29.7928L39.4865 29.977L39.9913 30.8567L40.5135 29.9683C40.6212 29.7841 40.7641 29.6229 40.9341 29.4939C41.1041 29.3649 41.2979 29.2706 41.5043 29.2165C41.7107 29.1624 41.9258 29.1495 42.1372 29.1785C42.3486 29.2074 42.5523 29.2778 42.7365 29.3855V29.3855Z" fill="white"/>
<path d="M83.5107 24.0439V27.6875C83.3877 27.8698 83.1917 28.0749 82.9229 28.3027C82.654 28.526 82.2826 28.722 81.8086 28.8906C81.3392 29.0547 80.7331 29.1367 79.9902 29.1367C79.3841 29.1367 78.8258 29.0319 78.3154 28.8223C77.8096 28.6081 77.3698 28.2982 76.9961 27.8926C76.627 27.4824 76.3398 26.9857 76.1348 26.4023C75.9342 25.8145 75.834 25.1491 75.834 24.4062V23.6338C75.834 22.891 75.9206 22.2279 76.0938 21.6445C76.2715 21.0612 76.5312 20.5667 76.873 20.1611C77.2148 19.751 77.6341 19.4411 78.1309 19.2314C78.6276 19.0173 79.1973 18.9102 79.8398 18.9102C80.6009 18.9102 81.2367 19.0423 81.7471 19.3066C82.262 19.5664 82.6631 19.9264 82.9502 20.3867C83.2419 20.847 83.4287 21.3711 83.5107 21.959H82.1914C82.1322 21.599 82.0137 21.2708 81.8359 20.9746C81.6628 20.6784 81.4144 20.4414 81.0908 20.2637C80.7673 20.0814 80.3503 19.9902 79.8398 19.9902C79.3796 19.9902 78.9808 20.0745 78.6436 20.2432C78.3063 20.4118 78.0283 20.6533 77.8096 20.9678C77.5908 21.2822 77.4268 21.6628 77.3174 22.1094C77.2126 22.556 77.1602 23.0596 77.1602 23.6201V24.4062C77.1602 24.9805 77.2262 25.4932 77.3584 25.9443C77.4951 26.3955 77.6888 26.7806 77.9395 27.0996C78.1901 27.4141 78.4886 27.6533 78.835 27.8174C79.1859 27.9814 79.5732 28.0635 79.9971 28.0635C80.4665 28.0635 80.847 28.0247 81.1387 27.9473C81.4303 27.8652 81.6582 27.7695 81.8223 27.6602C81.9863 27.5462 82.1117 27.4391 82.1982 27.3389V25.1104H79.8945V24.0439H83.5107ZM92.0215 27.9268V29H86.751V27.9268H92.0215ZM87.0176 19.0469V29H85.6982V19.0469H87.0176ZM91.3242 23.3262V24.3994H86.751V23.3262H91.3242ZM91.9531 19.0469V20.127H86.751V19.0469H91.9531ZM97.4697 19.0469V29H96.1709V19.0469H97.4697ZM100.669 19.0469V20.127H92.9785V19.0469H100.669ZM108.749 19.0469V29H107.45V19.0469H108.749ZM111.948 19.0469V20.127H104.258V19.0469H111.948ZM113.992 19.0469L116.576 24.0439L119.167 19.0469H120.664L117.232 25.2812V29H115.913V25.2812L112.481 19.0469H113.992ZM121.942 19.0469H125.237C125.985 19.0469 126.616 19.1608 127.131 19.3887C127.65 19.6165 128.045 19.9538 128.313 20.4004C128.587 20.8424 128.724 21.387 128.724 22.0342C128.724 22.4899 128.63 22.9069 128.443 23.2852C128.261 23.6589 127.997 23.9779 127.65 24.2422C127.309 24.502 126.898 24.6956 126.42 24.8232L126.051 24.9668H122.954L122.94 23.8936H125.278C125.752 23.8936 126.146 23.8115 126.461 23.6475C126.775 23.4788 127.012 23.2533 127.172 22.9707C127.331 22.6882 127.411 22.376 127.411 22.0342C127.411 21.6514 127.336 21.3164 127.186 21.0293C127.035 20.7422 126.798 20.5212 126.475 20.3662C126.156 20.2067 125.743 20.127 125.237 20.127H123.262V29H121.942V19.0469ZM127.76 29L125.34 24.4883L126.714 24.4814L129.168 28.918V29H127.76ZM138.232 23.709V24.3379C138.232 25.0853 138.139 25.7552 137.952 26.3477C137.765 26.9401 137.496 27.4437 137.146 27.8584C136.795 28.2731 136.373 28.5898 135.881 28.8086C135.393 29.0273 134.846 29.1367 134.24 29.1367C133.652 29.1367 133.112 29.0273 132.62 28.8086C132.132 28.5898 131.709 28.2731 131.349 27.8584C130.993 27.4437 130.717 26.9401 130.521 26.3477C130.326 25.7552 130.228 25.0853 130.228 24.3379V23.709C130.228 22.9616 130.323 22.2939 130.515 21.7061C130.711 21.1136 130.986 20.61 131.342 20.1953C131.697 19.776 132.119 19.457 132.606 19.2383C133.099 19.0195 133.639 18.9102 134.227 18.9102C134.833 18.9102 135.38 19.0195 135.867 19.2383C136.359 19.457 136.781 19.776 137.132 20.1953C137.487 20.61 137.758 21.1136 137.945 21.7061C138.137 22.2939 138.232 22.9616 138.232 23.709ZM136.927 24.3379V23.6953C136.927 23.1029 136.865 22.5788 136.742 22.123C136.624 21.6673 136.448 21.2845 136.216 20.9746C135.983 20.6647 135.699 20.43 135.361 20.2705C135.029 20.111 134.65 20.0312 134.227 20.0312C133.816 20.0312 133.445 20.111 133.112 20.2705C132.784 20.43 132.502 20.6647 132.265 20.9746C132.032 21.2845 131.852 21.6673 131.725 22.123C131.597 22.5788 131.533 23.1029 131.533 23.6953V24.3379C131.533 24.9349 131.597 25.4635 131.725 25.9238C131.852 26.3796 132.035 26.7646 132.271 27.0791C132.513 27.389 132.798 27.6237 133.126 27.7832C133.459 27.9427 133.83 28.0225 134.24 28.0225C134.669 28.0225 135.049 27.9427 135.382 27.7832C135.715 27.6237 135.995 27.389 136.223 27.0791C136.455 26.7646 136.631 26.3796 136.749 25.9238C136.868 25.4635 136.927 24.9349 136.927 24.3379ZM147.365 19.9287L144.07 29H142.724L146.518 19.0469H147.386L147.365 19.9287ZM150.127 29L146.825 19.9287L146.805 19.0469H147.673L151.48 29H150.127ZM149.956 25.3154V26.3955H144.364V25.3154H149.956ZM156.484 25.0967H153.825V24.0234H156.484C156.999 24.0234 157.416 23.9414 157.735 23.7773C158.054 23.6133 158.287 23.3854 158.433 23.0938C158.583 22.8021 158.658 22.4694 158.658 22.0957C158.658 21.7539 158.583 21.4326 158.433 21.1318C158.287 20.8311 158.054 20.5895 157.735 20.4072C157.416 20.2204 156.999 20.127 156.484 20.127H154.133V29H152.813V19.0469H156.484C157.236 19.0469 157.872 19.1768 158.392 19.4365C158.911 19.6963 159.305 20.0563 159.574 20.5166C159.843 20.9723 159.978 21.4941 159.978 22.082C159.978 22.7201 159.843 23.2646 159.574 23.7158C159.305 24.167 158.911 24.5111 158.392 24.748C157.872 24.9805 157.236 25.0967 156.484 25.0967ZM165.316 25.0967H162.657V24.0234H165.316C165.831 24.0234 166.248 23.9414 166.567 23.7773C166.886 23.6133 167.119 23.3854 167.265 23.0938C167.415 22.8021 167.49 22.4694 167.49 22.0957C167.49 21.7539 167.415 21.4326 167.265 21.1318C167.119 20.8311 166.886 20.5895 166.567 20.4072C166.248 20.2204 165.831 20.127 165.316 20.127H162.965V29H161.646V19.0469H165.316C166.068 19.0469 166.704 19.1768 167.224 19.4365C167.743 19.6963 168.137 20.0563 168.406 20.5166C168.675 20.9723 168.81 21.4941 168.81 22.082C168.81 22.7201 168.675 23.2646 168.406 23.7158C168.137 24.167 167.743 24.5111 167.224 24.748C166.704 24.9805 166.068 25.0967 165.316 25.0967ZM181.613 23.709V24.3379C181.613 25.0853 181.52 25.7552 181.333 26.3477C181.146 26.9401 180.877 27.4437 180.526 27.8584C180.175 28.2731 179.754 28.5898 179.262 28.8086C178.774 29.0273 178.227 29.1367 177.621 29.1367C177.033 29.1367 176.493 29.0273 176.001 28.8086C175.513 28.5898 175.09 28.2731 174.729 27.8584C174.374 27.4437 174.098 26.9401 173.902 26.3477C173.706 25.7552 173.608 25.0853 173.608 24.3379V23.709C173.608 22.9616 173.704 22.2939 173.896 21.7061C174.091 21.1136 174.367 20.61 174.723 20.1953C175.078 19.776 175.5 19.457 175.987 19.2383C176.479 19.0195 177.02 18.9102 177.607 18.9102C178.214 18.9102 178.76 19.0195 179.248 19.2383C179.74 19.457 180.162 19.776 180.513 20.1953C180.868 20.61 181.139 21.1136 181.326 21.7061C181.518 22.2939 181.613 22.9616 181.613 23.709ZM180.308 24.3379V23.6953C180.308 23.1029 180.246 22.5788 180.123 22.123C180.005 21.6673 179.829 21.2845 179.597 20.9746C179.364 20.6647 179.079 20.43 178.742 20.2705C178.41 20.111 178.031 20.0312 177.607 20.0312C177.197 20.0312 176.826 20.111 176.493 20.2705C176.165 20.43 175.882 20.6647 175.646 20.9746C175.413 21.2845 175.233 21.6673 175.105 22.123C174.978 22.5788 174.914 23.1029 174.914 23.6953V24.3379C174.914 24.9349 174.978 25.4635 175.105 25.9238C175.233 26.3796 175.415 26.7646 175.652 27.0791C175.894 27.389 176.179 27.6237 176.507 27.7832C176.84 27.9427 177.211 28.0225 177.621 28.0225C178.049 28.0225 178.43 27.9427 178.763 27.7832C179.095 27.6237 179.376 27.389 179.604 27.0791C179.836 26.7646 180.011 26.3796 180.13 25.9238C180.248 25.4635 180.308 24.9349 180.308 24.3379ZM191.245 19.0469V29H189.919L184.908 21.3232V29H183.589V19.0469H184.908L189.939 26.7441V19.0469H191.245ZM200.46 19.0469V29H199.161V19.0469H200.46ZM203.659 19.0469V20.127H195.969V19.0469H203.659ZM211.637 23.3262V24.3994H206.25V23.3262H211.637ZM206.455 19.0469V29H205.136V19.0469H206.455ZM212.785 19.0469V29H211.473V19.0469H212.785ZM221.453 27.9268V29H216.183V27.9268H221.453ZM216.449 19.0469V29H215.13V19.0469H216.449ZM220.756 23.3262V24.3994H216.183V23.3262H220.756ZM221.385 19.0469V20.127H216.183V19.0469H221.385Z" fill="white"/>
<path d="M89.1099 42.427L83.0164 61H78.1077L86.4325 38.5955H89.5562L89.1099 42.427ZM94.1725 61L88.0636 42.427L87.5712 38.5955H90.7256L99.0965 61H94.1725ZM93.8955 52.6599V56.276H82.0624V52.6599H93.8955ZM104.836 47.5511V67.4013H100.404V44.3505H104.513L104.836 47.5511ZM115.377 52.4906V52.8137C115.377 54.0242 115.233 55.1475 114.946 56.1836C114.669 57.2198 114.259 58.1225 113.715 58.8919C113.171 59.651 112.494 60.246 111.684 60.6769C110.884 61.0975 109.96 61.3078 108.914 61.3078C107.898 61.3078 107.016 61.1026 106.267 60.6922C105.518 60.2819 104.887 59.7074 104.375 58.9688C103.872 58.22 103.467 57.3531 103.159 56.3683C102.851 55.3835 102.615 54.3269 102.451 53.1984V52.3521C102.615 51.1416 102.851 50.0337 103.159 49.0284C103.467 48.0128 103.872 47.1357 104.375 46.3971C104.887 45.6482 105.513 45.0686 106.252 44.6583C107.001 44.2479 107.878 44.0428 108.883 44.0428C109.94 44.0428 110.868 44.2428 111.668 44.6429C112.479 45.043 113.156 45.6174 113.699 46.3663C114.253 47.1152 114.669 48.0077 114.946 49.0438C115.233 50.0799 115.377 51.2288 115.377 52.4906ZM110.93 52.8137V52.4906C110.93 51.7828 110.868 51.1314 110.745 50.5364C110.632 49.9311 110.448 49.4028 110.191 48.9514C109.945 48.5001 109.617 48.1513 109.206 47.9051C108.806 47.6486 108.319 47.5204 107.744 47.5204C107.139 47.5204 106.621 47.6178 106.19 47.8127C105.77 48.0077 105.426 48.2898 105.159 48.6591C104.893 49.0284 104.693 49.4695 104.559 49.9824C104.426 50.4953 104.344 51.0749 104.313 51.7212V53.8601C104.364 54.6192 104.508 55.3014 104.744 55.9067C104.98 56.5017 105.344 56.9736 105.836 57.3223C106.329 57.6711 106.975 57.8455 107.775 57.8455C108.36 57.8455 108.852 57.7173 109.252 57.4608C109.653 57.1941 109.976 56.8299 110.222 56.3683C110.478 55.9067 110.658 55.3732 110.76 54.768C110.873 54.1627 110.93 53.5113 110.93 52.8137ZM122.563 47.5511V67.4013H118.131V44.3505H122.24L122.563 47.5511ZM133.103 52.4906V52.8137C133.103 54.0242 132.96 55.1475 132.673 56.1836C132.396 57.2198 131.985 58.1225 131.441 58.8919C130.898 59.651 130.221 60.246 129.41 60.6769C128.61 61.0975 127.687 61.3078 126.641 61.3078C125.625 61.3078 124.743 61.1026 123.994 60.6922C123.245 60.2819 122.614 59.7074 122.101 58.9688C121.598 58.22 121.193 57.3531 120.886 56.3683C120.578 55.3835 120.342 54.3269 120.178 53.1984V52.3521C120.342 51.1416 120.578 50.0337 120.886 49.0284C121.193 48.0128 121.598 47.1357 122.101 46.3971C122.614 45.6482 123.24 45.0686 123.978 44.6583C124.727 44.2479 125.604 44.0428 126.61 44.0428C127.666 44.0428 128.595 44.2428 129.395 44.6429C130.205 45.043 130.882 45.6174 131.426 46.3663C131.98 47.1152 132.396 48.0077 132.673 49.0438C132.96 50.0799 133.103 51.2288 133.103 52.4906ZM128.656 52.8137V52.4906C128.656 51.7828 128.595 51.1314 128.472 50.5364C128.359 49.9311 128.174 49.4028 127.918 48.9514C127.672 48.5001 127.343 48.1513 126.933 47.9051C126.533 47.6486 126.046 47.5204 125.471 47.5204C124.866 47.5204 124.348 47.6178 123.917 47.8127C123.496 48.0077 123.153 48.2898 122.886 48.6591C122.619 49.0284 122.419 49.4695 122.286 49.9824C122.152 50.4953 122.07 51.0749 122.04 51.7212V53.8601C122.091 54.6192 122.235 55.3014 122.47 55.9067C122.706 56.5017 123.071 56.9736 123.563 57.3223C124.055 57.6711 124.702 57.8455 125.502 57.8455C126.087 57.8455 126.579 57.7173 126.979 57.4608C127.379 57.1941 127.702 56.8299 127.948 56.3683C128.205 55.9067 128.384 55.3732 128.487 54.768C128.6 54.1627 128.656 53.5113 128.656 52.8137ZM155.646 55.1373C155.646 54.7372 155.585 54.3782 155.462 54.0601C155.349 53.7319 155.133 53.4344 154.815 53.1677C154.497 52.8907 154.051 52.6188 153.477 52.3521C152.902 52.0854 152.158 51.8084 151.245 51.5212C150.23 51.1929 149.266 50.8236 148.353 50.4133C147.45 50.0029 146.65 49.5259 145.952 48.9822C145.265 48.4282 144.721 47.7871 144.321 47.0587C143.931 46.3304 143.736 45.4841 143.736 44.5198C143.736 43.5863 143.941 42.7399 144.352 41.9808C144.762 41.2114 145.337 40.5549 146.075 40.0112C146.814 39.4572 147.686 39.0315 148.691 38.734C149.707 38.4365 150.82 38.2878 152.03 38.2878C153.682 38.2878 155.123 38.5852 156.354 39.1802C157.585 39.7752 158.539 40.5908 159.216 41.6269C159.904 42.663 160.247 43.8478 160.247 45.1814H155.662C155.662 44.5249 155.523 43.9504 155.246 43.458C154.98 42.9554 154.569 42.5604 154.015 42.2732C153.472 41.9859 152.784 41.8423 151.953 41.8423C151.153 41.8423 150.486 41.9654 149.953 42.2116C149.419 42.4476 149.019 42.7707 148.753 43.181C148.486 43.5811 148.353 44.0325 148.353 44.5352C148.353 44.9147 148.445 45.2584 148.63 45.5661C148.824 45.8739 149.112 46.1611 149.491 46.4278C149.871 46.6946 150.338 46.9459 150.892 47.1818C151.445 47.4178 152.087 47.6486 152.815 47.8743C154.036 48.2436 155.108 48.6591 156.031 49.1207C156.965 49.5823 157.744 50.1004 158.37 50.6749C158.996 51.2493 159.468 51.9007 159.786 52.6291C160.104 53.3574 160.263 54.1832 160.263 55.1065C160.263 56.0811 160.073 56.953 159.693 57.7224C159.314 58.4918 158.765 59.1432 158.047 59.6767C157.329 60.2101 156.472 60.6153 155.477 60.8923C154.482 61.1693 153.369 61.3078 152.138 61.3078C151.03 61.3078 149.938 61.1641 148.86 60.8769C147.783 60.5794 146.804 60.1332 145.921 59.5382C145.049 58.9432 144.352 58.1841 143.829 57.2608C143.305 56.3375 143.044 55.245 143.044 53.9832H147.676C147.676 54.6808 147.783 55.2706 147.999 55.7528C148.214 56.2349 148.517 56.6248 148.907 56.9223C149.307 57.2198 149.778 57.4352 150.322 57.5685C150.876 57.7019 151.481 57.7686 152.138 57.7686C152.938 57.7686 153.595 57.6557 154.108 57.4301C154.631 57.2044 155.015 56.8915 155.262 56.4914C155.518 56.0913 155.646 55.64 155.646 55.1373ZM171.28 44.3505V47.4896H161.586V44.3505H171.28ZM163.986 40.242H168.418V55.9836C168.418 56.4658 168.48 56.8351 168.603 57.0915C168.736 57.348 168.931 57.5275 169.188 57.6301C169.444 57.7224 169.767 57.7686 170.157 57.7686C170.434 57.7686 170.68 57.7583 170.896 57.7378C171.121 57.707 171.311 57.6763 171.465 57.6455L171.48 60.9077C171.101 61.0308 170.69 61.1282 170.249 61.2C169.808 61.2718 169.321 61.3078 168.787 61.3078C167.813 61.3078 166.961 61.1487 166.233 60.8307C165.515 60.5025 164.961 59.9793 164.571 59.2612C164.181 58.5431 163.986 57.5993 163.986 56.4299V40.242ZM172.696 52.8445V52.5214C172.696 51.3006 172.87 50.1773 173.219 49.1515C173.568 48.1154 174.076 47.2177 174.742 46.4586C175.409 45.6995 176.23 45.1096 177.205 44.689C178.179 44.2582 179.297 44.0428 180.559 44.0428C181.821 44.0428 182.944 44.2582 183.929 44.689C184.914 45.1096 185.74 45.6995 186.406 46.4586C187.083 47.2177 187.596 48.1154 187.945 49.1515C188.294 50.1773 188.468 51.3006 188.468 52.5214V52.8445C188.468 54.055 188.294 55.1783 187.945 56.2144C187.596 57.2403 187.083 58.1379 186.406 58.9073C185.74 59.6664 184.919 60.2563 183.944 60.6769C182.97 61.0975 181.852 61.3078 180.59 61.3078C179.328 61.3078 178.205 61.0975 177.22 60.6769C176.245 60.2563 175.42 59.6664 174.742 58.9073C174.076 58.1379 173.568 57.2403 173.219 56.2144C172.87 55.1783 172.696 54.055 172.696 52.8445ZM177.128 52.5214V52.8445C177.128 53.5421 177.189 54.1935 177.312 54.7988C177.435 55.404 177.63 55.9374 177.897 56.3991C178.174 56.8504 178.533 57.2044 178.974 57.4608C179.415 57.7173 179.954 57.8455 180.59 57.8455C181.205 57.8455 181.734 57.7173 182.175 57.4608C182.616 57.2044 182.97 56.8504 183.236 56.3991C183.503 55.9374 183.698 55.404 183.821 54.7988C183.955 54.1935 184.021 53.5421 184.021 52.8445V52.5214C184.021 51.8443 183.955 51.2083 183.821 50.6133C183.698 50.0081 183.498 49.4746 183.221 49.013C182.954 48.5411 182.6 48.1718 182.159 47.9051C181.718 47.6383 181.185 47.505 180.559 47.505C179.933 47.505 179.4 47.6383 178.959 47.9051C178.528 48.1718 178.174 48.5411 177.897 49.013C177.63 49.4746 177.435 50.0081 177.312 50.6133C177.189 51.2083 177.128 51.8443 177.128 52.5214ZM195.624 47.982V61H191.192V44.3505H195.362L195.624 47.982ZM200.64 44.2428L200.563 48.3513C200.348 48.3205 200.086 48.2949 199.778 48.2744C199.481 48.2436 199.209 48.2282 198.963 48.2282C198.337 48.2282 197.793 48.3103 197.332 48.4744C196.88 48.6283 196.501 48.8591 196.193 49.1669C195.895 49.4746 195.67 49.849 195.516 50.2902C195.372 50.7313 195.29 51.2339 195.27 51.7982L194.377 51.5212C194.377 50.444 194.485 49.4541 194.7 48.5513C194.916 47.6383 195.229 46.8433 195.639 46.1663C196.06 45.4892 196.573 44.966 197.178 44.5967C197.783 44.2274 198.475 44.0428 199.255 44.0428C199.501 44.0428 199.753 44.0633 200.009 44.1043C200.266 44.1351 200.476 44.1812 200.64 44.2428ZM210.088 61.3078C208.795 61.3078 207.636 61.1026 206.61 60.6922C205.585 60.2716 204.713 59.692 203.995 58.9534C203.287 58.2148 202.743 57.3582 202.363 56.3837C201.984 55.3989 201.794 54.3525 201.794 53.2446V52.6291C201.794 51.3673 201.974 50.2132 202.333 49.1669C202.692 48.1205 203.205 47.2126 203.871 46.4432C204.548 45.6738 205.369 45.084 206.333 44.6736C207.298 44.2531 208.385 44.0428 209.596 44.0428C210.775 44.0428 211.822 44.2377 212.735 44.6275C213.648 45.0173 214.412 45.5713 215.027 46.2894C215.653 47.0074 216.125 47.8692 216.443 48.8745C216.761 49.8696 216.92 50.9775 216.92 52.1982V54.0448H203.687V51.0903H212.565V50.7518C212.565 50.1363 212.453 49.5875 212.227 49.1053C212.011 48.6129 211.683 48.2231 211.242 47.9358C210.801 47.6486 210.237 47.505 209.549 47.505C208.965 47.505 208.462 47.6332 208.041 47.8897C207.621 48.1461 207.277 48.5052 207.01 48.9668C206.754 49.4284 206.559 49.9721 206.426 50.5979C206.303 51.2134 206.241 51.8905 206.241 52.6291V53.2446C206.241 53.9114 206.333 54.5269 206.518 55.0911C206.713 55.6553 206.985 56.1426 207.334 56.553C207.693 56.9633 208.124 57.2813 208.626 57.507C209.139 57.7327 209.719 57.8455 210.365 57.8455C211.165 57.8455 211.909 57.6916 212.596 57.3839C213.294 57.0659 213.894 56.5889 214.397 55.9528L216.551 58.2918C216.202 58.7944 215.725 59.2766 215.12 59.7382C214.525 60.1998 213.807 60.5794 212.966 60.8769C212.124 61.1641 211.165 61.3078 210.088 61.3078Z" fill="white"/>
</svg>
