<svg width="239" height="80" viewBox="0 0 239 80" fill="none" xmlns="http://www.w3.org/2000/svg">
<rect x="1" y="1" width="237" height="78" rx="7" stroke="#3ac5f1" stroke-width="2"/>
<path d="M52.4583 20.5C54.3259 20.5 56.117 21.2419 57.4375 22.5625C58.7581 23.883 59.5 25.6741 59.5 27.5417V52.4583C59.5 54.3259 58.7581 56.117 57.4375 57.4375C56.117 58.7581 54.3259 59.5 52.4583 59.5H27.5417C25.6741 59.5 23.883 58.7581 22.5625 57.4375C21.2419 56.117 20.5 54.3259 20.5 52.4583V27.5417C20.5 25.6741 21.2419 23.883 22.5625 22.5625C23.883 21.2419 25.6741 20.5 27.5417 20.5H52.4583ZM52.4583 23.75H27.5417C26.5361 23.75 25.5716 24.1495 24.8606 24.8606C24.1495 25.5716 23.75 26.5361 23.75 27.5417V52.4583C23.75 54.5513 25.4487 56.25 27.5417 56.25H52.4583C53.4639 56.25 54.4284 55.8505 55.1394 55.1394C55.8505 54.4284 56.25 53.4639 56.25 52.4583V27.5417C56.25 26.5361 55.8505 25.5716 55.1394 24.8606C54.4284 24.1495 53.4639 23.75 52.4583 23.75ZM34.2995 47.0503L33.1945 48.9397C32.9856 49.2928 32.6508 49.5538 32.2574 49.6703C31.864 49.7868 31.4411 49.7502 31.0736 49.5678C30.7061 49.3854 30.4212 49.0707 30.276 48.687C30.1309 48.3032 30.1363 47.8788 30.2912 47.4988L30.3887 47.3017L30.5338 47.0503H34.2995V47.0503ZM42.8015 35.7187L46.526 42.1753H50.296C50.6893 42.1755 51.0693 42.3183 51.3653 42.5773C51.6613 42.8363 51.8534 43.1938 51.9058 43.5837L51.921 43.8003C51.9215 44.1934 51.7795 44.5733 51.5214 44.8697C51.2632 45.1661 50.9064 45.3589 50.517 45.4123L50.296 45.4275H48.4002L49.4878 47.3125C49.6952 47.6694 49.759 48.0919 49.6661 48.4941C49.5733 48.8964 49.3309 49.2482 48.9881 49.4782C48.6453 49.7082 48.2279 49.7991 47.8205 49.7325C47.4131 49.6659 47.0463 49.4467 46.7947 49.1195L46.6733 48.9353L40.9143 38.9513L42.7993 35.7187H42.8015ZM42.7365 29.3855C43.076 29.5835 43.3323 29.8979 43.4578 30.2704C43.5833 30.6429 43.5695 31.0482 43.419 31.4113L43.3193 31.6085L37.1443 42.1753H40.897L42.7712 45.4253H29.7127C29.3035 45.4215 28.9109 45.2635 28.6132 44.9828C28.3155 44.7021 28.1346 44.3194 28.1067 43.9112C28.0788 43.503 28.2059 43.0993 28.4626 42.7807C28.7194 42.4622 29.0869 42.2521 29.4917 42.1927L29.7127 42.1775H33.383L38.1063 34.0872L36.672 31.602C36.4754 31.2617 36.4088 30.8617 36.4845 30.4761C36.5602 30.0905 36.773 29.7454 37.0837 29.5047L37.2678 29.3812C37.6081 29.1846 38.0081 29.118 38.3937 29.1937C38.7793 29.2694 39.1244 29.4822 39.3652 29.7928L39.4865 29.977L39.9913 30.8567L40.5135 29.9683C40.6212 29.7841 40.7641 29.6229 40.9341 29.4939C41.1041 29.3649 41.2979 29.2706 41.5043 29.2165C41.7107 29.1624 41.9258 29.1495 42.1372 29.1785C42.3486 29.2074 42.5523 29.2778 42.7365 29.3855V29.3855Z" fill="#3ac5f1"/>
<path d="M83.5107 24.0439V27.6875C83.3877 27.8698 83.1917 28.0749 82.9229 28.3027C82.654 28.526 82.2826 28.722 81.8086 28.8906C81.3392 29.0547 80.7331 29.1367 79.9902 29.1367C79.3841 29.1367 78.8258 29.0319 78.3154 28.8223C77.8096 28.6081 77.3698 28.2982 76.9961 27.8926C76.627 27.4824 76.3398 26.9857 76.1348 26.4023C75.9342 25.8145 75.834 25.1491 75.834 24.4062V23.6338C75.834 22.891 75.9206 22.2279 76.0938 21.6445C76.2715 21.0612 76.5312 20.5667 76.873 20.1611C77.2148 19.751 77.6341 19.4411 78.1309 19.2314C78.6276 19.0173 79.1973 18.9102 79.8398 18.9102C80.6009 18.9102 81.2367 19.0423 81.7471 19.3066C82.262 19.5664 82.6631 19.9264 82.9502 20.3867C83.2419 20.847 83.4287 21.3711 83.5107 21.959H82.1914C82.1322 21.599 82.0137 21.2708 81.8359 20.9746C81.6628 20.6784 81.4144 20.4414 81.0908 20.2637C80.7673 20.0814 80.3503 19.9902 79.8398 19.9902C79.3796 19.9902 78.9808 20.0745 78.6436 20.2432C78.3063 20.4118 78.0283 20.6533 77.8096 20.9678C77.5908 21.2822 77.4268 21.6628 77.3174 22.1094C77.2126 22.556 77.1602 23.0596 77.1602 23.6201V24.4062C77.1602 24.9805 77.2262 25.4932 77.3584 25.9443C77.4951 26.3955 77.6888 26.7806 77.9395 27.0996C78.1901 27.4141 78.4886 27.6533 78.835 27.8174C79.1859 27.9814 79.5732 28.0635 79.9971 28.0635C80.4665 28.0635 80.847 28.0247 81.1387 27.9473C81.4303 27.8652 81.6582 27.7695 81.8223 27.6602C81.9863 27.5462 82.1117 27.4391 82.1982 27.3389V25.1104H79.8945V24.0439H83.5107ZM92.0215 27.9268V29H86.751V27.9268H92.0215ZM87.0176 19.0469V29H85.6982V19.0469H87.0176ZM91.3242 23.3262V24.3994H86.751V23.3262H91.3242ZM91.9531 19.0469V20.127H86.751V19.0469H91.9531ZM97.4697 19.0469V29H96.1709V19.0469H97.4697ZM100.669 19.0469V20.127H92.9785V19.0469H100.669ZM108.749 19.0469V29H107.45V19.0469H108.749ZM111.948 19.0469V20.127H104.258V19.0469H111.948ZM113.992 19.0469L116.576 24.0439L119.167 19.0469H120.664L117.232 25.2812V29H115.913V25.2812L112.481 19.0469H113.992ZM121.942 19.0469H125.237C125.985 19.0469 126.616 19.1608 127.131 19.3887C127.65 19.6165 128.045 19.9538 128.313 20.4004C128.587 20.8424 128.724 21.387 128.724 22.0342C128.724 22.4899 128.63 22.9069 128.443 23.2852C128.261 23.6589 127.997 23.9779 127.65 24.2422C127.309 24.502 126.898 24.6956 126.42 24.8232L126.051 24.9668H122.954L122.94 23.8936H125.278C125.752 23.8936 126.146 23.8115 126.461 23.6475C126.775 23.4788 127.012 23.2533 127.172 22.9707C127.331 22.6882 127.411 22.376 127.411 22.0342C127.411 21.6514 127.336 21.3164 127.186 21.0293C127.035 20.7422 126.798 20.5212 126.475 20.3662C126.156 20.2067 125.743 20.127 125.237 20.127H123.262V29H121.942V19.0469ZM127.76 29L125.34 24.4883L126.714 24.4814L129.168 28.918V29H127.76ZM138.232 23.709V24.3379C138.232 25.0853 138.139 25.7552 137.952 26.3477C137.765 26.9401 137.496 27.4437 137.146 27.8584C136.795 28.2731 136.373 28.5898 135.881 28.8086C135.393 29.0273 134.846 29.1367 134.24 29.1367C133.652 29.1367 133.112 29.0273 132.62 28.8086C132.132 28.5898 131.709 28.2731 131.349 27.8584C130.993 27.4437 130.717 26.9401 130.521 26.3477C130.326 25.7552 130.228 25.0853 130.228 24.3379V23.709C130.228 22.9616 130.323 22.2939 130.515 21.7061C130.711 21.1136 130.986 20.61 131.342 20.1953C131.697 19.776 132.119 19.457 132.606 19.2383C133.099 19.0195 133.639 18.9102 134.227 18.9102C134.833 18.9102 135.38 19.0195 135.867 19.2383C136.359 19.457 136.781 19.776 137.132 20.1953C137.487 20.61 137.758 21.1136 137.945 21.7061C138.137 22.2939 138.232 22.9616 138.232 23.709ZM136.927 24.3379V23.6953C136.927 23.1029 136.865 22.5788 136.742 22.123C136.624 21.6673 136.448 21.2845 136.216 20.9746C135.983 20.6647 135.699 20.43 135.361 20.2705C135.029 20.111 134.65 20.0312 134.227 20.0312C133.816 20.0312 133.445 20.111 133.112 20.2705C132.784 20.43 132.502 20.6647 132.265 20.9746C132.032 21.2845 131.852 21.6673 131.725 22.123C131.597 22.5788 131.533 23.1029 131.533 23.6953V24.3379C131.533 24.9349 131.597 25.4635 131.725 25.9238C131.852 26.3796 132.035 26.7646 132.271 27.0791C132.513 27.389 132.798 27.6237 133.126 27.7832C133.459 27.9427 133.83 28.0225 134.24 28.0225C134.669 28.0225 135.049 27.9427 135.382 27.7832C135.715 27.6237 135.995 27.389 136.223 27.0791C136.455 26.7646 136.631 26.3796 136.749 25.9238C136.868 25.4635 136.927 24.9349 136.927 24.3379ZM147.365 19.9287L144.07 29H142.724L146.518 19.0469H147.386L147.365 19.9287ZM150.127 29L146.825 19.9287L146.805 19.0469H147.673L151.48 29H150.127ZM149.956 25.3154V26.3955H144.364V25.3154H149.956ZM156.484 25.0967H153.825V24.0234H156.484C156.999 24.0234 157.416 23.9414 157.735 23.7773C158.054 23.6133 158.287 23.3854 158.433 23.0938C158.583 22.8021 158.658 22.4694 158.658 22.0957C158.658 21.7539 158.583 21.4326 158.433 21.1318C158.287 20.8311 158.054 20.5895 157.735 20.4072C157.416 20.2204 156.999 20.127 156.484 20.127H154.133V29H152.813V19.0469H156.484C157.236 19.0469 157.872 19.1768 158.392 19.4365C158.911 19.6963 159.305 20.0563 159.574 20.5166C159.843 20.9723 159.978 21.4941 159.978 22.082C159.978 22.7201 159.843 23.2646 159.574 23.7158C159.305 24.167 158.911 24.5111 158.392 24.748C157.872 24.9805 157.236 25.0967 156.484 25.0967ZM165.316 25.0967H162.657V24.0234H165.316C165.831 24.0234 166.248 23.9414 166.567 23.7773C166.886 23.6133 167.119 23.3854 167.265 23.0938C167.415 22.8021 167.49 22.4694 167.49 22.0957C167.49 21.7539 167.415 21.4326 167.265 21.1318C167.119 20.8311 166.886 20.5895 166.567 20.4072C166.248 20.2204 165.831 20.127 165.316 20.127H162.965V29H161.646V19.0469H165.316C166.068 19.0469 166.704 19.1768 167.224 19.4365C167.743 19.6963 168.137 20.0563 168.406 20.5166C168.675 20.9723 168.81 21.4941 168.81 22.082C168.81 22.7201 168.675 23.2646 168.406 23.7158C168.137 24.167 167.743 24.5111 167.224 24.748C166.704 24.9805 166.068 25.0967 165.316 25.0967ZM181.613 23.709V24.3379C181.613 25.0853 181.52 25.7552 181.333 26.3477C181.146 26.9401 180.877 27.4437 180.526 27.8584C180.175 28.2731 179.754 28.5898 179.262 28.8086C178.774 29.0273 178.227 29.1367 177.621 29.1367C177.033 29.1367 176.493 29.0273 176.001 28.8086C175.513 28.5898 175.09 28.2731 174.729 27.8584C174.374 27.4437 174.098 26.9401 173.902 26.3477C173.706 25.7552 173.608 25.0853 173.608 24.3379V23.709C173.608 22.9616 173.704 22.2939 173.896 21.7061C174.091 21.1136 174.367 20.61 174.723 20.1953C175.078 19.776 175.5 19.457 175.987 19.2383C176.479 19.0195 177.02 18.9102 177.607 18.9102C178.214 18.9102 178.76 19.0195 179.248 19.2383C179.74 19.457 180.162 19.776 180.513 20.1953C180.868 20.61 181.139 21.1136 181.326 21.7061C181.518 22.2939 181.613 22.9616 181.613 23.709ZM180.308 24.3379V23.6953C180.308 23.1029 180.246 22.5788 180.123 22.123C180.005 21.6673 179.829 21.2845 179.597 20.9746C179.364 20.6647 179.079 20.43 178.742 20.2705C178.41 20.111 178.031 20.0312 177.607 20.0312C177.197 20.0312 176.826 20.111 176.493 20.2705C176.165 20.43 175.882 20.6647 175.646 20.9746C175.413 21.2845 175.233 21.6673 175.105 22.123C174.978 22.5788 174.914 23.1029 174.914 23.6953V24.3379C174.914 24.9349 174.978 25.4635 175.105 25.9238C175.233 26.3796 175.415 26.7646 175.652 27.0791C175.894 27.389 176.179 27.6237 176.507 27.7832C176.84 27.9427 177.211 28.0225 177.621 28.0225C178.049 28.0225 178.43 27.9427 178.763 27.7832C179.095 27.6237 179.376 27.389 179.604 27.0791C179.836 26.7646 180.011 26.3796 180.13 25.9238C180.248 25.4635 180.308 24.9349 180.308 24.3379ZM191.245 19.0469V29H189.919L184.908 21.3232V29H183.589V19.0469H184.908L189.939 26.7441V19.0469H191.245ZM200.46 19.0469V29H199.161V19.0469H200.46ZM203.659 19.0469V20.127H195.969V19.0469H203.659ZM211.637 23.3262V24.3994H206.25V23.3262H211.637ZM206.455 19.0469V29H205.136V19.0469H206.455ZM212.785 19.0469V29H211.473V19.0469H212.785ZM221.453 27.9268V29H216.183V27.9268H221.453ZM216.449 19.0469V29H215.13V19.0469H216.449ZM220.756 23.3262V24.3994H216.183V23.3262H220.756ZM221.385 19.0469V20.127H216.183V19.0469H221.385Z" fill="#3ac5f1"/>
<path d="M90.1099 39.427L84.0164 58H79.1077L87.4325 35.5955H90.5562L90.1099 39.427ZM95.1725 58L89.0636 39.427L88.5712 35.5955H91.7256L100.097 58H95.1725ZM94.8955 49.6599V53.276H83.0624V49.6599H94.8955ZM105.836 44.5511V64.4013H101.404V41.3505H105.513L105.836 44.5511ZM116.377 49.4906V49.8137C116.377 51.0242 116.233 52.1475 115.946 53.1836C115.669 54.2198 115.259 55.1225 114.715 55.8919C114.171 56.651 113.494 57.246 112.684 57.6769C111.884 58.0975 110.96 58.3078 109.914 58.3078C108.898 58.3078 108.016 58.1026 107.267 57.6922C106.518 57.2819 105.887 56.7074 105.375 55.9688C104.872 55.22 104.467 54.3531 104.159 53.3683C103.851 52.3835 103.615 51.3269 103.451 50.1984V49.3521C103.615 48.1416 103.851 47.0337 104.159 46.0284C104.467 45.0128 104.872 44.1357 105.375 43.3971C105.887 42.6482 106.513 42.0686 107.252 41.6583C108.001 41.2479 108.878 41.0428 109.883 41.0428C110.94 41.0428 111.868 41.2428 112.668 41.6429C113.479 42.043 114.156 42.6174 114.699 43.3663C115.253 44.1152 115.669 45.0077 115.946 46.0438C116.233 47.0799 116.377 48.2288 116.377 49.4906ZM111.93 49.8137V49.4906C111.93 48.7828 111.868 48.1314 111.745 47.5364C111.632 46.9311 111.448 46.4028 111.191 45.9514C110.945 45.5001 110.617 45.1513 110.206 44.9051C109.806 44.6486 109.319 44.5204 108.744 44.5204C108.139 44.5204 107.621 44.6178 107.19 44.8127C106.77 45.0077 106.426 45.2898 106.159 45.6591C105.893 46.0284 105.693 46.4695 105.559 46.9824C105.426 47.4953 105.344 48.0749 105.313 48.7212V50.8601C105.364 51.6192 105.508 52.3014 105.744 52.9067C105.98 53.5017 106.344 53.9736 106.836 54.3223C107.329 54.6711 107.975 54.8455 108.775 54.8455C109.36 54.8455 109.852 54.7173 110.252 54.4608C110.653 54.1941 110.976 53.8299 111.222 53.3683C111.478 52.9067 111.658 52.3732 111.76 51.768C111.873 51.1627 111.93 50.5113 111.93 49.8137ZM123.563 44.5511V64.4013H119.131V41.3505H123.24L123.563 44.5511ZM134.103 49.4906V49.8137C134.103 51.0242 133.96 52.1475 133.673 53.1836C133.396 54.2198 132.985 55.1225 132.441 55.8919C131.898 56.651 131.221 57.246 130.41 57.6769C129.61 58.0975 128.687 58.3078 127.641 58.3078C126.625 58.3078 125.743 58.1026 124.994 57.6922C124.245 57.2819 123.614 56.7074 123.101 55.9688C122.598 55.22 122.193 54.3531 121.886 53.3683C121.578 52.3835 121.342 51.3269 121.178 50.1984V49.3521C121.342 48.1416 121.578 47.0337 121.886 46.0284C122.193 45.0128 122.598 44.1357 123.101 43.3971C123.614 42.6482 124.24 42.0686 124.978 41.6583C125.727 41.2479 126.604 41.0428 127.61 41.0428C128.666 41.0428 129.595 41.2428 130.395 41.6429C131.205 42.043 131.882 42.6174 132.426 43.3663C132.98 44.1152 133.396 45.0077 133.673 46.0438C133.96 47.0799 134.103 48.2288 134.103 49.4906ZM129.656 49.8137V49.4906C129.656 48.7828 129.595 48.1314 129.472 47.5364C129.359 46.9311 129.174 46.4028 128.918 45.9514C128.672 45.5001 128.343 45.1513 127.933 44.9051C127.533 44.6486 127.046 44.5204 126.471 44.5204C125.866 44.5204 125.348 44.6178 124.917 44.8127C124.496 45.0077 124.153 45.2898 123.886 45.6591C123.619 46.0284 123.419 46.4695 123.286 46.9824C123.152 47.4953 123.07 48.0749 123.04 48.7212V50.8601C123.091 51.6192 123.235 52.3014 123.47 52.9067C123.706 53.5017 124.071 53.9736 124.563 54.3223C125.055 54.6711 125.702 54.8455 126.502 54.8455C127.087 54.8455 127.579 54.7173 127.979 54.4608C128.379 54.1941 128.702 53.8299 128.948 53.3683C129.205 52.9067 129.384 52.3732 129.487 51.768C129.6 51.1627 129.656 50.5113 129.656 49.8137ZM156.646 52.1373C156.646 51.7372 156.585 51.3782 156.462 51.0601C156.349 50.7319 156.133 50.4344 155.815 50.1677C155.497 49.8907 155.051 49.6188 154.477 49.3521C153.902 49.0854 153.158 48.8084 152.245 48.5212C151.23 48.1929 150.266 47.8236 149.353 47.4133C148.45 47.0029 147.65 46.5259 146.952 45.9822C146.265 45.4282 145.721 44.7871 145.321 44.0587C144.931 43.3304 144.736 42.4841 144.736 41.5198C144.736 40.5863 144.941 39.7399 145.352 38.9808C145.762 38.2114 146.337 37.5549 147.075 37.0112C147.814 36.4572 148.686 36.0315 149.691 35.734C150.707 35.4365 151.82 35.2878 153.03 35.2878C154.682 35.2878 156.123 35.5852 157.354 36.1802C158.585 36.7752 159.539 37.5908 160.216 38.6269C160.904 39.663 161.247 40.8478 161.247 42.1814H156.662C156.662 41.5249 156.523 40.9504 156.246 40.458C155.98 39.9554 155.569 39.5604 155.015 39.2732C154.472 38.9859 153.784 38.8423 152.953 38.8423C152.153 38.8423 151.486 38.9654 150.953 39.2116C150.419 39.4476 150.019 39.7707 149.753 40.181C149.486 40.5811 149.353 41.0325 149.353 41.5352C149.353 41.9147 149.445 42.2584 149.63 42.5661C149.824 42.8739 150.112 43.1611 150.491 43.4278C150.871 43.6946 151.338 43.9459 151.892 44.1818C152.445 44.4178 153.087 44.6486 153.815 44.8743C155.036 45.2436 156.108 45.6591 157.031 46.1207C157.965 46.5823 158.744 47.1004 159.37 47.6749C159.996 48.2493 160.468 48.9007 160.786 49.6291C161.104 50.3574 161.263 51.1832 161.263 52.1065C161.263 53.0811 161.073 53.953 160.693 54.7224C160.314 55.4918 159.765 56.1432 159.047 56.6767C158.329 57.2101 157.472 57.6153 156.477 57.8923C155.482 58.1693 154.369 58.3078 153.138 58.3078C152.03 58.3078 150.938 58.1641 149.86 57.8769C148.783 57.5794 147.804 57.1332 146.921 56.5382C146.049 55.9432 145.352 55.1841 144.829 54.2608C144.305 53.3375 144.044 52.245 144.044 50.9832H148.676C148.676 51.6808 148.783 52.2706 148.999 52.7528C149.214 53.2349 149.517 53.6248 149.907 53.9223C150.307 54.2198 150.778 54.4352 151.322 54.5685C151.876 54.7019 152.481 54.7686 153.138 54.7686C153.938 54.7686 154.595 54.6557 155.108 54.4301C155.631 54.2044 156.015 53.8915 156.262 53.4914C156.518 53.0913 156.646 52.64 156.646 52.1373ZM172.28 41.3505V44.4896H162.586V41.3505H172.28ZM164.986 37.242H169.418V52.9836C169.418 53.4658 169.48 53.8351 169.603 54.0915C169.736 54.348 169.931 54.5275 170.188 54.6301C170.444 54.7224 170.767 54.7686 171.157 54.7686C171.434 54.7686 171.68 54.7583 171.896 54.7378C172.121 54.707 172.311 54.6763 172.465 54.6455L172.48 57.9077C172.101 58.0308 171.69 58.1282 171.249 58.2C170.808 58.2718 170.321 58.3078 169.787 58.3078C168.813 58.3078 167.961 58.1487 167.233 57.8307C166.515 57.5025 165.961 56.9793 165.571 56.2612C165.181 55.5431 164.986 54.5993 164.986 53.4299V37.242ZM173.696 49.8445V49.5214C173.696 48.3006 173.87 47.1773 174.219 46.1515C174.568 45.1154 175.076 44.2177 175.742 43.4586C176.409 42.6995 177.23 42.1096 178.205 41.689C179.179 41.2582 180.297 41.0428 181.559 41.0428C182.821 41.0428 183.944 41.2582 184.929 41.689C185.914 42.1096 186.74 42.6995 187.406 43.4586C188.083 44.2177 188.596 45.1154 188.945 46.1515C189.294 47.1773 189.468 48.3006 189.468 49.5214V49.8445C189.468 51.055 189.294 52.1783 188.945 53.2144C188.596 54.2403 188.083 55.1379 187.406 55.9073C186.74 56.6664 185.919 57.2563 184.944 57.6769C183.97 58.0975 182.852 58.3078 181.59 58.3078C180.328 58.3078 179.205 58.0975 178.22 57.6769C177.245 57.2563 176.42 56.6664 175.742 55.9073C175.076 55.1379 174.568 54.2403 174.219 53.2144C173.87 52.1783 173.696 51.055 173.696 49.8445ZM178.128 49.5214V49.8445C178.128 50.5421 178.189 51.1935 178.312 51.7988C178.435 52.404 178.63 52.9374 178.897 53.3991C179.174 53.8504 179.533 54.2044 179.974 54.4608C180.415 54.7173 180.954 54.8455 181.59 54.8455C182.205 54.8455 182.734 54.7173 183.175 54.4608C183.616 54.2044 183.97 53.8504 184.236 53.3991C184.503 52.9374 184.698 52.404 184.821 51.7988C184.955 51.1935 185.021 50.5421 185.021 49.8445V49.5214C185.021 48.8443 184.955 48.2083 184.821 47.6133C184.698 47.0081 184.498 46.4746 184.221 46.013C183.954 45.5411 183.6 45.1718 183.159 44.9051C182.718 44.6383 182.185 44.505 181.559 44.505C180.933 44.505 180.4 44.6383 179.959 44.9051C179.528 45.1718 179.174 45.5411 178.897 46.013C178.63 46.4746 178.435 47.0081 178.312 47.6133C178.189 48.2083 178.128 48.8443 178.128 49.5214ZM196.624 44.982V58H192.192V41.3505H196.362L196.624 44.982ZM201.64 41.2428L201.563 45.3513C201.348 45.3205 201.086 45.2949 200.778 45.2744C200.481 45.2436 200.209 45.2282 199.963 45.2282C199.337 45.2282 198.793 45.3103 198.332 45.4744C197.88 45.6283 197.501 45.8591 197.193 46.1669C196.895 46.4746 196.67 46.849 196.516 47.2902C196.372 47.7313 196.29 48.2339 196.27 48.7982L195.377 48.5212C195.377 47.444 195.485 46.4541 195.7 45.5513C195.916 44.6383 196.229 43.8433 196.639 43.1663C197.06 42.4892 197.573 41.966 198.178 41.5967C198.783 41.2274 199.475 41.0428 200.255 41.0428C200.501 41.0428 200.753 41.0633 201.009 41.1043C201.266 41.1351 201.476 41.1812 201.64 41.2428ZM211.088 58.3078C209.795 58.3078 208.636 58.1026 207.61 57.6922C206.585 57.2716 205.713 56.692 204.995 55.9534C204.287 55.2148 203.743 54.3582 203.363 53.3837C202.984 52.3989 202.794 51.3525 202.794 50.2446V49.6291C202.794 48.3673 202.974 47.2132 203.333 46.1669C203.692 45.1205 204.205 44.2126 204.871 43.4432C205.548 42.6738 206.369 42.084 207.333 41.6736C208.298 41.2531 209.385 41.0428 210.596 41.0428C211.775 41.0428 212.822 41.2377 213.735 41.6275C214.648 42.0173 215.412 42.5713 216.027 43.2894C216.653 44.0074 217.125 44.8692 217.443 45.8745C217.761 46.8696 217.92 47.9775 217.92 49.1982V51.0448H204.687V48.0903H213.565V47.7518C213.565 47.1363 213.453 46.5875 213.227 46.1053C213.011 45.6129 212.683 45.2231 212.242 44.9358C211.801 44.6486 211.237 44.505 210.549 44.505C209.965 44.505 209.462 44.6332 209.041 44.8897C208.621 45.1461 208.277 45.5052 208.01 45.9668C207.754 46.4284 207.559 46.9721 207.426 47.5979C207.303 48.2134 207.241 48.8905 207.241 49.6291V50.2446C207.241 50.9114 207.333 51.5269 207.518 52.0911C207.713 52.6553 207.985 53.1426 208.334 53.553C208.693 53.9633 209.124 54.2813 209.626 54.507C210.139 54.7327 210.719 54.8455 211.365 54.8455C212.165 54.8455 212.909 54.6916 213.596 54.3839C214.294 54.0659 214.894 53.5889 215.397 52.9528L217.551 55.2918C217.202 55.7944 216.725 56.2766 216.12 56.7382C215.525 57.1998 214.807 57.5794 213.966 57.8769C213.124 58.1641 212.165 58.3078 211.088 58.3078Z" fill="#3ac5f1"/>
</svg>
