<svg width="239" height="80" viewBox="0 0 239 80" fill="none" xmlns="http://www.w3.org/2000/svg">
<rect x="0.5" y="0.5" width="238" height="79" rx="7.5" stroke="#3ac5f1"/>
<path d="M92.5547 47.5957V55.4844C92.2448 55.8581 91.7663 56.2637 91.1191 56.7012C90.472 57.1296 89.638 57.4987 88.6172 57.8086C87.5964 58.1185 86.3613 58.2734 84.9121 58.2734C83.627 58.2734 82.4557 58.0638 81.3984 57.6445C80.3411 57.2161 79.4297 56.5918 78.6641 55.7715C77.9076 54.9512 77.3242 53.9486 76.9141 52.7637C76.5039 51.5697 76.2988 50.207 76.2988 48.6758V47.4316C76.2988 45.9004 76.4948 44.5378 76.8867 43.3438C77.2878 42.1497 77.8574 41.1426 78.5957 40.3223C79.334 39.502 80.2135 38.8776 81.2344 38.4492C82.2552 38.0208 83.39 37.8066 84.6387 37.8066C86.3704 37.8066 87.7923 38.0892 88.9043 38.6543C90.0163 39.2103 90.8639 39.985 91.4473 40.9785C92.0397 41.9629 92.4043 43.0931 92.541 44.3691H88.5625C88.4622 43.6947 88.2708 43.1068 87.9883 42.6055C87.7057 42.1042 87.3001 41.7122 86.7715 41.4297C86.252 41.1471 85.5775 41.0059 84.748 41.0059C84.0645 41.0059 83.4538 41.1471 82.916 41.4297C82.3874 41.7031 81.9408 42.1087 81.5762 42.6465C81.2116 43.1842 80.9336 43.8496 80.7422 44.6426C80.5508 45.4355 80.4551 46.3561 80.4551 47.4043V48.6758C80.4551 49.7148 80.5553 50.6354 80.7559 51.4375C80.9564 52.2305 81.2526 52.9004 81.6445 53.4473C82.0456 53.985 82.5378 54.3906 83.1211 54.6641C83.7044 54.9375 84.3835 55.0742 85.1582 55.0742C85.8053 55.0742 86.3431 55.0195 86.7715 54.9102C87.209 54.8008 87.5599 54.6686 87.8242 54.5137C88.0977 54.3496 88.3073 54.1947 88.4531 54.0488V50.5215H84.707V47.5957H92.5547ZM94.9883 50.7539V50.4668C94.9883 49.3822 95.1432 48.3841 95.4531 47.4727C95.763 46.5521 96.2142 45.7546 96.8066 45.0801C97.3991 44.4056 98.1283 43.8815 98.9941 43.5078C99.86 43.125 100.854 42.9336 101.975 42.9336C103.096 42.9336 104.094 43.125 104.969 43.5078C105.844 43.8815 106.577 44.4056 107.17 45.0801C107.771 45.7546 108.227 46.5521 108.537 47.4727C108.847 48.3841 109.002 49.3822 109.002 50.4668V50.7539C109.002 51.8294 108.847 52.8275 108.537 53.748C108.227 54.6595 107.771 55.457 107.17 56.1406C106.577 56.8151 105.848 57.3392 104.982 57.7129C104.117 58.0866 103.123 58.2734 102.002 58.2734C100.881 58.2734 99.8828 58.0866 99.0078 57.7129C98.1419 57.3392 97.4082 56.8151 96.8066 56.1406C96.2142 55.457 95.763 54.6595 95.4531 53.748C95.1432 52.8275 94.9883 51.8294 94.9883 50.7539ZM98.9258 50.4668V50.7539C98.9258 51.3737 98.9805 51.9525 99.0898 52.4902C99.1992 53.028 99.3724 53.502 99.6094 53.9121C99.8555 54.3132 100.174 54.6276 100.566 54.8555C100.958 55.0833 101.437 55.1973 102.002 55.1973C102.549 55.1973 103.018 55.0833 103.41 54.8555C103.802 54.6276 104.117 54.3132 104.354 53.9121C104.59 53.502 104.764 53.028 104.873 52.4902C104.992 51.9525 105.051 51.3737 105.051 50.7539V50.4668C105.051 49.8652 104.992 49.3001 104.873 48.7715C104.764 48.2337 104.586 47.7598 104.34 47.3496C104.103 46.9303 103.788 46.6022 103.396 46.3652C103.005 46.1283 102.531 46.0098 101.975 46.0098C101.419 46.0098 100.945 46.1283 100.553 46.3652C100.17 46.6022 99.8555 46.9303 99.6094 47.3496C99.3724 47.7598 99.1992 48.2337 99.0898 48.7715C98.9805 49.3001 98.9258 49.8652 98.9258 50.4668ZM110.793 50.7539V50.4668C110.793 49.3822 110.948 48.3841 111.258 47.4727C111.568 46.5521 112.019 45.7546 112.611 45.0801C113.204 44.4056 113.933 43.8815 114.799 43.5078C115.665 43.125 116.658 42.9336 117.779 42.9336C118.9 42.9336 119.898 43.125 120.773 43.5078C121.648 43.8815 122.382 44.4056 122.975 45.0801C123.576 45.7546 124.032 46.5521 124.342 47.4727C124.652 48.3841 124.807 49.3822 124.807 50.4668V50.7539C124.807 51.8294 124.652 52.8275 124.342 53.748C124.032 54.6595 123.576 55.457 122.975 56.1406C122.382 56.8151 121.653 57.3392 120.787 57.7129C119.921 58.0866 118.928 58.2734 117.807 58.2734C116.686 58.2734 115.688 58.0866 114.812 57.7129C113.947 57.3392 113.213 56.8151 112.611 56.1406C112.019 55.457 111.568 54.6595 111.258 53.748C110.948 52.8275 110.793 51.8294 110.793 50.7539ZM114.73 50.4668V50.7539C114.73 51.3737 114.785 51.9525 114.895 52.4902C115.004 53.028 115.177 53.502 115.414 53.9121C115.66 54.3132 115.979 54.6276 116.371 54.8555C116.763 55.0833 117.242 55.1973 117.807 55.1973C118.354 55.1973 118.823 55.0833 119.215 54.8555C119.607 54.6276 119.921 54.3132 120.158 53.9121C120.395 53.502 120.568 53.028 120.678 52.4902C120.796 51.9525 120.855 51.3737 120.855 50.7539V50.4668C120.855 49.8652 120.796 49.3001 120.678 48.7715C120.568 48.2337 120.391 47.7598 120.145 47.3496C119.908 46.9303 119.593 46.6022 119.201 46.3652C118.809 46.1283 118.335 46.0098 117.779 46.0098C117.223 46.0098 116.749 46.1283 116.357 46.3652C115.975 46.6022 115.66 46.9303 115.414 47.3496C115.177 47.7598 115.004 48.2337 114.895 48.7715C114.785 49.3001 114.73 49.8652 114.73 50.4668ZM136.592 43.207H140.16V57.5078C140.16 58.8568 139.859 60.0007 139.258 60.9395C138.665 61.8874 137.836 62.6029 136.77 63.0859C135.703 63.5781 134.464 63.8242 133.051 63.8242C132.431 63.8242 131.775 63.7422 131.082 63.5781C130.398 63.4141 129.742 63.1589 129.113 62.8125C128.493 62.4661 127.974 62.0286 127.555 61.5L129.291 59.1758C129.747 59.7044 130.275 60.1146 130.877 60.4062C131.479 60.707 132.144 60.8574 132.873 60.8574C133.584 60.8574 134.186 60.7253 134.678 60.4609C135.17 60.2057 135.548 59.8275 135.812 59.3262C136.077 58.834 136.209 58.237 136.209 57.5352V46.625L136.592 43.207ZM126.639 50.7812V50.4941C126.639 49.3639 126.775 48.3385 127.049 47.418C127.331 46.4883 127.728 45.6908 128.238 45.0254C128.758 44.36 129.387 43.8451 130.125 43.4805C130.863 43.1159 131.697 42.9336 132.627 42.9336C133.611 42.9336 134.436 43.1159 135.102 43.4805C135.767 43.8451 136.314 44.3646 136.742 45.0391C137.171 45.7044 137.503 46.4928 137.74 47.4043C137.986 48.3066 138.178 49.2956 138.314 50.3711V51C138.178 52.0299 137.973 52.987 137.699 53.8711C137.426 54.7552 137.066 55.5299 136.619 56.1953C136.173 56.8516 135.617 57.362 134.951 57.7266C134.295 58.0911 133.511 58.2734 132.6 58.2734C131.688 58.2734 130.863 58.0866 130.125 57.7129C129.396 57.3392 128.771 56.8151 128.252 56.1406C127.732 55.4661 127.331 54.6732 127.049 53.7617C126.775 52.8503 126.639 51.8568 126.639 50.7812ZM130.576 50.4941V50.7812C130.576 51.3919 130.635 51.9616 130.754 52.4902C130.872 53.0189 131.055 53.4883 131.301 53.8984C131.556 54.2995 131.87 54.6139 132.244 54.8418C132.627 55.0605 133.078 55.1699 133.598 55.1699C134.318 55.1699 134.906 55.0195 135.361 54.7188C135.817 54.4089 136.159 53.985 136.387 53.4473C136.615 52.9095 136.747 52.2897 136.783 51.5879V49.7969C136.765 49.2227 136.688 48.7077 136.551 48.252C136.414 47.7871 136.223 47.3906 135.977 47.0625C135.73 46.7344 135.411 46.4792 135.02 46.2969C134.628 46.1146 134.163 46.0234 133.625 46.0234C133.105 46.0234 132.654 46.1419 132.271 46.3789C131.898 46.6068 131.583 46.9212 131.328 47.3223C131.082 47.7233 130.895 48.1973 130.768 48.7441C130.64 49.2819 130.576 49.8652 130.576 50.4941ZM147.379 37V58H143.428V37H147.379ZM157.441 58.2734C156.293 58.2734 155.263 58.0911 154.352 57.7266C153.44 57.3529 152.665 56.8379 152.027 56.1816C151.398 55.5254 150.915 54.7643 150.578 53.8984C150.241 53.0234 150.072 52.0938 150.072 51.1094V50.5625C150.072 49.4414 150.232 48.416 150.551 47.4863C150.87 46.5566 151.326 45.75 151.918 45.0664C152.52 44.3828 153.249 43.8587 154.105 43.4941C154.962 43.1204 155.928 42.9336 157.004 42.9336C158.052 42.9336 158.982 43.1068 159.793 43.4531C160.604 43.7995 161.283 44.2917 161.83 44.9297C162.386 45.5677 162.805 46.3333 163.088 47.2266C163.37 48.1107 163.512 49.0951 163.512 50.1797V51.8203H151.754V49.1953H159.643V48.8945C159.643 48.3477 159.542 47.86 159.342 47.4316C159.15 46.9941 158.859 46.6478 158.467 46.3926C158.075 46.1374 157.574 46.0098 156.963 46.0098C156.443 46.0098 155.997 46.1237 155.623 46.3516C155.249 46.5794 154.944 46.8984 154.707 47.3086C154.479 47.7188 154.306 48.2018 154.188 48.7578C154.078 49.3047 154.023 49.9062 154.023 50.5625V51.1094C154.023 51.7018 154.105 52.2487 154.27 52.75C154.443 53.2513 154.684 53.6842 154.994 54.0488C155.313 54.4134 155.696 54.696 156.143 54.8965C156.598 55.097 157.113 55.1973 157.688 55.1973C158.398 55.1973 159.059 55.0605 159.67 54.7871C160.29 54.5046 160.823 54.0807 161.27 53.5156L163.184 55.5938C162.874 56.0404 162.45 56.4688 161.912 56.8789C161.383 57.2891 160.745 57.6263 159.998 57.8906C159.251 58.1458 158.398 58.2734 157.441 58.2734ZM180.725 50.9043H175.652V47.7051H180.725C181.508 47.7051 182.146 47.5775 182.639 47.3223C183.131 47.0579 183.491 46.6934 183.719 46.2285C183.947 45.7637 184.061 45.2396 184.061 44.6562C184.061 44.0638 183.947 43.5124 183.719 43.002C183.491 42.4915 183.131 42.0814 182.639 41.7715C182.146 41.4616 181.508 41.3066 180.725 41.3066H177.074V58H172.973V38.0938H180.725C182.283 38.0938 183.618 38.3763 184.73 38.9414C185.852 39.4974 186.708 40.2676 187.301 41.252C187.893 42.2363 188.189 43.362 188.189 44.6289C188.189 45.9141 187.893 47.026 187.301 47.9648C186.708 48.9036 185.852 49.6283 184.73 50.1387C183.618 50.6491 182.283 50.9043 180.725 50.9043ZM194.93 37V58H190.979V37H194.93ZM206.168 54.6641V48.0742C206.168 47.6003 206.09 47.1947 205.936 46.8574C205.781 46.5111 205.539 46.2422 205.211 46.0508C204.892 45.8594 204.477 45.7637 203.967 45.7637C203.529 45.7637 203.151 45.8411 202.832 45.9961C202.513 46.1419 202.267 46.3561 202.094 46.6387C201.921 46.9121 201.834 47.2357 201.834 47.6094H197.896C197.896 46.9805 198.042 46.3835 198.334 45.8184C198.626 45.2533 199.049 44.7565 199.605 44.3281C200.161 43.8906 200.822 43.5488 201.588 43.3027C202.363 43.0566 203.229 42.9336 204.186 42.9336C205.334 42.9336 206.355 43.125 207.248 43.5078C208.141 43.8906 208.843 44.4648 209.354 45.2305C209.873 45.9961 210.133 46.9531 210.133 48.1016V54.4316C210.133 55.2428 210.183 55.9082 210.283 56.4277C210.383 56.9382 210.529 57.3848 210.721 57.7676V58H206.742C206.551 57.599 206.405 57.0977 206.305 56.4961C206.214 55.8854 206.168 55.2747 206.168 54.6641ZM206.688 48.9902L206.715 51.2188H204.514C203.994 51.2188 203.543 51.278 203.16 51.3965C202.777 51.515 202.463 51.6836 202.217 51.9023C201.971 52.112 201.788 52.3581 201.67 52.6406C201.561 52.9232 201.506 53.2331 201.506 53.5703C201.506 53.9076 201.583 54.2129 201.738 54.4863C201.893 54.7507 202.117 54.9603 202.408 55.1152C202.7 55.2611 203.042 55.334 203.434 55.334C204.026 55.334 204.541 55.2155 204.979 54.9785C205.416 54.7415 205.753 54.4499 205.99 54.1035C206.236 53.7572 206.364 53.429 206.373 53.1191L207.412 54.7871C207.266 55.1608 207.066 55.5482 206.811 55.9492C206.564 56.3503 206.25 56.7285 205.867 57.084C205.484 57.4303 205.024 57.7174 204.486 57.9453C203.949 58.1641 203.311 58.2734 202.572 58.2734C201.633 58.2734 200.781 58.0866 200.016 57.7129C199.259 57.3301 198.658 56.806 198.211 56.1406C197.773 55.4661 197.555 54.7005 197.555 53.8438C197.555 53.069 197.701 52.3809 197.992 51.7793C198.284 51.1777 198.712 50.6719 199.277 50.2617C199.852 49.8424 200.567 49.528 201.424 49.3184C202.281 49.0996 203.274 48.9902 204.404 48.9902H206.688ZM217.338 56.332L221.262 43.207H225.486L219.539 60.2285C219.411 60.6022 219.238 61.0033 219.02 61.4316C218.81 61.86 218.523 62.2656 218.158 62.6484C217.803 63.0404 217.352 63.3594 216.805 63.6055C216.267 63.8516 215.606 63.9746 214.822 63.9746C214.449 63.9746 214.143 63.9518 213.906 63.9062C213.669 63.8607 213.387 63.7969 213.059 63.7148V60.8301C213.159 60.8301 213.264 60.8301 213.373 60.8301C213.482 60.8392 213.587 60.8438 213.688 60.8438C214.207 60.8438 214.631 60.7845 214.959 60.666C215.287 60.5475 215.551 60.3652 215.752 60.1191C215.952 59.8822 216.112 59.5723 216.23 59.1895L217.338 56.332ZM215.697 43.207L218.91 53.9258L219.471 58.0957L216.791 58.3828L211.473 43.207H215.697Z" fill="#3ac5f1"/>
<path d="M83.5107 24.0439V27.6875C83.3877 27.8698 83.1917 28.0749 82.9229 28.3027C82.654 28.526 82.2826 28.722 81.8086 28.8906C81.3392 29.0547 80.7331 29.1367 79.9902 29.1367C79.3841 29.1367 78.8258 29.0319 78.3154 28.8223C77.8096 28.6081 77.3698 28.2982 76.9961 27.8926C76.627 27.4824 76.3398 26.9857 76.1348 26.4023C75.9342 25.8145 75.834 25.1491 75.834 24.4062V23.6338C75.834 22.891 75.9206 22.2279 76.0938 21.6445C76.2715 21.0612 76.5312 20.5667 76.873 20.1611C77.2148 19.751 77.6341 19.4411 78.1309 19.2314C78.6276 19.0173 79.1973 18.9102 79.8398 18.9102C80.6009 18.9102 81.2367 19.0423 81.7471 19.3066C82.262 19.5664 82.6631 19.9264 82.9502 20.3867C83.2419 20.847 83.4287 21.3711 83.5107 21.959H82.1914C82.1322 21.599 82.0137 21.2708 81.8359 20.9746C81.6628 20.6784 81.4144 20.4414 81.0908 20.2637C80.7673 20.0814 80.3503 19.9902 79.8398 19.9902C79.3796 19.9902 78.9808 20.0745 78.6436 20.2432C78.3063 20.4118 78.0283 20.6533 77.8096 20.9678C77.5908 21.2822 77.4268 21.6628 77.3174 22.1094C77.2126 22.556 77.1602 23.0596 77.1602 23.6201V24.4062C77.1602 24.9805 77.2262 25.4932 77.3584 25.9443C77.4951 26.3955 77.6888 26.7806 77.9395 27.0996C78.1901 27.4141 78.4886 27.6533 78.835 27.8174C79.1859 27.9814 79.5732 28.0635 79.9971 28.0635C80.4665 28.0635 80.847 28.0247 81.1387 27.9473C81.4303 27.8652 81.6582 27.7695 81.8223 27.6602C81.9863 27.5462 82.1117 27.4391 82.1982 27.3389V25.1104H79.8945V24.0439H83.5107ZM92.0215 27.9268V29H86.751V27.9268H92.0215ZM87.0176 19.0469V29H85.6982V19.0469H87.0176ZM91.3242 23.3262V24.3994H86.751V23.3262H91.3242ZM91.9531 19.0469V20.127H86.751V19.0469H91.9531ZM97.4697 19.0469V29H96.1709V19.0469H97.4697ZM100.669 19.0469V20.127H92.9785V19.0469H100.669ZM108.749 19.0469V29H107.45V19.0469H108.749ZM111.948 19.0469V20.127H104.258V19.0469H111.948ZM113.992 19.0469L116.576 24.0439L119.167 19.0469H120.664L117.232 25.2812V29H115.913V25.2812L112.481 19.0469H113.992ZM121.942 19.0469H125.237C125.985 19.0469 126.616 19.1608 127.131 19.3887C127.65 19.6165 128.045 19.9538 128.313 20.4004C128.587 20.8424 128.724 21.387 128.724 22.0342C128.724 22.4899 128.63 22.9069 128.443 23.2852C128.261 23.6589 127.997 23.9779 127.65 24.2422C127.309 24.502 126.898 24.6956 126.42 24.8232L126.051 24.9668H122.954L122.94 23.8936H125.278C125.752 23.8936 126.146 23.8115 126.461 23.6475C126.775 23.4788 127.012 23.2533 127.172 22.9707C127.331 22.6882 127.411 22.376 127.411 22.0342C127.411 21.6514 127.336 21.3164 127.186 21.0293C127.035 20.7422 126.798 20.5212 126.475 20.3662C126.156 20.2067 125.743 20.127 125.237 20.127H123.262V29H121.942V19.0469ZM127.76 29L125.34 24.4883L126.714 24.4814L129.168 28.918V29H127.76ZM138.232 23.709V24.3379C138.232 25.0853 138.139 25.7552 137.952 26.3477C137.765 26.9401 137.496 27.4437 137.146 27.8584C136.795 28.2731 136.373 28.5898 135.881 28.8086C135.393 29.0273 134.846 29.1367 134.24 29.1367C133.652 29.1367 133.112 29.0273 132.62 28.8086C132.132 28.5898 131.709 28.2731 131.349 27.8584C130.993 27.4437 130.717 26.9401 130.521 26.3477C130.326 25.7552 130.228 25.0853 130.228 24.3379V23.709C130.228 22.9616 130.323 22.2939 130.515 21.7061C130.711 21.1136 130.986 20.61 131.342 20.1953C131.697 19.776 132.119 19.457 132.606 19.2383C133.099 19.0195 133.639 18.9102 134.227 18.9102C134.833 18.9102 135.38 19.0195 135.867 19.2383C136.359 19.457 136.781 19.776 137.132 20.1953C137.487 20.61 137.758 21.1136 137.945 21.7061C138.137 22.2939 138.232 22.9616 138.232 23.709ZM136.927 24.3379V23.6953C136.927 23.1029 136.865 22.5788 136.742 22.123C136.624 21.6673 136.448 21.2845 136.216 20.9746C135.983 20.6647 135.699 20.43 135.361 20.2705C135.029 20.111 134.65 20.0312 134.227 20.0312C133.816 20.0312 133.445 20.111 133.112 20.2705C132.784 20.43 132.502 20.6647 132.265 20.9746C132.032 21.2845 131.852 21.6673 131.725 22.123C131.597 22.5788 131.533 23.1029 131.533 23.6953V24.3379C131.533 24.9349 131.597 25.4635 131.725 25.9238C131.852 26.3796 132.035 26.7646 132.271 27.0791C132.513 27.389 132.798 27.6237 133.126 27.7832C133.459 27.9427 133.83 28.0225 134.24 28.0225C134.669 28.0225 135.049 27.9427 135.382 27.7832C135.715 27.6237 135.995 27.389 136.223 27.0791C136.455 26.7646 136.631 26.3796 136.749 25.9238C136.868 25.4635 136.927 24.9349 136.927 24.3379ZM147.365 19.9287L144.07 29H142.724L146.518 19.0469H147.386L147.365 19.9287ZM150.127 29L146.825 19.9287L146.805 19.0469H147.673L151.48 29H150.127ZM149.956 25.3154V26.3955H144.364V25.3154H149.956ZM156.484 25.0967H153.825V24.0234H156.484C156.999 24.0234 157.416 23.9414 157.735 23.7773C158.054 23.6133 158.287 23.3854 158.433 23.0938C158.583 22.8021 158.658 22.4694 158.658 22.0957C158.658 21.7539 158.583 21.4326 158.433 21.1318C158.287 20.8311 158.054 20.5895 157.735 20.4072C157.416 20.2204 156.999 20.127 156.484 20.127H154.133V29H152.813V19.0469H156.484C157.236 19.0469 157.872 19.1768 158.392 19.4365C158.911 19.6963 159.305 20.0563 159.574 20.5166C159.843 20.9723 159.978 21.4941 159.978 22.082C159.978 22.7201 159.843 23.2646 159.574 23.7158C159.305 24.167 158.911 24.5111 158.392 24.748C157.872 24.9805 157.236 25.0967 156.484 25.0967ZM165.316 25.0967H162.657V24.0234H165.316C165.831 24.0234 166.248 23.9414 166.567 23.7773C166.886 23.6133 167.119 23.3854 167.265 23.0938C167.415 22.8021 167.49 22.4694 167.49 22.0957C167.49 21.7539 167.415 21.4326 167.265 21.1318C167.119 20.8311 166.886 20.5895 166.567 20.4072C166.248 20.2204 165.831 20.127 165.316 20.127H162.965V29H161.646V19.0469H165.316C166.068 19.0469 166.704 19.1768 167.224 19.4365C167.743 19.6963 168.137 20.0563 168.406 20.5166C168.675 20.9723 168.81 21.4941 168.81 22.082C168.81 22.7201 168.675 23.2646 168.406 23.7158C168.137 24.167 167.743 24.5111 167.224 24.748C166.704 24.9805 166.068 25.0967 165.316 25.0967ZM181.613 23.709V24.3379C181.613 25.0853 181.52 25.7552 181.333 26.3477C181.146 26.9401 180.877 27.4437 180.526 27.8584C180.175 28.2731 179.754 28.5898 179.262 28.8086C178.774 29.0273 178.227 29.1367 177.621 29.1367C177.033 29.1367 176.493 29.0273 176.001 28.8086C175.513 28.5898 175.09 28.2731 174.729 27.8584C174.374 27.4437 174.098 26.9401 173.902 26.3477C173.706 25.7552 173.608 25.0853 173.608 24.3379V23.709C173.608 22.9616 173.704 22.2939 173.896 21.7061C174.091 21.1136 174.367 20.61 174.723 20.1953C175.078 19.776 175.5 19.457 175.987 19.2383C176.479 19.0195 177.02 18.9102 177.607 18.9102C178.214 18.9102 178.76 19.0195 179.248 19.2383C179.74 19.457 180.162 19.776 180.513 20.1953C180.868 20.61 181.139 21.1136 181.326 21.7061C181.518 22.2939 181.613 22.9616 181.613 23.709ZM180.308 24.3379V23.6953C180.308 23.1029 180.246 22.5788 180.123 22.123C180.005 21.6673 179.829 21.2845 179.597 20.9746C179.364 20.6647 179.079 20.43 178.742 20.2705C178.41 20.111 178.031 20.0312 177.607 20.0312C177.197 20.0312 176.826 20.111 176.493 20.2705C176.165 20.43 175.882 20.6647 175.646 20.9746C175.413 21.2845 175.233 21.6673 175.105 22.123C174.978 22.5788 174.914 23.1029 174.914 23.6953V24.3379C174.914 24.9349 174.978 25.4635 175.105 25.9238C175.233 26.3796 175.415 26.7646 175.652 27.0791C175.894 27.389 176.179 27.6237 176.507 27.7832C176.84 27.9427 177.211 28.0225 177.621 28.0225C178.049 28.0225 178.43 27.9427 178.763 27.7832C179.095 27.6237 179.376 27.389 179.604 27.0791C179.836 26.7646 180.011 26.3796 180.13 25.9238C180.248 25.4635 180.308 24.9349 180.308 24.3379ZM191.245 19.0469V29H189.919L184.908 21.3232V29H183.589V19.0469H184.908L189.939 26.7441V19.0469H191.245Z" fill="#3ac5f1"/>
<g clip-path="url(#clip0_14_263)">
<path d="M23.2526 20.1716C23.4507 20.0583 23.6751 19.9991 23.9033 20C24.1315 20.0009 24.3554 20.0619 24.5526 20.1768L44.9444 32.0718L38.6342 37.7502L22.6 23.3202V21.3C22.5998 21.0711 22.66 20.8462 22.7746 20.6481C22.8892 20.4499 23.0541 20.2856 23.2526 20.1716V20.1716Z" fill="#3ac5f1"/>
<path d="M22.6 26.8198V52.1802L36.692 39.5L22.6 26.8198Z" fill="#3ac5f1"/>
<path d="M22.6 55.68V57.7002C22.5999 57.9289 22.6602 58.1536 22.7748 58.3516C22.8893 58.5496 23.0541 58.7139 23.2524 58.8278C23.4508 58.9418 23.6756 59.0014 23.9044 59.0006C24.1331 58.9998 24.3576 58.9387 24.5552 58.8234L44.9444 46.9284L38.6342 41.25L22.6 55.68Z" fill="#3ac5f1"/>
<path d="M47.3026 45.5529L55.7526 40.6233C55.9489 40.5088 56.1119 40.3449 56.2252 40.1478C56.3384 39.9507 56.398 39.7274 56.398 39.5001C56.398 39.2728 56.3384 39.0494 56.2252 38.8523C56.1119 38.6553 55.9489 38.4913 55.7526 38.3769L47.3026 33.4473L40.5764 39.5001L47.3026 45.5529Z" fill="#3ac5f1"/>
</g>
<defs>
<clipPath id="clip0_14_263">
<rect width="39" height="39" fill="white" transform="translate(20 20)"/>
</clipPath>
</defs>
</svg>
