<svg width="415" height="517" viewBox="0 0 415 517" fill="none" xmlns="http://www.w3.org/2000/svg">
<path d="M241.231 357.04C231.931 330.95 224.631 304.63 227.101 276.54L201.481 255.98C200.481 256.34 199.281 256.74 198.091 257.24C190.931 260.24 183.571 260.36 176.091 258.77C168.231 257.09 160.671 254.61 154.091 249.9C151.821 248.234 149.727 246.341 147.841 244.25C146.793 243.237 146.07 241.937 145.762 240.513C145.454 239.088 145.575 237.605 146.111 236.25C148.2 234.639 150.618 233.509 153.194 232.941C155.769 232.372 158.439 232.379 161.011 232.96C168.311 234.53 175.591 236.22 182.881 237.85C183.651 238.03 184.431 238.17 186.041 238.48C185.181 236.77 184.691 235.66 184.101 234.61C179.821 227.04 176.101 219.36 176.381 210.25C176.671 199.79 186.941 181.96 202.461 181.1C206.741 180.86 211.341 182.23 215.461 183.82C219.881 185.53 223.861 188.37 228.641 191.05C229.191 189.05 229.781 187.05 230.271 185.05C232.811 174.67 236.141 164.61 241.951 155.52C246.201 148.88 251.431 143.67 259.631 142.14C270.051 140.14 281.931 149.51 282.391 160C282.654 165.837 281.4 171.642 278.751 176.85C273.751 186.91 267.551 196.08 258.531 202.98C255.948 204.753 253.203 206.276 250.331 207.53C248.261 208.53 246.071 209.3 243.641 210.29C248.428 220.063 253.095 229.537 257.641 238.71C263.101 238.3 268.351 237.71 273.641 237.58C283.301 237.42 290.831 241.83 296.781 249.19C302.526 256.351 306.565 264.726 308.591 273.68C308.881 274.91 309.291 276.1 309.741 277.68L316.651 268.01C315.381 263.69 313.651 259.01 312.651 254.17C310.371 243.48 308.161 232.75 306.431 221.96C305.431 215.5 306.511 208.96 308.611 202.8C309.58 200.336 311.135 198.146 313.141 196.42C321.701 188.63 337.321 192.09 341.681 202.7C344.615 209.957 345.594 217.856 344.521 225.61C344.521 225.94 344.401 226.26 344.391 226.61C344.011 235.73 343.621 244.85 343.301 253.97C343.36 255.382 343.517 256.789 343.771 258.18C364.391 258.43 373.001 271.27 376.541 289.18C380.831 284.35 384.901 279.35 389.441 274.82C391.83 272.525 394.624 270.694 397.681 269.42C404.681 266.42 413.351 271.09 414.751 278.5C415.601 283.05 413.431 287.01 410.641 290.38C408.226 293.337 405.493 296.02 402.491 298.38C399.957 300.215 397.158 301.655 394.191 302.65C389.966 304.152 385.659 305.414 381.291 306.43C378.291 307.14 376.971 308.73 376.071 311.63C372.631 322.743 369.005 333.793 365.191 344.78C363.791 348.78 361.681 352.62 360.051 356.21C355.711 357.69 311.001 357.89 305.701 356.49C304.871 351.49 304.021 346.29 303.041 340.36C300.901 346.25 299.041 351.52 297.041 357.02L241.231 357.04Z" fill="#3ac5f1"/>
<path d="M231.341 406.56H379.161C379.552 407.518 379.795 408.529 379.881 409.56C378.731 420.76 377.561 431.96 376.241 443.14C374.931 454.14 373.551 465.14 371.991 476.14C370.991 482.87 369.881 489.59 368.421 496.22C365.901 507.64 360.261 512.42 348.851 513.98C328.521 516.75 308.091 516.23 287.691 515.86C277.141 515.66 266.601 514.03 256.061 513.05L255.061 512.93C247.251 511.73 242.281 507.79 240.261 499.69C237.468 488.931 235.489 477.977 234.341 466.92C233.491 458.02 232.291 449.14 231.691 440.23C231.011 429.97 230.791 419.68 230.451 409.4C230.601 408.413 230.901 407.456 231.341 406.56ZM322.221 484.77C317.221 476.04 308.701 473.5 298.931 475.25C293.281 476.25 288.871 479.17 285.541 484.77H322.221ZM343.621 450.55H320.011C321.841 456.71 325.011 459.05 331.411 459.16C338.191 459.28 341.501 457.04 343.621 450.55ZM289.791 451.09C285.001 449.71 269.721 449.84 266.231 451.18C268.281 456.79 271.371 459 277.341 459.18C284.111 459.34 287.161 457.43 289.791 451.09ZM338.101 432.82C344.291 437.07 350.101 441.17 356.101 445.09C358.171 446.46 360.431 446.81 361.881 444.09C359.671 439.44 344.421 429.09 339.051 428.77C338.741 429.98 338.441 431.3 338.101 432.82ZM247.551 443.09C249.051 446.64 251.161 446.69 253.431 445.35C256.131 443.76 258.731 441.98 261.301 440.16C264.521 437.87 267.691 435.49 270.811 433.05C271.391 432.61 271.601 431.7 272.191 430.63L268.581 428.04C261.411 433.09 253.921 436.97 247.551 443.09Z" fill="#D2D9E2"/>
<path d="M304.701 398.28C277.271 398.28 249.841 398.11 222.421 398.38C213.971 398.47 210.811 393.66 210.481 386.95C210.301 383.13 210.311 379.3 210.481 375.48C210.801 368.48 214.981 364.37 221.911 364.37C277.431 364.37 332.951 364.37 388.471 364.37C395.411 364.37 398.821 367.87 398.921 374.82C398.981 379.14 398.981 383.473 398.921 387.82C398.821 394.77 395.421 398.25 388.471 398.29C373.671 398.35 358.881 398.29 344.081 398.29L304.701 398.28Z" fill="#D1DAE5"/>
<path d="M179.501 3.04C181.501 4.44 184.941 4.04 185.251 7.57C182.251 12.7 175.581 12.45 171.681 6.57C172.561 5.47 173.531 4.23 174.511 3L179.501 3.04Z" fill="#A1ACBA"/>
<path d="M214.301 102.42L205.461 108.75L202.221 106.55C202.481 102.95 202.691 100.05 202.911 96.9501C206.791 94.6901 210.341 96.2601 213.711 97.9501C215.451 98.7501 215.341 99.8701 214.301 102.42Z" fill="#A1ACBA"/>
<path d="M70.3214 85.55L75.3214 84.73L81.5814 93.91L75.7814 97.5C73.2614 93.41 68.9514 91.18 70.3214 85.55Z" fill="#A1ACBA"/>
<path d="M120.711 129.41L123.541 125.95C127.681 127.2 132.541 126.21 134.271 131.41C133.601 134.09 131.861 135.16 129.731 134.68C126.501 133.96 122.531 134.34 120.711 129.41Z" fill="#A1ACBA"/>
<path d="M91.8413 113.31C88.2513 111.74 85.7613 108.87 83.3813 104.95L88.0813 101.09C90.3713 103.22 92.4113 104.84 94.0813 106.77C96.7513 109.75 96.1913 111.3 91.8413 113.31Z" fill="#A1ACBA"/>
<path d="M110.831 127.04C106.371 125.49 103.031 123.85 100.611 119.93L103.801 115.99C108.005 117.011 111.658 119.601 114.011 123.23L110.831 127.04Z" fill="#A1ACBA"/>
<path d="M143.281 134.19C143.191 130.95 144.901 129.67 147.191 129.48C149.711 129.27 152.531 128.96 154.741 129.87C157.181 130.87 156.741 133.29 154.841 135.39C151.011 135.72 146.871 138.79 143.281 134.19Z" fill="#A1ACBA"/>
<path d="M151.901 42.6798C150.597 41.2427 149.761 39.4421 149.506 37.518C149.25 35.5939 149.587 33.6376 150.471 31.9098C151.401 29.9098 153.471 29.4498 155.471 30.7698C158.921 39.0398 158.011 42.2798 151.901 42.6798Z" fill="#A1ACBA"/>
<path d="M166.331 71.5998L170.611 70.8398C172.281 72.7398 173.751 74.2698 175.061 75.9198C177.221 78.6398 177.061 79.4498 174.001 82.3398C168.241 80.9398 165.371 77.1698 166.331 71.5998Z" fill="#A1ACBA"/>
<path d="M211.341 87.4002C209.671 82.8102 210.511 79.2502 212.121 75.8302C215.221 74.2002 216.981 75.3502 218.401 78.4602C217.841 81.1302 217.201 84.1302 216.511 87.4002H211.341Z" fill="#A1ACBA"/>
<path d="M178.081 129.04L168.551 133.04C164.321 129.88 164.231 127.57 167.841 125.69C169.461 124.86 171.192 124.27 172.981 123.94C175.941 123.39 176.731 124.15 178.081 129.04Z" fill="#A1ACBA"/>
<path d="M153.891 54.79C157.161 51.02 159.491 51.12 161.381 55.07C162.381 57.07 162.971 59.33 163.671 61.23C160.531 65.14 158.531 65.14 156.381 61.55C155.788 60.5568 155.293 59.5086 154.901 58.42C154.461 57.2 154.191 55.91 153.891 54.79Z" fill="#A1ACBA"/>
<path d="M193.771 95.4098C188.601 96.1798 185.871 93.4698 182.591 90.9398L182.861 87.3998C185.481 84.7898 188.371 85.7898 194.371 90.9998C194.211 92.1698 194.011 93.6698 193.771 95.4098Z" fill="#A1ACBA"/>
<path d="M203.501 21.1299L200.501 23.9399C194.111 21.0099 192.031 17.7899 193.241 13.1299C197.571 11.5899 200.701 13.8699 203.501 21.1299Z" fill="#A1ACBA"/>
<path d="M214.011 65.6702C209.911 63.4502 208.651 59.3502 210.541 53.4502H215.231C218.361 61.2502 218.141 63.1402 214.011 65.6702Z" fill="#A1ACBA"/>
<path d="M185.621 118.64C186.295 117.924 187.016 117.256 187.781 116.64C189.661 115.33 191.611 114.12 193.421 112.94C196.481 113.55 197.641 115.14 197.131 118.62L189.641 123.73C186.401 123.15 185.421 121.42 185.621 118.64Z" fill="#A1ACBA"/>
<path d="M154.221 20.04C153.291 15.09 154.661 12.93 160.521 9.70996C164.951 11.15 165.611 12.92 162.861 16.17C161.788 17.4257 160.621 18.599 159.371 19.68C157.801 21.04 157.751 20.97 154.221 20.04Z" fill="#A1ACBA"/>
<path d="M208.721 43.86C205.301 41.24 205.301 41.24 203.721 34.38C205.721 31.09 205.721 31.09 209.321 31.75C213.431 39.19 213.371 41.21 208.721 43.86Z" fill="#A1ACBA"/>
<path d="M258.461 96.7199C259.301 101.44 258.001 102.6 249.941 104.46C249.248 104.184 248.578 103.849 247.941 103.46C247.471 103.059 247.051 102.603 246.691 102.1C247.791 97.1199 252.231 95.0399 258.461 96.7199Z" fill="#A1ACBA"/>
<path d="M275.301 84.3301C278.791 86.3901 279.301 88.7601 276.361 91.0101C274.205 92.5037 271.961 93.8661 269.641 95.0901L266.311 91.9701C268.361 87.6601 270.011 86.3201 275.301 84.3301Z" fill="#A1ACBA"/>
<path d="M225.531 100.24H235.811C237.811 102.15 237.631 103.9 235.981 105.56C234.331 107.22 229.131 107.35 226.611 105.94C224.551 104.78 223.911 103.19 225.531 100.24Z" fill="#A1ACBA"/>
<path d="M286.121 81.0401C285.251 76.5101 287.121 74.5801 294.391 72.3701C297.901 75.1901 297.981 77.2101 294.661 79.5401C291.791 81.6001 289.911 81.9501 286.121 81.0401Z" fill="#A1ACBA"/>
<path d="M315.721 63.5298L317.721 66.2798C317.471 70.0398 311.011 72.4698 306.231 71.0398C304.861 66.4398 306.561 65.0398 315.721 63.5298Z" fill="#A1ACBA"/>
<path d="M339.891 62.8599C337.501 67.2899 333.301 65.2599 330.501 66.7799C327.501 65.4499 326.501 63.6799 328.251 60.4599L337.581 58.9199L339.891 62.8599Z" fill="#A1ACBA"/>
<path d="M349.011 61.8901L352.361 59.1401C355.991 60.2901 359.901 60.1401 362.141 64.5301L359.231 68.0401C355.381 66.3701 350.841 66.9501 349.011 61.8901Z" fill="#A1ACBA"/>
<path d="M399.601 158.65L397.011 155.76C398.291 152.44 397.121 148.3 401.431 145.71L404.941 148.48C403.531 152.21 404.511 156.58 399.601 158.65Z" fill="#A1ACBA"/>
<path d="M389.831 178.1C390.711 174.89 391.601 171.68 392.521 168.34H397.011C398.761 172.4 397.191 175.56 395.191 178.34C394.561 179.22 392.491 179.08 391.081 179.41L389.831 178.1Z" fill="#A1ACBA"/>
<path d="M401.611 113.77C396.831 106.89 396.971 104.27 401.761 102.18C405.021 104.94 405.921 107.66 405.171 112.98L401.611 113.77Z" fill="#A1ACBA"/>
<path d="M387.141 84.8598C390.561 82.4198 391.971 82.7298 394.871 86.3598C397.441 89.5898 397.381 91.1898 394.231 93.8698C391.011 91.5798 387.761 89.2898 387.141 84.8598Z" fill="#A1ACBA"/>
<path d="M59.6214 68.8801C61.7714 67.4301 63.6214 67.8801 64.7514 69.4401C66.1245 71.0298 67.0951 72.9265 67.5814 74.9701C67.9614 77.6401 64.6414 79.1201 62.2714 77.5901C59.9014 76.0601 58.6514 72.4401 59.6214 68.8801Z" fill="#A1ACBA"/>
<path d="M390.781 189.55C388.851 193.55 387.531 196.34 386.041 199.46L381.841 199.01C380.251 194.76 382.941 192.29 384.581 188.9L390.781 189.55Z" fill="#A1ACBA"/>
<path d="M372.371 68.2402C380.281 70.9302 382.101 73.5502 379.031 77.6802C375.231 77.0002 372.031 75.4102 369.951 71.2802L372.371 68.2402Z" fill="#A1ACBA"/>
<path d="M404.011 136.5C400.101 134.73 401.011 131.5 401.011 128.64C401.011 126.28 401.921 124.46 404.541 124.09C408.121 127.25 408.011 132.81 404.011 136.5Z" fill="#A1ACBA"/>
<path d="M31.8438 32.5414L33.1118 31.5469L34.3798 30.5524L46.154 35.0925L45.8553 39.4427L41.7994 42.6238L38.1025 45.5232L33.4474 45.0583L31.8438 32.5414Z" fill="#929CA4"/>
<path d="M33.4474 45.0584L39.8007 40.0755L46.154 35.0926L52.0807 37.3778C52.2886 37.6609 52.4358 37.9605 52.6247 38.2495L51.3601 43.3572L45.7968 47.7206L40.1079 52.1824L34.9715 52.0949C34.7359 51.8426 34.4799 51.6283 34.2546 51.3589L33.4474 45.0584Z" fill="#DDE7EF"/>
<path d="M43.7981 45.1722L52.6247 38.2495C53.9356 40.254 54.8082 42.3717 55.2006 44.4611L53.9038 49.5941L49.7942 52.8173L45.182 56.4347L40.3905 56.0767C38.4548 55.1978 36.606 53.8456 34.9716 52.0949L43.7981 45.1722Z" fill="#929CA4"/>
<path d="M49.5193 55.0907L53.5833 60.2724C54.143 60.986 55.1432 61.1069 55.8568 60.5472C56.5704 59.9875 56.6914 58.9873 56.1317 58.2737L52.0677 53.0921C51.508 52.3784 50.5078 52.2575 49.7941 52.8172C49.0805 53.3769 48.9596 54.3771 49.5193 55.0907Z" fill="#929CA4"/>
<path d="M30.8252 23.3836C31.5295 22.8312 31.6524 21.8143 31.1 21.11L28.5666 17.8798C28.0152 17.1768 28.1384 16.1577 28.8414 15.6063C29.5457 15.0539 29.6686 14.0371 29.1163 13.3328C28.5639 12.6285 27.547 12.5056 26.8427 13.0579C24.7349 14.7111 24.365 17.7707 26.0182 19.8785L28.5517 23.1087C29.104 23.813 30.1209 23.9359 30.8252 23.3836Z" fill="#929CA4"/>
<path d="M25.7284 27.381C26.4327 26.8286 26.5556 25.8117 26.0033 25.1074L23.4698 21.8772C21.8166 19.7694 18.7571 19.3995 16.6492 21.0527C15.9449 21.6051 15.822 22.622 16.3744 23.3262C16.9268 24.0305 17.9436 24.1534 18.6479 23.6011C19.3509 23.0497 20.3701 23.1729 20.9214 23.8759L23.4549 27.1061C24.0073 27.8104 25.0241 27.9333 25.7284 27.381Z" fill="#929CA4"/>
<path d="M25.7434 22.152C29.2561 19.3969 34.4226 20.0984 37.1776 23.6111C38.5566 25.3693 39.1511 27.6444 38.8074 29.8532L34.4586 33.264L30.1097 36.6748C27.8826 36.4823 25.8148 35.3627 24.4358 33.6045C21.6808 30.0918 22.2306 24.907 25.7434 22.152Z" fill="#929CA4"/>
<path d="M19.6525 48.2952L31.4727 30.2745C31.5678 30.1308 31.6814 30.0008 31.8128 29.891C31.9456 29.7801 32.0967 29.6899 32.2668 29.6293L52.6695 22.3999C56.6003 21.0133 60.9719 22.2873 63.5454 25.5686C66.8518 29.7844 66.1121 35.9033 61.8964 39.2097C59.1788 41.3411 55.4112 41.9346 52.203 40.6525L34.7979 33.697L37.4055 52.2581C37.8863 55.6795 36.497 59.1305 33.7795 61.2619C29.5637 64.5683 23.3598 63.8952 20.0534 59.6795C17.4799 56.3982 17.3691 51.7823 19.6525 48.2952Z" fill="#DCDFE7"/>
<path d="M47.7954 50.2693L55.2005 44.4614C56.0139 48.7919 54.8891 52.9375 51.7928 55.366C48.6964 57.7945 44.4022 57.8989 40.3903 56.0771L47.7954 50.2693Z" fill="#DDE7EF"/>
</svg>
