<svg width="100" height="100" viewBox="0 0 100 100" fill="none" xmlns="http://www.w3.org/2000/svg">
<circle cx="50" cy="50" r="50" fill="#3ac5f1"/>
<mask id="mask0_10_250" style="mask-type:alpha" maskUnits="userSpaceOnUse" x="0" y="0" width="100" height="100">
<circle cx="50" cy="50" r="50" fill="#3ac5f1"/>
</mask>
<g mask="url(#mask0_10_250)">
<path d="M38.3848 73.4218C38.441 72.8018 38.482 71.8061 38.5144 70.7736C29.1292 69.8124 22.5455 67.5617 22.5455 64.9394C22.5714 64.9351 22.5693 64.8314 22.5693 64.7882C29.585 58.4659 16.4867 13.5358 40.871 14.4473C42.4024 13.1513 45.083 12 48.9278 12C81.9563 14.4991 67.3526 56.928 74.878 64.9373C74.8823 64.9394 74.8888 64.9394 74.8931 64.9394C74.8931 64.9438 74.891 64.9481 74.891 64.9524C74.891 64.9546 74.8931 64.9567 74.8931 64.9567C74.8931 64.9567 74.891 64.9567 74.8888 64.9589C74.8586 67.5271 68.4974 69.7368 59.3843 70.7218C59.4102 71.3482 59.4642 72.1236 59.583 73.4218C63.3674 83.5954 88.9007 80.7398 90.0801 100.361H8.00007C9.17727 80.7398 34.6005 83.5954 38.3848 73.4218Z" fill="white" fill-opacity="0.2"/>
</g>
<path fill-rule="evenodd" clip-rule="evenodd" d="M55.8469 40.2286C56.2113 40.0777 56.6019 40 56.9963 40C57.3908 40 57.7813 40.0777 58.1457 40.2286C58.5101 40.3796 58.8412 40.6008 59.1201 40.8797C59.399 41.1586 59.6203 41.4897 59.7712 41.8541C59.9222 42.2185 59.9998 42.6091 59.9998 43.0035C59.9998 43.3979 59.9222 43.7885 59.7712 44.1529C59.6203 44.5173 59.399 44.8484 59.1201 45.1273L53.0917 51.1557C52.6331 51.6144 52.0501 51.926 51.415 52.0531C51.415 52.0531 51.4151 52.053 51.415 52.0531L48.6276 52.6109C48.2826 52.68 47.9258 52.5721 47.6769 52.3232C47.428 52.0744 47.3199 51.7177 47.3888 51.3726L47.9457 48.5852C48.0731 47.9501 48.3858 47.366 48.8441 46.9081L54.8725 40.8797C55.1514 40.6008 55.4825 40.3796 55.8469 40.2286ZM56.9963 42.1053C56.8784 42.1053 56.7616 42.1285 56.6526 42.1736C56.5436 42.2188 56.4446 42.2849 56.3612 42.3684L55.4072 43.3223L56.6778 44.5923L57.6315 43.6387C57.7149 43.5553 57.7811 43.4562 57.8262 43.3473C57.8713 43.2383 57.8946 43.1215 57.8946 43.0035C57.8946 42.8855 57.8713 42.7687 57.8262 42.6598C57.7811 42.5508 57.7149 42.4518 57.6315 42.3684C57.5481 42.2849 57.4491 42.2188 57.3401 42.1736C57.2311 42.1285 57.1143 42.1053 56.9963 42.1053ZM55.1892 46.081L53.9186 44.811L50.3328 48.3968C50.1684 48.5609 50.0558 48.7704 50.0101 48.998C50.01 48.9982 50.0101 48.9979 50.0101 48.998L49.7626 50.2368L51.0018 49.9887C51.2299 49.9431 51.4386 49.8316 51.6031 49.6671L55.1892 46.081Z" fill="white"/>
<path fill-rule="evenodd" clip-rule="evenodd" d="M43.1579 44.2107C42.8787 44.2107 42.611 44.3216 42.4136 44.519C42.2162 44.7165 42.1053 44.9842 42.1053 45.2634V56.8423C42.1053 57.1215 42.2162 57.3893 42.4136 57.5867C42.611 57.7841 42.8787 57.895 43.1579 57.895H54.7369C55.016 57.895 55.2838 57.7841 55.4812 57.5867C55.6786 57.3893 55.7895 57.1215 55.7895 56.8423V53.6844C55.7895 53.1031 56.2608 52.6318 56.8421 52.6318C57.4235 52.6318 57.8948 53.1031 57.8948 53.6844V56.8423C57.8948 57.6799 57.5621 58.4831 56.9698 59.0753C56.3776 59.6675 55.5744 60.0002 54.7369 60.0002H43.1579C42.3204 60.0002 41.5171 59.6675 40.9249 59.0753C40.3327 58.4831 40 57.6799 40 56.8423V45.2634C40 44.4258 40.3327 43.6226 40.9249 43.0304C41.5171 42.4382 42.3204 42.1055 43.1579 42.1055H46.3158C46.8972 42.1055 47.3684 42.5767 47.3684 43.1581C47.3684 43.7395 46.8972 44.2107 46.3158 44.2107H43.1579Z" fill="white"/>
</svg>
