<svg width="107" height="101" fill="none" xmlns="http://www.w3.org/2000/svg"><path d="M8.975 12a5.888 5.888 0 0 1 5.888-5.887h76.54a2.944 2.944 0 0 1 2.944 2.944v50.045a8.831 8.831 0 0 1-8.832 8.832H17.807a8.831 8.831 0 0 1-8.832-8.832V12.001z" fill="#FC9577"/><path d="M61.506 67.934H8.978a5.888 5.888 0 0 1-5.887-5.888V9.057A5.888 5.888 0 0 1 8.978 3.17h79.484a5.888 5.888 0 0 1 5.888 5.887v35.326" stroke="#01202B" stroke-width="2.944" stroke-linecap="round" stroke-linejoin="round"/><path d="M84.046 67.934H7.506a4.416 4.416 0 1 0 0 8.831h76.54a4.416 4.416 0 1 0 0-8.831z" stroke="#01202B" stroke-width="2.944" stroke-linecap="round" stroke-linejoin="round"/><path d="M84.218 70.531c7.23 0 13.091-6.512 13.091-14.546 0-8.033-5.86-14.546-13.091-14.546-7.23 0-13.091 6.513-13.091 14.546 0 8.034 5.86 14.546 13.091 14.546z" fill="#FFDA49"/><path d="M67.856 79.362a8.832 8.832 0 0 1 8.831-8.831h15.065a8.832 8.832 0 0 1 8.832 8.831v16.625H67.856V79.362z" fill="#FFDA49"/><path d="M86.035 70.531c8.034 0 14.546-6.512 14.546-14.546 0-8.033-6.513-14.546-14.546-14.546-8.034 0-14.546 6.513-14.546 14.546 0 8.034 6.512 14.546 14.546 14.546z" stroke="#01202B" stroke-width="2.944" stroke-linecap="round" stroke-linejoin="round"/><path d="M67.856 79.362a8.832 8.832 0 0 1 8.831-8.831h18.702a8.83 8.83 0 0 1 8.831 8.831v16.625H67.856V79.362zM29.412 47.05c6.427 0 11.637-5.21 11.637-11.637 0-6.427-5.21-11.637-11.637-11.637-6.427 0-11.637 5.21-11.637 11.637 0 6.426 5.21 11.636 11.637 11.636zM14.866 55.882a8.832 8.832 0 0 1 8.832-8.831h11.429a8.832 8.832 0 0 1 8.831 8.831v11.533H14.866V55.882z" stroke="#01202B" stroke-width="2.944" stroke-linecap="round" stroke-linejoin="round"/><path d="M80.668 12h-24.59a5.888 5.888 0 0 0-5.888 5.888v11.386a4.546 4.546 0 0 0 4.546 4.546h2.185a2.36 2.36 0 0 1 2.36 2.36c0 1.98 2.29 3.08 3.836 1.844l3.944-3.155a4.79 4.79 0 0 1 2.991-1.05h10.615a5.888 5.888 0 0 0 5.888-5.887V17.888a5.888 5.888 0 0 0-5.888-5.887z" fill="#FC9577" stroke="#01202B" stroke-width="2.944" stroke-linecap="round" stroke-linejoin="round"/><path d="M56.08 19.62h20.608M56.08 25.508h11.776" stroke="#01202B" stroke-width="2.944" stroke-linecap="round" stroke-linejoin="round"/></svg>