<svg width="107" height="107" fill="none" xmlns="http://www.w3.org/2000/svg"><path d="M73.732 42.84c8.638 15.205 4.032 38.664-11.146 43.745-14.814 8.416-32.25 1.577-40.887-13.628-8.638-15.206-5.73-32.47 9.084-40.886 16.173-12.103 34.83-3.523 42.95 10.769z" fill="#7C36FF"/><path d="M50.85 45.321v12.527l-10.6 6.023" stroke="#01202B" stroke-width="2.65" stroke-linecap="round" stroke-linejoin="round"/><path d="M83.133 56.665c0-18.044-14.627-32.67-32.67-32.67-18.044 0-32.671 14.626-32.671 32.67 0 18.043 14.627 32.67 32.67 32.67M86.709 37.554s-3.3-10.034-11.59-13.428M14.169 37.554s3.3-10.034 11.59-13.428M41.93 19.149l-.003-6.426m13.716.035v6.391M36.668 13.08c8.102-2.06 15.145-2.215 23.071-.103" stroke="#01202B" stroke-width="2.65" stroke-linecap="round" stroke-linejoin="round"/></svg>