<svg width="116" height="143" fill="none" xmlns="http://www.w3.org/2000/svg"><rect x=".78" y="16.598" width="89.119" height="64.515" rx="4.89" fill="#263238"/><rect x="44.046" y="13.676" width="2.593" height="127.374" rx="1.17" fill="#263238"/><path d="M42.563 138.471h5.549c1.2 0 2.173.967 2.173 2.161v.264a.153.153 0 0 1-.154.153h-9.587a.153.153 0 0 1-.154-.153v-.264c0-1.194.973-2.161 2.173-2.161z" fill="#263238"/><path fill="#36C6F3" d="M70.053 14.974h7.461v.464h-7.461zM63.318 14.974h2.28v.464h-2.28z"/><rect x="1.111" y="16.598" width="89.119" height="64.515" rx="4.89" fill="#36C6F3"/><path opacity=".7" d="M83.678 18.916a4.22 4.22 0 0 1 4.22 4.22v51.437a4.22 4.22 0 0 1-4.22 4.22H7.663a4.22 4.22 0 0 1-4.22-4.22V23.136a4.22 4.22 0 0 1 4.22-4.22h76.015z" fill="#fff"/><path opacity=".2" d="M28.014 48.083a160.935 160.935 0 0 0-16.359-.687c.052-7.373.714-15.346 1.297-23.188l16.032 1.025c-.62 9.15-1.236 18.328-.97 22.85z" fill="#000"/><path d="M28.321 47.754a159.614 159.614 0 0 0-16.358-.687c.051-7.378.391-15.012.974-22.859l16.359.686c-.611 9.15-1.227 18.333-.975 22.86z" fill="#fff"/><path opacity=".2" d="m49.79 63.79-16.353.71-.681-23.193 16.037-.376.998 22.86z" fill="#000"/><path d="m32.753 41.315 16.357-.707 1 22.856-16.358.707-1-22.856z" fill="#fff"/><path opacity=".2" d="M86.252 63.239 70.02 61.11l3.385-22.957 15.855 2.403-3.008 22.683z" fill="#000"/><path d="m73.398 38.16 16.232 2.13-3.01 22.681-16.232-2.13 3.01-22.682z" fill="#fff"/><path opacity=".2" d="M30.448 80.008c-2.966.928-10.604 1.071-16.322.788-.816-7.142-.732-15.137-.526-23.188l16.036-.264c-.354 5.528-.079 15.364.812 22.664z" fill="#000"/><path d="M30.774 79.674c-2.97.928-10.61 1.067-16.322.784a165.497 165.497 0 0 1-.848-22.864l16.358-.603c-.359 5.547-.084 15.383.812 22.683z" fill="#fff"/><path opacity=".2" d="M70.668 45.764 54.3 46.12c-.55-7.615-.392-15.578-.182-23.188h16.046c-.182 8.092-.06 15.814.504 22.83z" fill="#000"/><path d="m70.99 45.42-16.369.358a228.176 228.176 0 0 1-.494-22.873l16.368-.357c-.177 8.144-.047 15.86.494 22.873z" fill="#fff"/><g><path d="m76.618 135.876-3.63-.965 1.292-8.59 3.63.966-1.292 8.589zM110.202 139.14h-3.762l-2.928-8.631h3.762l2.928 8.631z" fill="#FF8B7B"/><path d="M105.939 138.708h4.587a.327.327 0 0 1 .318.255l.745 3.315a.544.544 0 0 1-.116.462.558.558 0 0 1-.437.198c-1.475-.024-2.548-.112-4.408-.112-1.143 0-4.591.121-6.165.121-1.574 0-1.785-1.546-1.138-1.69 2.895-.627 5.078-1.49 6.005-2.321a.938.938 0 0 1 .609-.228zM73.127 134.501l3.964 1.054a.33.33 0 0 1 .243.33l-.15 3.389a.537.537 0 0 1-.222.419.547.547 0 0 1-.47.082c-1.406-.404-3.472-1.04-5.271-1.518-2.104-.557-3.95-.928-6.413-1.583-1.49-.395-1.5-2.001-.84-1.969 3.008.14 5.346.692 8.209-.157.306-.104.635-.12.95-.047z" fill="#263238"/><path d="M92.569 28.013a179.12 179.12 0 0 0-3.748 4.838 82.46 82.46 0 0 0-3.466 5.005A47.54 47.54 0 0 0 83.85 40.4l-1.293 2.521-.108.228c0 .023-.028.041-.033.037a.742.742 0 0 1 0-.167 2.039 2.039 0 0 0-.112-.655c0-.046-.033-.093-.052-.14a1.38 1.38 0 0 0-.084-.19 2.428 2.428 0 0 0-.3-.436 2.342 2.342 0 0 0-.567-.464 2.303 2.303 0 0 0-.693-.26 2.432 2.432 0 0 0-.553-.037 1.94 1.94 0 0 0-.614.13 1.45 1.45 0 0 0-.384.2c-.117.087-.112.101-.117.11-.005.01.028 0 .056 0 .167-.112.323-.237.469-.375.178-.154.356-.32.534-.497.726-.692 1.476-1.453 2.258-2.164l2.366 1.523a22.271 22.271 0 0 1-1.368 3.036 9.892 9.892 0 0 1-1.022 1.58 3.404 3.404 0 0 1-.655.617 2.485 2.485 0 0 1-1.274.441c-.201.01-.403-.005-.6-.042a2.458 2.458 0 0 1-1.672-1.235c-.033-.07-.07-.144-.099-.214l-.06-.162a2.765 2.765 0 0 1-.131-.9 4.06 4.06 0 0 1 .046-.558c0-.135.037-.241.056-.344.042-.204.08-.371.117-.533.155-.637.319-1.17.506-1.71a17.59 17.59 0 0 1 .67-1.592c.468-1.04.984-2.043 1.527-3.008a62.718 62.718 0 0 1 3.532-5.572 76.04 76.04 0 0 1 1.94-2.623c.665-.859 1.34-1.69 2.085-2.553l4.347 3.621z" fill="#FF8B7B"/><path d="M94.612 25.278c.805 3.468-6.882 12.35-6.882 12.35l-6.896-5.005a45.53 45.53 0 0 1 5.481-8.074c3.157-3.538 7.411-3.083 8.297.73z" fill="#36C6F3"/><path opacity=".2" d="M94.612 25.278c.805 3.468-6.882 12.35-6.882 12.35l-6.896-5.005a45.53 45.53 0 0 1 5.481-8.074c3.157-3.538 7.411-3.083 8.297.73zM74.28 126.321l-.67 4.43 3.636.965.665-4.429-3.63-.966zM107.274 130.514h-3.761l1.513 4.448h3.762l-1.514-4.448z" fill="#000"/><path d="M111.435 24.758c-4.896 13.891-4.985 28.934-5.533 31.952-2.923-.386-13.932-1.857-19.933-2.66-1.35-21.33 4.563-31.897 4.563-31.897s1.302-.172 3.063-.246c.553 0 1.148-.037 1.766-.033.342 0 .69 0 1.04.024a75.15 75.15 0 0 1 8.475 1.151c.529.098 1.068.209 1.588.325.52.116.937.228 1.406.344 2.009.506 3.565 1.04 3.565 1.04z" fill="#36C6F3"/><path opacity=".2" d="M111.435 24.758c-4.896 13.891-4.985 28.934-5.533 31.952-2.923-.386-13.932-1.857-19.933-2.66-1.35-21.33 4.563-31.897 4.563-31.897s1.302-.172 3.063-.246c.553 0 1.148-.037 1.766-.033.342 0 .69 0 1.04.024a75.15 75.15 0 0 1 8.475 1.151c.529.098 1.068.209 1.588.325.52.116.937.228 1.406.344 2.009.506 3.565 1.04 3.565 1.04z" fill="#000"/><path opacity=".2" d="M106.852 31.156c-.792 2.094-.173 7.893.694 9.871.309-2.07.688-4.244 1.166-6.472l-1.86-3.399z" fill="#000"/><path d="m82.296 37.972 2.98-2.785 1.939 4.355a3.64 3.64 0 0 1-4.216.696l-.703-2.266zM87.463 33.737l1.49 3.854-1.738 1.927-1.94-4.355 2.188-1.426zM105.321 13.462c-.904 2.632-2.108 7.512-.445 9.569-1.682 1.263-3.851 2.688-7.102 2.368-3.251-.32-2.385-2.452-1.373-3.501 3.14-.311 3.364-2.558 3.12-4.731l5.8-3.705z" fill="#FF8B7B"/><path d="M95.825 21.193c0-.734 3.045-1.352 3.162-.655.117.696-.937.928-.604 1.857.332.929 3.401 1.021 4.628-.292.815-.878 1.073-1.76 2.108-1.18 1.036.58 2.282 1.393 1.598 2.67-.684 1.277-4.544 4.295-8.058 3.52-3.514-.776-4.493-2.647-3.809-3.46a4.005 4.005 0 0 0 .975-2.46z" fill="#36C6F3"/><path opacity=".2" d="m102.955 14.976-3.434 2.191c.067.505.087 1.014.061 1.523a4.18 4.18 0 0 0 3.397-1.987c.393-.748.262-1.597-.024-1.727z" fill="#000"/><path d="M105.888 8.82c-.333 3.686-.342 5.858-2.277 7.702-2.909 2.785-7.458.928-8.24-2.758-.703-3.338-.038-8.822 3.644-10.168a5.124 5.124 0 0 1 4.907.71 5.022 5.022 0 0 1 1.966 4.513z" fill="#FF8B7B"/><path d="M106.174 5.87c-2.736-.204-2.966 4.504-.703 6.529 2.736-1.064 6.559-6.115.703-6.528z" fill="#263238"/><path d="M103.465 6.605c-1.602-2.507-4.685 1.467-6.207-1.272-.914-1.649-2.474.139-3.425-.85-.95-.989.52-3.645 1.514-3.881-.558.598-.666 2.739 1.007 1.68 1.672-1.058 2.871-2.154 4.919-.376 2.047 1.778 4.188-1.797 6.066.929 1.649 2.368-1.977 6.75-3.874 3.77z" fill="#263238"/><path d="M106.562 6.215a4.2 4.2 0 0 1-1.293-.209.173.173 0 1 1 .103-.33c1.199.377 2.366.177 2.9-.492.417-.52.384-1.235-.08-2.01a.172.172 0 0 1 .061-.237.175.175 0 0 1 .239.06c.539.892.558 1.77.056 2.401a2.48 2.48 0 0 1-1.986.817z" fill="#263238"/><path d="M107.453 12.938a3.567 3.567 0 0 1-2.254 1.49c-1.223.228-1.728-.877-1.302-1.968.384-.98 1.485-2.28 2.67-2.02 1.185.26 1.518 1.541.886 2.498z" fill="#FF8B7B"/><path d="m72.27 129.427 6.147 1.634s5.85-21.478 7.701-32.964c.562-3.487 1.818-8.315 3.336-13.464 1.911-6.5 4.24-13.502 6.127-18.985 1.996-5.776 3.49-9.857 3.49-9.857l-13.117-1.75s-9.983 30.332-11.107 41.651c-1.157 11.779-2.577 33.735-2.577 33.735z" fill="#263238"/><path opacity=".2" d="M89.454 84.642c1.911-6.5 4.24-13.501 6.128-18.985l-1.162-3.004c-3.528 3.64-5.181 15.484-4.966 21.989z" fill="#000"/><path d="M93.037 54.997s-.646 31.93.235 42.812c.97 11.923 9.983 36.289 9.983 36.289h6.886s-4.595-22.286-6.001-33.893c-1.607-13.186 1.762-43.504 1.762-43.504l-12.865-1.704z" fill="#263238"/><path d="M102.43 134.247h8.109v-2.401l-9.064-.158.955 2.559zM71.46 129.362l7.327 1.95.637-2.345-7.749-2.186-.215 2.581z" fill="#36C6F3"/><path d="M100.209 9.697c0 .297-.173.538-.374.534-.202-.005-.352-.256-.342-.557.009-.302.178-.539.374-.534.197.004.352.255.342.557zM96.785 9.585c0 .302-.178.539-.375.534-.197-.005-.351-.255-.346-.553.004-.297.178-.543.374-.534.197.01.352.265.347.553z" fill="#263238"/><path d="M97.867 9.78a10.551 10.551 0 0 1-1.522 2.526c.41.311.939.425 1.443.311l.08-2.836z" fill="#E04E4A"/><path d="M99.043 13.458a2.483 2.483 0 0 0 1.738-.929.088.088 0 0 0 0-.12.09.09 0 0 0-.126.023 2.41 2.41 0 0 1-2.02.868.088.088 0 1 0-.01.176c.14.005.28-.002.418-.018zM101.296 8.63a.178.178 0 0 0 .127-.279 1.78 1.78 0 0 0-1.429-.77.179.179 0 0 0-.123.057.175.175 0 0 0-.046.128.174.174 0 0 0 .183.167c.454.015.873.247 1.124.622.038.052.1.08.164.074zM95.357 8.388a.169.169 0 0 0 .136-.093 1.404 1.404 0 0 1 1.03-.771.177.177 0 0 0 .137-.19.178.178 0 0 0-.174-.158 1.75 1.75 0 0 0-1.307.956.17.17 0 0 0 .075.237.16.16 0 0 0 .103.019z" fill="#263238"/><path fill-rule="evenodd" clip-rule="evenodd" d="M105.682 139.271a4.426 4.426 0 0 1-.984.142 1.132 1.132 0 0 1-.726-.206.585.585 0 0 1-.183-.489.304.304 0 0 1 .155-.264c.4-.214 1.557.514 1.751.636l.015.01a.099.099 0 0 1 .037.093.091.091 0 0 1-.065.078zm-.282-.127.024-.005v.019l-.024-.014zm-1.312-.078c.204.178.682.204 1.312.078-.489-.314-1.147-.639-1.377-.523a.121.121 0 0 0-.056.112.373.373 0 0 0 .121.333z" fill="#36C6F3"/><path fill-rule="evenodd" clip-rule="evenodd" d="M105.714 139.228a.114.114 0 0 1-.052 0l-.042.004c-.389-.209-1.138-1.026-1.059-1.444a.285.285 0 0 1 .282-.227c.136-.02.275.02.379.111.436.353.529 1.43.529 1.477a.08.08 0 0 1-.037.079zm-.61-1.422a.299.299 0 0 0-.206-.078h-.037c-.131.013-.131.069-.131.092-.047.223.431.859.819 1.152a2.076 2.076 0 0 0-.445-1.166zM72.71 134.85a.094.094 0 0 1-.075.055l-.014.005c-.618-.042-1.696-.167-2-.631a.499.499 0 0 1-.047-.465.287.287 0 0 1 .201-.19c.506-.125 1.771.998 1.912 1.128a.089.089 0 0 1 .023.098zm-.341-.13c-.506-.441-1.214-.929-1.514-.929l-.037.019a.102.102 0 0 0-.075.079.312.312 0 0 0 .028.301c.169.256.759.446 1.597.53z" fill="#36C6F3"/><path fill-rule="evenodd" clip-rule="evenodd" d="M72.659 134.905h-.024a.107.107 0 0 1-.065-.014c-.398-.315-1.045-1.318-.867-1.708.042-.093.14-.191.384-.153a.65.65 0 0 1 .44.274c.325.446.217 1.299.192 1.496a.62.62 0 0 0-.004.04.087.087 0 0 1-.056.065zm-.6-1.717h-.093c-.067.004-.089.033-.096.043a.015.015 0 0 0-.003.003c-.107.241.319 1.007.694 1.393.068-.42.006-.851-.178-1.235a.467.467 0 0 0-.323-.204z" fill="#36C6F3"/><path d="M112.413 27.637a129.127 129.127 0 0 1 1.406 7.257c.403 2.433.763 4.87 1.044 7.34l.099.929.056.575c.043.451.002.906-.122 1.342a3.332 3.332 0 0 1-.97 1.579c-.39.347-.854.603-1.358.747a4.728 4.728 0 0 1-1.804.144 10.447 10.447 0 0 1-2.305-.52 16.294 16.294 0 0 1-1.873-.747 36.61 36.61 0 0 1-3.434-1.779 39.934 39.934 0 0 1-3.205-2.066l1.335-2.465c2.273.78 4.587 1.616 6.807 2.22.553.153 1.101.282 1.621.375.435.099.88.146 1.326.14.136 0 .244-.06.028-.023-.21.053-.402.16-.557.31-.244.214-.422.49-.516.8-.039.14-.063.285-.07.43 0 .08 0-.046-.023-.11l-.043-.223-.168-.883c-.459-2.358-.928-4.724-1.406-7.099-.468-2.372-.965-4.758-1.405-7.122l5.537-1.151z" fill="#FF8B7B"/><path d="M112.689 25.673c2.455 2.605 2.675 10.604 2.675 10.604l-7.106 3.32s-2.305-5.084-2.38-9.685c-.075-5.219 4.352-6.862 6.811-4.24z" fill="#36C6F3"/><path opacity=".2" d="M112.689 25.673c2.455 2.605 2.675 10.604 2.675 10.604l-7.106 3.32s-2.305-5.084-2.38-9.685c-.075-5.219 4.352-6.862 6.811-4.24z" fill="#000"/><path d="M87.214 35.395c-.04 0-.08-.01-.117-.028a.236.236 0 0 1-.084-.32l3.748-6.412a.236.236 0 0 1 .307-.065c.104.06.145.188.096.297l-3.725 6.412a.24.24 0 0 1-.225.116z" fill="#263238"/><path d="M98.842 53.228 84.68 51.185a1.32 1.32 0 0 1-1.12-1.165l-.937-19.375a.832.832 0 0 1 .3-.683.849.849 0 0 1 .731-.175l14.162 2.038a1.338 1.338 0 0 1 1.124 1.17l.914 19.374a.832.832 0 0 1-.294.675.849.849 0 0 1-.718.184z" fill="#fff"/><path d="M98.523 53.424 84.362 51.37a1.324 1.324 0 0 1-1.125-1.165l-.913-19.375a.828.828 0 0 1 .296-.684.844.844 0 0 1 .73-.174L97.51 32.01c.6.09 1.063.571 1.125 1.17l.937 19.37a.828.828 0 0 1-.297.706.844.844 0 0 1-.753.167z" fill="#263238"/><path d="m101.555 40.043-3.331-1.858-.39 4.745s3.186.957 3.884-.663l-.163-2.224z" fill="#FF8B7B"/><path d="m94.514 39.035.468 3.548 2.853.352.389-4.745-3.71.845z" fill="#FF8B7B"/></g></svg>