<svg width="147" height="136" fill="none" xmlns="http://www.w3.org/2000/svg"><path fill="#FFCB7E" d="M.719 62.119h145.465v5.23H.719z"/><path opacity=".3" fill="#fff" d="M.719 62.119h38.932v5.23H.719z"/><path d="M40.272 67.349h-3.387l1.772 65.547h3.229l1.776-65.547h-3.39z" fill="#FFCB7E"/><path opacity=".3" d="M38.657 132.896h1.615v-64.14l-3.331.61 1.716 63.53z" fill="#fff"/><path d="M8.173 67.349H4.786l1.773 65.547h3.228l1.773-65.547H8.173z" fill="#FFCB7E"/><path opacity=".3" d="M6.56 132.896h1.613v-64.14l-3.335.61 1.721 63.53z" fill="#fff"/><path d="M138.729 67.349h-3.386l1.772 65.547h3.229l1.776-65.547h-3.391z" fill="#FFCB7E"/><path opacity=".3" d="M137.115 132.896h1.614v-64.14l-3.331.61 1.717 63.53z" fill="#fff"/><path d="M106.631 67.349h-3.387l1.773 65.547h3.228l1.773-65.547h-3.387z" fill="#FFCB7E"/><path opacity=".3" d="M105.017 132.896h1.614v-64.14l-3.331.61 1.717 63.53z" fill="#fff"/><path d="M69.767 34.12H35.18a1.78 1.78 0 0 0-1.468.678 1.787 1.787 0 0 0-.318 1.588l4.607 22.03a2.943 2.943 0 0 0 2.732 2.262h34.612a1.78 1.78 0 0 0 1.466-.676 1.788 1.788 0 0 0 .32-1.585L72.52 36.386a2.943 2.943 0 0 0-2.753-2.266z" fill="#263238"/><path d="M41.034 59.42a2.052 2.052 0 0 1-1.85-1.544l-4.607-22.03a1.01 1.01 0 0 1 .158-.859.928.928 0 0 1 .741-.313h34.612c.885.06 1.631.683 1.85 1.544l4.606 22.031c.08.295.022.611-.158.858a.915.915 0 0 1-.74.313H41.033z" fill="#fff"/><path opacity=".4" d="m67.146 57.656-4.367-20.89a.86.86 0 0 1 .83-1.025h5.618a.857.857 0 0 1 .83.678l4.368 20.873a.86.86 0 0 1-.83 1.025h-5.618a.857.857 0 0 1-.83-.66z" fill="#FFCB7E"/><path d="m37.459 37.57-.189-.906h6.937l.188.905h-6.936z" fill="#FFCB7E"/><path d="m40.661 39.817-.188-.905h12.155l.193.905H40.66zM41.303 42.062l-.193-.906h13.628l.189.906H41.303zM41.941 44.31l-.188-.906h10.97l.192.906H41.94z" fill="#EBEBEB"/><path d="m39.57 47.952-.193-.905h4.389l.188.905H39.57z" fill="#FFCB7E"/><path d="m42.767 50.196-.188-.905h5.343l.193.905h-5.348zM49.396 50.195l-.193-.905h5.348l.188.905h-5.343zM43.41 52.444l-.188-.905H61.29l.188.905H43.41zM44.048 54.688l-.189-.906h13.778l.189.906H44.048z" fill="#EBEBEB"/><path d="M85.926 60.544H40.387c-1.241 0-2.046.708-1.785 1.575h50.055c-.257-.867-1.49-1.575-2.731-1.575z" fill="#263238"/><path opacity=".1" d="M25.423 28.551 21.052 7.675a.86.86 0 0 1 .83-1.022h35.366c.4.003.744.283.83.674l4.372 20.86a.86.86 0 0 1-.83 1.025H26.253a.857.857 0 0 1-.83-.66z" fill="#FFCB7E"/><path d="M37.993 7.34H30.57l-.167-.803h7.425l.166.802z" fill="#FFCB7E"/><path opacity=".4" d="M36.787 8.618h-2.98l-.167-.803h2.98l.167.803zM41.744 8.618h-4.59l-.167-.803h4.59l.167.803zM43.744 9.893h-9.672l-.167-.802h9.676l.163.802zM42.515 11.17h-8.178l-.167-.802h8.178l.167.803zM47.94 24.732h-5.207l.167.798h5.207l-.167-.798z" fill="#FFCB7E"/><path d="M41.449 22.983h-7.626l-.167-.802h7.626l.167.802z" fill="#FFCB7E"/><path opacity=".4" d="M44.514 26.007h-7.09l.167.802h7.09l-.167-.802zM42.365 24.733H37.16l.167.798h5.206l-.166-.798zM47.306 23.454H36.893l.167.803h10.413l-.167-.803z" fill="#FFCB7E"/><path d="M37.733 1.385h-8.4l-.168-.798h8.4l.168.798z" fill="#FFCB7E"/><path opacity=".4" d="M41.881 4.414h-9.265l.167.802h9.261l-.163-.802zM40.027 3.14h-7.676l.167.798h7.676l-.167-.798zM40.537 1.861h-8.452l.167.802h8.452l-.167-.802z" fill="#FFCB7E"/><path d="M37.639 13.248h-5.84l-.167-.803h5.84l.167.803z" fill="#FFCB7E"/><path opacity=".4" d="M46.81 16.273H35.4l.166.802h11.406l-.162-.802zM39.86 14.998h-4.726l.167.802h4.726l-.167-.802zM44.99 14.998h-4.727l.167.802h4.727l-.167-.802zM45.28 13.72H34.869l.167.802h10.409l-.163-.802zM45.26 20.104h-9.064l.166.798h9.064l-.166-.798zM38.567 18.825H35.93l.167.803h2.633l-.163-.803zM42.69 18.825h-3.763l.167.803h3.763l-.167-.803zM46.078 17.55H35.665l.167.799h10.413l-.167-.798zM54.276 17.337h-3.73l-.166-.803h3.733l.163.803zM60.484 17.337h-5.746l-.167-.803h5.746l.167.803zM62.925 18.615H50.813l-.167-.802h12.112l.167.802zM61.315 19.89H51.078l-.167-.803h10.237l.167.802zM65.9 12.26H54.302l.167.799h11.598l-.167-.798zM63.648 10.982h-9.612l.167.803h9.608l-.163-.803z" fill="#FFCB7E"/><path d="M61.91 9.708H51.326l.167.798h10.584l-.167-.798z" fill="#FFCB7E"/><path opacity=".4" d="M66.423 24.994H52.14l.167.802H66.59l-.167-.802zM57.791 23.72h-5.917l.167.798h5.917l-.167-.798zM64.214 23.72h-5.917l.167.799h5.917l-.167-.798zM64.642 22.442H51.61l.167.803H64.81l-.167-.803zM64.283 28.821H52.937l.166.803H64.45l-.166-.803zM55.972 27.547h-3.301l.167.802h3.3l-.166-.802zM61.136 27.547h-4.71l.167.802h4.71l-.167-.802zM65.443 26.269H52.405l.167.802h13.033l-.162-.802zM30.727 29.813h-8.88l.168.802h8.88l-.168-.802zM28.104 28.538h-6.521l.167.798h6.517l-.163-.798zM35.078 28.538h-6.517l.168.798h6.52l-.171-.798zM34.354 27.26H21.317l.167.802h13.033l-.163-.802z" fill="#FFCB7E"/><path d="M134.063 53.782h-5.498l.643 8.336h4.213l.642-8.336z" fill="#FFCB7E"/><path opacity=".4" d="M134.063 53.782h-5.498l.643 8.336h4.213l.642-8.336z" fill="#fff"/><path d="M14.257 47.995h7.904l-2.698 14.124H11.56l2.697-14.124z" fill="#263238"/><path d="M24.323 44.21H13.161l3.126 17.909h11.162L24.323 44.21z" fill="#FFCB7E"/><path d="M12.502 44.21h.66l3.125 17.909h-.66L12.502 44.21z" fill="#FFCB7E"/><path opacity=".3" d="M12.502 44.21h.66l3.125 17.909h-.66L12.502 44.21z" fill="#000"/><path d="m17.892 60.2-2.457-14.076h7.287l2.453 14.077h-7.283z" fill="#fff"/><path opacity=".6" d="m24.828 60.2-2.453-14.076h.347l2.453 14.077h-.347z" fill="#FFCB7E"/><g><path d="M79.973 21.645c.159.344.107.71-.12.813-.227.104-.535-.09-.694-.43-.159-.34-.103-.71.12-.814.223-.103.536.07.694.43z" fill="#263238"/><path d="M80.11 22.325s.137 2.35-.283 3.711c.857.289 1.783-.43 1.783-.43l-1.5-3.28z" fill="#FF5652"/><path d="M80.016 18.799a.226.226 0 0 1-.129.052 1.764 1.764 0 0 0-1.41.77.223.223 0 1 1-.386-.224 2.2 2.2 0 0 1 1.77-.994.224.224 0 0 1 .154.396z" fill="#263238"/><path d="M92.594 21.11c1.325 4.607 2.803 8.18 4.608 10.22 0 0 .034 3.621-6.108 5.343-6.754 1.895-4.165-2.462-4.165-2.462 3.428-1.916 3.103-4.81.523-5.911l5.142-7.19z" fill="#FF8B7B"/><path d="M98.633 30.449c-.12-1.684-.279-3.604-1.312-3.655-1.14-.052-7.74 2.91-9.15 4.998-1.41 2.088 1.346 4.133 1.346 4.133l9.116-5.476z" fill="#263238"/><path d="m85.124 56.516-5.7-.19.103 4.796s4.971-.517 5.19-1.83l.407-2.776zM76.412 58.682l-.6 2.453 3.715-.008-.103-4.796-3.013 2.35z" fill="#FF8B7B"/><path d="m108.002 36.587-.12 1.231c-.039.396-.09.784-.142 1.176-.098.779-.223 1.558-.355 2.333a60.21 60.21 0 0 1-.978 4.654 46.783 46.783 0 0 1-1.422 4.68 35.606 35.606 0 0 1-.973 2.376c-.372.84-.801 1.653-1.286 2.432-.116.203-.261.43-.403.62-.141.19-.278.43-.428.629-.15.198-.309.43-.506.632l-.279.32c-.099.117-.205.229-.317.335a9.77 9.77 0 0 1-2.97 2.002 17.505 17.505 0 0 1-5.327 1.356 30.066 30.066 0 0 1-4.89.116 35.864 35.864 0 0 1-2.37-.207 29.942 29.942 0 0 1-2.379-.387l.138-4.499a68.47 68.47 0 0 0 8.1-1.937 17.71 17.71 0 0 0 1.74-.672 7.978 7.978 0 0 0 1.38-.753c.252-.153.466-.362.625-.611l.125-.198c.057-.085.11-.173.158-.263.061-.099.117-.2.167-.306.056-.112.116-.215.172-.34a22.699 22.699 0 0 0 1.238-3.418c.352-1.266.682-2.583.947-3.948.266-1.364.523-2.742.759-4.133l.326-2.092.295-2.036 8.975.908z" fill="#FFCB7E"/><path opacity=".2" d="m108.002 36.587-.12 1.231c-.039.396-.09.784-.142 1.176-.098.779-.223 1.558-.355 2.333a60.21 60.21 0 0 1-.978 4.654 46.783 46.783 0 0 1-1.422 4.68 35.606 35.606 0 0 1-.973 2.376c-.372.84-.801 1.653-1.286 2.432-.116.203-.261.43-.403.62-.141.19-.278.43-.428.629-.15.198-.309.43-.506.632l-.279.32c-.099.117-.205.229-.317.335a9.77 9.77 0 0 1-2.97 2.002 17.505 17.505 0 0 1-5.327 1.356 30.066 30.066 0 0 1-4.89.116 35.864 35.864 0 0 1-2.37-.207 29.942 29.942 0 0 1-2.379-.387l.138-4.499a68.47 68.47 0 0 0 8.1-1.937 17.71 17.71 0 0 0 1.74-.672 7.978 7.978 0 0 0 1.38-.753c.252-.153.466-.362.625-.611l.125-.198c.057-.085.11-.173.158-.263.061-.099.117-.2.167-.306.056-.112.116-.215.172-.34a22.699 22.699 0 0 0 1.238-3.418c.352-1.266.682-2.583.947-3.948.266-1.364.523-2.742.759-4.133l.326-2.092.295-2.036 8.975.908z" fill="#000"/><path d="M82.694 42.31a141.175 141.175 0 0 1 3.57 28.043h25.093c.137-3.113-.386-20.664-2.91-33.343a8.785 8.785 0 0 0-3.785-5.655 8.712 8.712 0 0 0-6.672-1.233l-.12.03c-3.133.715-7.629 1.868-10.286 2.88l-.107.043c-3.676 1.436-5.722 5.387-4.783 9.235z" fill="#FFCB7E"/><path opacity=".2" d="M84.327 50.36c.197 1.21.399 2.492.583 3.835 2.053-2.152 2.704-8.748 2.704-8.748l-3.287 4.912z" fill="#000"/><path d="m63.481 56.83-5.696-.534-.188 4.791a5.333 5.333 0 0 0 5.331-1.51l.553-2.747z" fill="#FF8B7B"/><path d="m55.077 57.708-1.826 3.293 4.363.087.188-4.792-2.725 1.412z" fill="#FF8B7B"/><path d="M92.11 40.1c-.394.753-.746 1.42-1.14 2.11-.394.688-.772 1.36-1.179 2.027a85.743 85.743 0 0 1-2.524 3.965 66.102 66.102 0 0 1-5.876 7.594 32.502 32.502 0 0 1-3.724 3.56c-.167.143-.364.28-.549.431-.184.15-.347.271-.621.43-.274.16-.506.32-.754.457a9.497 9.497 0 0 1-.759.374c-.945.413-1.935.715-2.948.9-1.774.3-3.581.341-5.366.12a22.19 22.19 0 0 1-2.486-.43 18.706 18.706 0 0 1-1.209-.322c-.428-.121-.775-.255-1.234-.431l.707-4.443c2.692-.366 5.602-.835 7.607-1.748a5.492 5.492 0 0 0 1.248-.719c.154-.106.297-.227.428-.361.03-.04.163-.155.262-.25.098-.095.214-.185.321-.297a30.682 30.682 0 0 0 2.572-2.906 84.169 84.169 0 0 0 4.83-6.957 198.194 198.194 0 0 0 2.27-3.702l1.107-1.869 1.067-1.838 7.95 4.305z" fill="#FFCB7E"/><path d="M85.223 129.961h-4.689l-2.361-10.913h4.693l2.357 10.913z" fill="#FF8B7B"/><path d="M80.273 128.953h5.272a.43.43 0 0 1 .398.319l.926 4.193a.691.691 0 0 1-.141.585.683.683 0 0 1-.545.25c-1.838-.03-2.734-.138-5.053-.138-1.427 0-3.257.147-5.224.147s-2.228-1.955-1.423-2.131c3.617-.797 3.858-1.89 5.027-2.936a1.13 1.13 0 0 1 .763-.289z" fill="#263238"/><path d="M82.87 119.052h-4.697l1.311 6.044 4.603-.417-1.217-5.627z" fill="#000" opacity=".2"/><path d="M91.09 15.574c1.714 4.357 2.906 6.824 1.774 9.988-1.714 4.757-7.795 5.239-10.752 1.476-2.658-3.388-4.98-9.944-1.625-13.548a6.33 6.33 0 0 1 5.88-1.93 6.355 6.355 0 0 1 4.723 4.014z" fill="#FF8B7B"/><path d="M82.853 22.1c-.703.948-1.243 1.667-1.243 1.667s-1.444-3.603-.891-5.256c-.703-1.4-2.121.663-2.657-2.063-.536-2.725 1.783-5.652 2.657-6.26.09.318.13.648.12.978a11.964 11.964 0 0 1 8.4-2.665 2.923 2.923 0 0 0-.472 1.266s5.088.86 6.245 3.754a5.481 5.481 0 0 0-1.286-.43 6.26 6.26 0 0 1 1.029 4.614 47.65 47.65 0 0 0-.575 7.117c.047 1.222-3.291 3.56-5.327 1.063-2.035-2.497-6-3.784-6-3.784z" fill="#263238"/><path d="M84.975 21.162a4.785 4.785 0 0 1-.215 3.057c-.544 1.291-1.662.981-2.215-.147-.502-1.011-.823-2.888.064-3.788.887-.9 2.031-.34 2.366.878z" fill="#FF8B7B"/><path d="M93.786 70.335s-21.789 7.939-22.427 18.439c-1.183 19.343 6.69 34.656 6.69 34.656l7.217-.775s-1.286-6.225-2.242-23.747c-1.204-22.02 36 .516 28.337-28.573H93.786z" fill="#FFCB7E"/><path opacity=".5" d="M93.786 70.335s-21.789 7.939-22.427 18.439c-1.183 19.343 6.69 34.656 6.69 34.656l7.217-.775s-1.286-6.225-2.242-23.747c-1.204-22.02 36 .516 28.337-28.573H93.786z" fill="#fff"/><path d="M76.052 120.76c-.035 0 1.148 3.22 1.148 3.22l9-.887-.45-2.927-9.698.594z" fill="#FFCB7E"/><path d="M64.956 130.499h-4.693l-1.372-10.918h4.693l1.372 10.918z" fill="#FF8B7B"/><path d="M60.229 128.949h5.142a.404.404 0 0 1 .399.319l.934 4.189a.686.686 0 0 1-.673.861c-1.847-.03-4.521-.134-6.857-.129-2.717 0-3.235.15-6.428.155-1.929 0-2.465-1.951-1.659-2.153 3.669-.809 4.843-.9 8.01-2.867.334-.23.727-.36 1.132-.375z" fill="#263238"/><path opacity=".2" d="m58.895 119.585.746 5.945 4.655-.318-.708-5.627h-4.693z" fill="#000"/><path d="M86.265 70.335s-35.7 3.181-35.315 21.194c.399 18.736 7.367 31.371 7.367 31.371h6.97s-1.32-9.721-1.085-28.164c.068-5.523 11.186-7.349 22.037-7.994 9.377-.56 18.154-5.928 21.797-14.638l.75-1.769H86.265z" fill="#FFCB7E"/><path opacity=".5" d="M86.265 70.335s-35.7 3.181-35.315 21.194c.399 18.736 7.367 31.371 7.367 31.371h6.97s-1.32-9.721-1.085-28.164c.068-5.523 11.186-7.349 22.037-7.994 9.377-.56 18.154-5.928 21.797-14.638l.75-1.769H86.265z" fill="#fff"/><path d="M56.684 121.019c-.03 0 1.196 3.237 1.196 3.237l8.417-.607-.493-2.927-9.12.297z" fill="#FFCB7E"/><path d="m95.637 50.093-4.53 17.534a54.949 54.949 0 0 0-1.74 13.755v8.15c0 2.058 1.509 3.728 3.373 3.728h23.22c1.864 0 3.373-1.67 3.373-3.728v-8.15a54.964 54.964 0 0 1 1.744-13.755l3.999-15.498c.617-2.38-1.003-4.735-3.245-4.735H98.877a3.433 3.433 0 0 0-3.24 2.699z" fill="#263238"/><path d="m66.755 84.77.759 4.348c.403 2.286 2.404 4.141 4.474 4.141h25.813c2.07 0 3.429-1.855 3.026-4.141l-.759-4.348c-.459-2.605-2.734-4.714-5.091-4.714H70.214c-2.374 0-3.913 2.11-3.459 4.714z" fill="#263238"/><path d="M100.287 97.625H86.765l-1.32-4.365h16.162l-1.32 4.365zM91.112 97.625h4.83v32.465h-4.83z" fill="#FFCB7E"/><path opacity=".7" d="M95.942 130.09h-4.83V98.404l4.83.495v31.191z" fill="#fff"/><path opacity=".7" d="M94.763 130.09H93.61V98.658l1.153.12v31.312z" fill="#fff"/><path d="M104.632 135.11H82.415a.622.622 0 0 1-.36-1.12l3.523-2.583a9.864 9.864 0 0 1 5.837-1.92h4.222a9.868 9.868 0 0 1 5.833 1.92l3.527 2.583a.624.624 0 0 1 .221.692.618.618 0 0 1-.586.428z" fill="#FFCB7E"/></g></svg>