<svg width="119" height="133" fill="none" xmlns="http://www.w3.org/2000/svg"><path d="M88.283 26.51a3.452 3.452 0 0 1 0-4.883l1.643-1.638a3.481 3.481 0 0 1 4.901 0 3.456 3.456 0 0 1 0 4.88L93.18 26.51a3.486 3.486 0 0 1-4.897 0z" fill="#83FFA3"/><path opacity=".4" d="M88.283 26.51a3.452 3.452 0 0 1 0-4.883l1.643-1.638a3.481 3.481 0 0 1 4.901 0 3.456 3.456 0 0 1 0 4.88L93.18 26.51a3.486 3.486 0 0 1-4.897 0z" fill="#fff"/><path d="M90.597 24.218a4.448 4.448 0 0 1 0-6.3l3.22-3.208a4.487 4.487 0 0 1 6.321 0 4.444 4.444 0 0 1 0 6.3l-3.228 3.208a4.495 4.495 0 0 1-6.313 0z" fill="#83FFA3"/><path d="M95.085 19.729a7.656 7.656 0 0 0-10.772 0l10.772 10.737a7.598 7.598 0 0 0 0-10.737zM99.456 40.548a.652.652 0 1 1 0-1.302c6.517 0 11.8-5.264 11.8-11.758 0-6.493-5.283-11.758-11.8-11.758a.654.654 0 0 1-.61-.308.649.649 0 0 1 0-.68.654.654 0 0 1 .61-.31 13.117 13.117 0 0 1 11.546 6.461 13.018 13.018 0 0 1 0 13.195 13.117 13.117 0 0 1-11.546 6.46z" fill="#83FFA3"/><path fill-rule="evenodd" clip-rule="evenodd" d="m100.433 58.379 14.91 70.548.738-.021-.139 2.024H81.899l.168-2.482h2.297l-.03.458h10.287l11.56-33.368-7.741-36.617 1.993-.542zm12.803 70.548-6.743-31.97-11.091 31.97h17.834zM26.207 58.4 41.1 128.925h.738l-.14 2.025H7.66l.165-2.482h2.3l-.033.457h10.3l11.56-33.367-7.738-36.618 1.993-.542zm12.787 70.527L32.25 96.958l-11.1 31.969h17.843z" fill="#83FFA3"/><path d="m107.235 93.413-1.918 5.53H31.26l1.913-5.53h74.062z" fill="#83FFA3"/><path d="m104.318 97.583.999 1.36H31.26l-1-1.36h74.058z" fill="#83FFA3"/><path opacity=".2" d="m104.318 97.583.999 1.36H31.26l-1-1.36h74.058z" fill="#000"/><path d="M92.405 84.885H1.949L.64 83.583l116.445-49.358 1.306 1.301-25.985 49.359z" fill="#83FFA3"/><path opacity=".4" d="M92.405 84.885H1.949L.64 83.583l116.445-49.358 1.306 1.301-25.985 49.359z" fill="#000"/><path d="m13.457 56.074 2.51-4.772.373.195-2.51 4.772-.373-.195zM11.437 59.91l1.194-2.27.373.196-1.194 2.269-.373-.195zM91.094 83.583H.64l25.99-49.358h90.455l-25.99 49.358z" fill="#83FFA3"/><path opacity=".3" d="m82 75.667-64.02.227 18.94-35.3c15.17 1.084 37.894 1.185 62.75.694L82 75.668z" fill="#000"/><path d="M81.077 75.894H17.618L35.85 41.266c19.546.723 40.478.26 63.025-.36-3.494 8.725-9.832 21.386-17.797 34.988z" fill="#fff"/><g opacity=".6" fill="#83FFA3"><path d="M28.794 71.812c5.965-.033 11.93-.061 17.894-.084l19.196-.088 9.638-.046a.164.164 0 0 0 0-.323l-17.894.084-19.196.084-9.638.046a.164.164 0 1 0 0 .327z"/><path d="M74.734 72.127a2590.727 2590.727 0 0 1 14.948-27.933c.101-.185-.181-.349-.282-.168a2017.935 2017.935 0 0 0-11.661 21.702c-1.105 2.08-2.203 4.158-3.296 6.235-.097.185.181.349.282.164h.009z"/><path d="M89.877 44.345c-5.993.033-11.984.061-17.974.084l-19.424.088-9.608.046a.164.164 0 1 0 0 .328c5.992-.034 11.983-.062 17.973-.084l19.424-.089 9.609-.046a.164.164 0 1 0 0-.327z"/><path d="M44.003 43.757A2316.218 2316.218 0 0 1 32.3 65.698a966.023 966.023 0 0 1-3.397 6.266c-.1.184.182.348.283.163 3.967-7.278 7.9-14.59 11.8-21.937 1.107-2.088 2.21-4.178 3.312-6.27.101-.184-.181-.348-.282-.163h-.013zM50.384 68.31l6.587-12.942 1.774-3.477c.097-.184-.185-.352-.282-.163l-6.798 13.311-1.58 3.087c-.093.189.19.352.282.163l.017.022zM34.75 68.364l3.792-7.432c.093-.19-.19-.353-.282-.168L34.467 68.2c-.093.189.19.352.282.163zM72.142 68.31c3.157-5.673 5.942-11.544 8.934-17.305.734-1.411 1.475-2.822 2.25-4.2.102-.184-.18-.348-.282-.163-3.156 5.669-5.946 11.543-8.934 17.3a137.452 137.452 0 0 1-2.25 4.2c-.101.18.177.349.282.164v.004z"/><path d="M54.826 68.268c2.866-5.614 5.76-11.22 8.618-16.839l.97-1.907.522-1.028.257-.513c.072-.138.181-.525.325-.6.21-.03.425-.03.636 0h2.529c2.565-.025 5.128-.046 7.69-.063 2.592 0 5.18-.021 7.772.025a.164.164 0 0 0 0-.323c-6.25-.11-12.504 0-18.75.071a.165.165 0 0 0-.143.08c-3.531 7.008-7.139 13.98-10.708 20.967-.097.189.185.353.282.164v-.034z"/><path d="M72.167 68.188c-1.538-5.522-3.371-10.96-5.133-16.41-.497-1.535-.991-3.068-1.483-4.599-.063-.202-.38-.117-.316.084 1.783 5.59 3.654 11.153 5.369 16.764.421 1.41.843 2.826 1.264 4.25a.165.165 0 0 0 .316-.089h-.017z"/><path d="M83.239 47.032c-3.481 2.94-7.215 5.544-10.936 8.155-4.03 2.827-8.092 5.602-12.05 8.52-1.955 1.441-3.889 2.915-5.743 4.481-.16.135.072.366.232.231 3.548-2.994 7.35-5.681 11.146-8.352 4-2.813 8.041-5.572 11.986-8.466 1.905-1.394 3.793-2.822 5.596-4.338.16-.138-.071-.365-.231-.23z"/><path d="M54.215 68.222c4.821.138 9.643.193 14.464.197 1.163 0 2.33 0 3.493-.025a.164.164 0 0 0 0-.323c-4.833.092-9.692 0-14.514-.093-1.146-.025-2.296-.046-3.443-.08a.164.164 0 0 0 0 .324zM47.531 68.42c3.072-5.7 5.9-11.515 8.88-17.268a305.766 305.766 0 0 1 2.233-4.25c.097-.185-.185-.348-.282-.164-3.073 5.699-5.9 11.515-8.88 17.268a225.856 225.856 0 0 1-2.233 4.25c-.097.184.185.348.282.163z"/><path d="M38.458 68.348c1.921-3.763 3.846-7.524 5.773-11.284l2.883-5.644c.472-.92.94-1.843 1.407-2.763.152-.302.384-1.066.713-1.196.279-.044.563-.044.842 0h.936c2.444-.042 4.893-.089 7.341 0 .207 0 .207-.32 0-.328-3.106-.097-6.212 0-9.313.046a.165.165 0 0 0-.144.08c-3.544 7-7.139 13.98-10.708 20.967-.097.185.185.353.282.164l-.012-.042z"/><path d="M47.556 68.34c.628-7.01.982-14.035 1.631-21.039.021-.21-.303-.21-.324 0-.65 7.004-1.003 14.03-1.635 21.038 0 .206.307.206.328 0z"/><path d="M58.4 47.137c-5.226 5.619-10.654 11.044-15.96 16.583a345.956 345.956 0 0 0-4.298 4.548c-.144.151.088.382.231.227 5.256-5.67 10.726-11.14 16.082-16.718a410.89 410.89 0 0 0 4.176-4.409c.144-.15-.088-.382-.231-.23z"/><path d="M38.053 68.31c3.106.152 6.228.286 9.339.198.21 0 .21-.332 0-.323-3.11.084-6.233-.047-9.34-.198-.21 0-.21.315 0 .324zM43.064 49.023c-.157.26-.204.57-.13.865.08.25.284.44.54.504a2.112 2.112 0 0 0 1.735-.5c.494-.359.773-.941.742-1.55a.981.981 0 0 0-1.045-.84c-.36.042-.694.21-.94.475a4.966 4.966 0 0 0-.388.4.98.98 0 0 0-.248.42c-.038.205.278.293.316.087.038-.206.274-.42.421-.567.166-.185.366-.336.59-.445a.69.69 0 0 1 .936.42c.073.446-.086.898-.422 1.201a2.11 2.11 0 0 1-1.348.639.612.612 0 0 1-.556-.215.72.72 0 0 1 .054-.705c.097-.185-.185-.349-.282-.164l.025-.025z"/></g><path opacity=".2" d="M117.084 34.224 91.107 83.584H.639l25.99-49.358h25.93l-13.216 6.034h-.03c-6.743 2.448-12.133 6.198-14.889 10.88-6.321 10.725 3.612 22.256 22.167 25.792C65.147 80.467 85.3 74.605 91.608 63.88a12.814 12.814 0 0 0 1.888-7.139L94.858 34.2l22.226.026z" fill="#000"/><g><path d="M35.105 25.93a278.958 278.958 0 0 0-3.269 5.875c-1.061 1.967-2.114 3.952-2.985 5.932-.228.495-.423.986-.626 1.477-.02.046 0 0 0 0s0 .034-.025.067a1.6 1.6 0 0 0 0 .378c.079.409.208.806.385 1.183.194.42.423.885.68 1.334a48.73 48.73 0 0 0 3.78 5.358l-1.649 1.741a28.115 28.115 0 0 1-5.26-4.98 11.397 11.397 0 0 1-2.025-3.575 5.592 5.592 0 0 1-.245-1.313 4.579 4.579 0 0 1 .093-1.208c0-.072.038-.147.055-.218l.055-.19c.195-.578.38-1.166.592-1.728a66.38 66.38 0 0 1 2.833-6.47 94.175 94.175 0 0 1 3.382-6.13l4.229 2.468z" fill="#FFC3BD"/><path d="m32.432 46.98 2.249.73-1.89 3.163s-1.657-.743-1.987-2.249l1.628-1.645zM37.76 48.935l-2.195 2.437-2.77-.495 1.89-3.163 3.075 1.22z" fill="#FFC3BD"/><path d="M48.246 11.208c-.064.248 0 .483.181.525.182.042.347-.126.423-.374.076-.247 0-.486-.182-.528-.181-.042-.359.126-.422.377z" fill="#263238"/><path d="M48.24 11.687c.103.835.32 1.652.648 2.429a1.507 1.507 0 0 1-1.269-.08l.622-2.35z" fill="#ED847E"/><path d="M47.687 9.593a.151.151 0 0 1 0-.277 1.515 1.515 0 0 1 1.383.11c.067.05.084.143.038.213a.153.153 0 0 1-.211.034 1.222 1.222 0 0 0-1.1-.076.145.145 0 0 1-.11-.004z" fill="#263238"/><path d="M39.624 12.182c.461 2.328.922 6.595-.723 8.147 0 0 .643 2.367 5.002 2.367 4.8 0 2.296-2.367 2.296-2.367-2.621-.616-2.537-2.546-2.114-4.355l-4.46-3.792z" fill="#FFC3BD"/><path d="M38.098 21.53c-.224-1.26-.473-2.686.355-3.05.91-.42 5.687-.446 7.23.612 1.544 1.057.846 3.49.846 3.49L38.1 21.53z" fill="#263238"/><path opacity=".6" d="M38.098 21.53c-.224-1.26-.473-2.686.355-3.05.91-.42 5.687-.446 7.23.612 1.544 1.057.846 3.49.846 3.49L38.1 21.53z" fill="#83FFA3"/><path fill-rule="evenodd" clip-rule="evenodd" d="M23.587 128.588a.739.739 0 0 1-.8.061 3.015 3.015 0 0 1-.794-.388c-.028-.016-.047-.055-.047-.099.003-.044.023-.082.051-.099.042-.03 1.044-.622 1.467-.32a.504.504 0 0 1 .199.327.603.603 0 0 1-.076.518zm-.187-.641-.088-.043v.03a1.797 1.797 0 0 0-1.091.235c.456.246 1.095.462 1.268.246.026-.018.068-.08.026-.277a.293.293 0 0 0-.115-.191z" fill="#83FFA3"/><path fill-rule="evenodd" clip-rule="evenodd" d="M22.03 128.076h-.033a.078.078 0 0 1-.038-.017.074.074 0 0 1-.02-.081c.03-.089.3-.92.709-1.131a.424.424 0 0 1 .338-.025.243.243 0 0 1 .195.243c-.009.361-.787.906-1.15 1.011zm.905-1.129h-.021a.29.29 0 0 0-.195.017 1.805 1.805 0 0 0-.583.898c.376-.176.892-.604.892-.818 0-.021 0-.067-.093-.097zM47.392 129.869c-.136.255-.52.337-.943.337a4.248 4.248 0 0 1-.969-.124c-.03-.011-.053-.045-.059-.088-.006-.045.01-.091.038-.113.038-.035 1.159-.927 1.691-.727a.417.417 0 0 1 .242.249.534.534 0 0 1 0 .466zm-.288-.531a.409.409 0 0 0-.148 0h-.013a2.833 2.833 0 0 0-1.252.561c.597.119 1.408.113 1.56-.177.034-.041.056-.106 0-.236a.254.254 0 0 0-.147-.148z" fill="#83FFA3"/><path fill-rule="evenodd" clip-rule="evenodd" d="M45.51 129.805h-.03a.092.092 0 0 1-.046-.004.076.076 0 0 1-.03-.072c0-.033.072-.893.495-1.225a.564.564 0 0 1 .422-.13c.208.021.284.126.284.21.059.382-.71 1.049-1.095 1.221zm.795-1.292h-.043a.418.418 0 0 0-.266.096 1.776 1.776 0 0 0-.423.982c.398-.239.918-.781.884-.994v-.003c-.006-.021-.02-.081-.152-.081z" fill="#83FFA3"/><path d="M41.95 129.729h3.208l.317-7.375h-3.204l-.322 7.375zM18.433 127.229l3.133.675 3.15-6.868-3.138-.676-3.145 6.869z" fill="#FFC3BD"/><path d="m21.87 127.59-3.526-.756a.28.28 0 0 0-.313.156l-1.222 2.63a.472.472 0 0 0 .338.655c1.235.243 1.848.298 3.383.633.955.206 3.107.726 4.422 1.007 1.315.281 1.772-.973 1.269-1.204-2.3-1.045-3.26-1.963-3.886-2.819a.777.777 0 0 0-.465-.302zM45.138 129.36h-3.505a.275.275 0 0 0-.27.219l-.635 2.827a.458.458 0 0 0 .091.395c.09.111.227.174.37.172 1.268-.021 3.09-.093 4.68-.093 1.857 0 3.46.101 5.64.101 1.316 0 1.692-1.321 1.13-1.443-2.508-.546-4.558-.604-6.727-1.93a1.522 1.522 0 0 0-.774-.248z" fill="#263238"/><path d="M51.535 24.177a130.624 130.624 0 0 0 3.383 7.032 63.537 63.537 0 0 0 1.86 3.356 30.077 30.077 0 0 0 2.055 3.063l.27.335c.068.063 0 .034.106.11.17.146.35.278.542.394.507.307 1.03.587 1.568.839a61.555 61.555 0 0 0 3.56 1.552c2.44.986 4.952 1.93 7.446 2.874l-.609 2.316a77.574 77.574 0 0 1-8.033-1.72c-1.328-.378-2.655-.763-3.996-1.259a19.047 19.047 0 0 1-2.063-.897 8.387 8.387 0 0 1-1.138-.705 5.267 5.267 0 0 1-.642-.567l-.393-.42a28.44 28.44 0 0 1-2.635-3.452 52.944 52.944 0 0 1-2.164-3.575 73.324 73.324 0 0 1-3.594-7.422l4.477-1.854z" fill="#FFC3BD"/><path d="M32.165 21.052c-3.006.684-8.055 15.502-8.055 15.502l4.913 1.62s5.015-7.372 6.72-10.909c1.78-3.738-.5-6.914-3.578-6.213z" fill="#83FFA3"/><path opacity=".5" d="M32.165 21.052c-3.006.684-8.055 15.502-8.055 15.502l4.913 1.62s5.015-7.372 6.72-10.909c1.78-3.738-.5-6.914-3.578-6.213z" fill="#000"/><path d="M29.878 37.447s-4.816-.91-5.92-1.59c-.384.554-.845 2.56-.532 3.151.313.592 4.799 1.444 5.408 1.095.609-.348 1.044-2.656 1.044-2.656z" fill="#263238"/><path opacity=".6" d="M29.878 37.447s-4.816-.91-5.92-1.59c-.384.554-.845 2.56-.532 3.151.313.592 4.799 1.444 5.408 1.095.609-.348 1.044-2.656 1.044-2.656z" fill="#83FFA3"/><path opacity=".3" d="M34.115 26.312c-.918.91-1.75 3.495-1.776 6.78 1.061-1.678 2.156-3.478 2.922-4.917-.364-1.297-.77-2.224-1.146-1.863z" fill="#000"/><path d="M50.143 21.215s3.417 3.826.19 27.523H33.172c-.118-2.614 1.535-15.368-1.006-27.69a45.002 45.002 0 0 1 5.746-.722 64.096 64.096 0 0 1 7.298 0c1.666.168 3.315.466 4.934.89z" fill="#83FFA3"/><path opacity=".5" d="M50.143 21.215s3.417 3.826.19 27.523H33.172c-.118-2.614 1.535-15.368-1.006-27.69a45.002 45.002 0 0 1 5.746-.722 64.096 64.096 0 0 1 7.298 0c1.666.168 3.315.466 4.934.89z" fill="#000"/><path opacity=".3" d="M47.599 28.783c.325 3.457 2.537 7.846 3.83 9.835.17-2.283.258-4.272.284-6.008l-4.114-3.827z" fill="#000"/><path d="M45.894 23.682c-2.068 3.881 8.727 16.501 8.727 16.501l3.771-3.797s-4.896-8.496-6.046-12.263c-1.42-4.658-4.88-3.395-6.452-.44z" fill="#83FFA3"/><path opacity=".5" d="M45.894 23.682c-2.068 3.881 8.727 16.501 8.727 16.501l3.771-3.797s-4.896-8.496-6.046-12.263c-1.42-4.658-4.88-3.395-6.452-.44z" fill="#000"/><path d="M58.241 35.635s-3.273 3.62-4.423 4.195c.28.613 1.764 2.052 2.444 2.098.681.046 3.725-3.331 3.738-4.028.013-.696-1.759-2.265-1.759-2.265z" fill="#263238"/><path opacity=".6" d="M58.241 35.635s-3.273 3.62-4.423 4.195c.28.613 1.764 2.052 2.444 2.098.681.046 3.725-3.331 3.738-4.028.013-.696-1.759-2.265-1.759-2.265z" fill="#83FFA3"/><path d="m71.585 43.774 3.108-1.33.968 3.357s-2.372 1.54-4.27.193l.194-2.22z" fill="#FFC3BD"/><path d="M78.16 44.034a.225.225 0 0 1-.31-.058l-3.45-5.077a.217.217 0 0 1 .06-.306.221.221 0 0 1 .308.058l3.45 5.077a.217.217 0 0 1-.059.306z" fill="#263238"/><path d="m77.97 42.692 1.365 2.006-3.674 1.09-.969-3.348 3.277.252z" fill="#FFC3BD"/><path opacity=".2" d="m45.476 122.358-.16 3.801h-3.214l.165-3.801h3.209zM21.578 120.364l3.137.672-1.624 3.541-3.137-.676 1.624-3.537z" fill="#000"/><path d="M40.021 8.548c-.6 3.105-1.112 4.892.038 6.856 1.73 2.937 5.89 2.517 7.412-.34 1.374-2.576 2.114-7.217-.575-9.201a4.37 4.37 0 0 0-4.192-.56 4.317 4.317 0 0 0-2.683 3.245z" fill="#FFC3BD"/><path d="M38.787 7.013c2.262-.734 6.55-2.316 8.063 1.296 1.513 3.613-4.651 7.385-6.22 7.389-1.26.012-4.33-7.846-1.843-8.685z" fill="#263238"/><path d="M43.497 8.536c4.431 2.412 8.456-1.058 6.66-4.98C48.36-.367 44.431.199 45.654 2.112c1.221 1.913-2.157-.986-4.49-.092-1.637.625.485 1.645.684 2.383.199.738-4.283.76-4.88 1.867-.595 1.108 1.557 3.415 2.66 3.054 1.104-.36 3.087-1.22 3.87-.788z" fill="#263238"/><path d="M44.778 10.394c-.146.772-.03 1.57.33 2.27.478.915 1.306.642 1.666-.226.325-.785.465-2.203-.254-2.828-.719-.625-1.556-.143-1.742.784z" fill="#FFC3BD"/><path d="M44.245 48.738s-3.64 24.335-5.64 33.447c-2.19 9.986-13.894 41.986-13.894 41.986l-5.746-1.234s8.765-29.96 10.012-39.858c1.357-10.728 4.195-34.353 4.195-34.353l11.073.012z" fill="#263238"/><path d="M26.085 122.269c.026 0-1.07 2.06-1.07 2.06l-6.464-1.389.545-1.925 6.99 1.254z" fill="#83FFA3"/><path opacity=".3" d="M41.945 57.406c-4.228.818-3.767 16.4-3.26 24.414 1.213-5.664 2.993-16.564 4.207-24.3a1.465 1.465 0 0 0-.947-.114z" fill="#000"/><path d="M50.326 48.737s.423 23.806.093 33.515c-.355 10.098-3.898 43.168-3.898 43.168h-5.446s-.203-32.478-.444-42.396c-.262-10.812-1.577-34.287-1.577-34.287h11.272z" fill="#263238"/><path d="M47.556 123.272c.026 0-.308 2.241-.308 2.241h-6.613l-.178-1.997 7.1-.244z" fill="#83FFA3"/></g></svg>