<svg width="557" height="307" viewBox="0 0 557 307" fill="none" xmlns="http://www.w3.org/2000/svg">
<path d="M92.9698 197.68H99.9776C99.837 199.977 99.2042 202.016 98.0792 203.797C96.9698 205.578 95.4151 206.969 93.4151 207.969C91.4308 208.969 89.0401 209.469 86.2433 209.469C84.0558 209.469 82.0948 209.094 80.3604 208.344C78.6261 207.578 77.1417 206.484 75.9073 205.062C74.6886 203.641 73.7589 201.922 73.1183 199.906C72.4776 197.891 72.1573 195.633 72.1573 193.133V190.766C72.1573 188.266 72.4854 186.008 73.1417 183.992C73.8136 181.961 74.7667 180.234 76.0011 178.812C77.2511 177.391 78.7433 176.297 80.4776 175.531C82.212 174.766 84.1495 174.383 86.2901 174.383C89.1339 174.383 91.5323 174.898 93.4854 175.93C95.4542 176.961 96.9776 178.383 98.0558 180.195C99.1495 182.008 99.8058 184.07 100.025 186.383H92.9933C92.9151 185.008 92.6417 183.844 92.1729 182.891C91.7042 181.922 90.9933 181.195 90.0401 180.711C89.1026 180.211 87.8526 179.961 86.2901 179.961C85.1183 179.961 84.0948 180.18 83.2198 180.617C82.3448 181.055 81.6104 181.719 81.0167 182.609C80.4229 183.5 79.9776 184.625 79.6808 185.984C79.3995 187.328 79.2589 188.906 79.2589 190.719V193.133C79.2589 194.898 79.3917 196.453 79.6573 197.797C79.9229 199.125 80.3292 200.25 80.8761 201.172C81.4386 202.078 82.1573 202.766 83.0323 203.234C83.9229 203.688 84.9933 203.914 86.2433 203.914C87.712 203.914 88.9229 203.68 89.8761 203.211C90.8292 202.742 91.5558 202.047 92.0558 201.125C92.5714 200.203 92.8761 199.055 92.9698 197.68ZM111.298 173V209H104.525V173H111.298ZM124.001 183.641V209H117.228V183.641H124.001ZM116.806 177.031C116.806 176.047 117.15 175.234 117.837 174.594C118.525 173.953 119.446 173.633 120.603 173.633C121.743 173.633 122.657 173.953 123.345 174.594C124.048 175.234 124.4 176.047 124.4 177.031C124.4 178.016 124.048 178.828 123.345 179.469C122.657 180.109 121.743 180.43 120.603 180.43C119.446 180.43 118.525 180.109 117.837 179.469C117.15 178.828 116.806 178.016 116.806 177.031ZM140.056 204.195C140.884 204.195 141.618 204.039 142.259 203.727C142.9 203.398 143.4 202.945 143.759 202.367C144.134 201.773 144.329 201.078 144.345 200.281H150.696C150.681 202.062 150.204 203.648 149.267 205.039C148.329 206.414 147.071 207.5 145.493 208.297C143.915 209.078 142.15 209.469 140.196 209.469C138.228 209.469 136.509 209.141 135.04 208.484C133.587 207.828 132.376 206.922 131.407 205.766C130.439 204.594 129.712 203.234 129.228 201.688C128.743 200.125 128.501 198.453 128.501 196.672V195.992C128.501 194.195 128.743 192.523 129.228 190.977C129.712 189.414 130.439 188.055 131.407 186.898C132.376 185.727 133.587 184.812 135.04 184.156C136.493 183.5 138.196 183.172 140.15 183.172C142.228 183.172 144.048 183.57 145.61 184.367C147.189 185.164 148.423 186.305 149.314 187.789C150.22 189.258 150.681 191 150.696 193.016H144.345C144.329 192.172 144.15 191.406 143.806 190.719C143.478 190.031 142.993 189.484 142.353 189.078C141.728 188.656 140.954 188.445 140.032 188.445C139.048 188.445 138.243 188.656 137.618 189.078C136.993 189.484 136.509 190.047 136.165 190.766C135.821 191.469 135.579 192.273 135.439 193.18C135.314 194.07 135.251 195.008 135.251 195.992V196.672C135.251 197.656 135.314 198.602 135.439 199.508C135.564 200.414 135.798 201.219 136.142 201.922C136.501 202.625 136.993 203.18 137.618 203.586C138.243 203.992 139.056 204.195 140.056 204.195ZM161.36 172.977V209H154.61V172.977H161.36ZM177.345 183.641L166.329 196.203L160.423 202.18L157.962 197.305L162.65 191.352L169.235 183.641H177.345ZM170.337 209L162.837 197.281L167.501 193.203L178.118 209H170.337ZM215.384 188.773V194.258H197.571V188.773H215.384ZM199.657 174.875V209H192.626V174.875H199.657ZM220.4 174.875V209H213.392V174.875H220.4ZM237.767 209.469C235.798 209.469 234.032 209.156 232.47 208.531C230.907 207.891 229.579 207.008 228.485 205.883C227.407 204.758 226.579 203.453 226.001 201.969C225.423 200.469 225.134 198.875 225.134 197.188V196.25C225.134 194.328 225.407 192.57 225.954 190.977C226.501 189.383 227.282 188 228.298 186.828C229.329 185.656 230.579 184.758 232.048 184.133C233.517 183.492 235.173 183.172 237.017 183.172C238.814 183.172 240.407 183.469 241.798 184.062C243.189 184.656 244.353 185.5 245.29 186.594C246.243 187.688 246.962 189 247.446 190.531C247.931 192.047 248.173 193.734 248.173 195.594V198.406H228.017V193.906H241.54V193.391C241.54 192.453 241.368 191.617 241.025 190.883C240.696 190.133 240.196 189.539 239.525 189.102C238.853 188.664 237.993 188.445 236.946 188.445C236.056 188.445 235.29 188.641 234.65 189.031C234.009 189.422 233.485 189.969 233.079 190.672C232.689 191.375 232.392 192.203 232.189 193.156C232.001 194.094 231.907 195.125 231.907 196.25V197.188C231.907 198.203 232.048 199.141 232.329 200C232.626 200.859 233.04 201.602 233.571 202.227C234.118 202.852 234.775 203.336 235.54 203.68C236.321 204.023 237.204 204.195 238.189 204.195C239.407 204.195 240.54 203.961 241.587 203.492C242.65 203.008 243.564 202.281 244.329 201.312L247.61 204.875C247.079 205.641 246.353 206.375 245.431 207.078C244.525 207.781 243.431 208.359 242.15 208.812C240.868 209.25 239.407 209.469 237.767 209.469ZM258.767 189.172V209H252.017V183.641H258.368L258.767 189.172ZM266.407 183.477L266.29 189.734C265.962 189.688 265.564 189.648 265.095 189.617C264.642 189.57 264.228 189.547 263.853 189.547C262.9 189.547 262.071 189.672 261.368 189.922C260.681 190.156 260.103 190.508 259.634 190.977C259.181 191.445 258.837 192.016 258.603 192.688C258.384 193.359 258.259 194.125 258.228 194.984L256.868 194.562C256.868 192.922 257.032 191.414 257.36 190.039C257.689 188.648 258.165 187.438 258.79 186.406C259.431 185.375 260.212 184.578 261.134 184.016C262.056 183.453 263.11 183.172 264.298 183.172C264.673 183.172 265.056 183.203 265.446 183.266C265.837 183.312 266.157 183.383 266.407 183.477ZM280.798 209.469C278.829 209.469 277.064 209.156 275.501 208.531C273.939 207.891 272.61 207.008 271.517 205.883C270.439 204.758 269.61 203.453 269.032 201.969C268.454 200.469 268.165 198.875 268.165 197.188V196.25C268.165 194.328 268.439 192.57 268.985 190.977C269.532 189.383 270.314 188 271.329 186.828C272.36 185.656 273.61 184.758 275.079 184.133C276.548 183.492 278.204 183.172 280.048 183.172C281.845 183.172 283.439 183.469 284.829 184.062C286.22 184.656 287.384 185.5 288.321 186.594C289.275 187.688 289.993 189 290.478 190.531C290.962 192.047 291.204 193.734 291.204 195.594V198.406H271.048V193.906H284.571V193.391C284.571 192.453 284.4 191.617 284.056 190.883C283.728 190.133 283.228 189.539 282.556 189.102C281.884 188.664 281.025 188.445 279.978 188.445C279.087 188.445 278.321 188.641 277.681 189.031C277.04 189.422 276.517 189.969 276.11 190.672C275.72 191.375 275.423 192.203 275.22 193.156C275.032 194.094 274.939 195.125 274.939 196.25V197.188C274.939 198.203 275.079 199.141 275.36 200C275.657 200.859 276.071 201.602 276.603 202.227C277.15 202.852 277.806 203.336 278.571 203.68C279.353 204.023 280.235 204.195 281.22 204.195C282.439 204.195 283.571 203.961 284.618 203.492C285.681 203.008 286.595 202.281 287.36 201.312L290.642 204.875C290.11 205.641 289.384 206.375 288.462 207.078C287.556 207.781 286.462 208.359 285.181 208.812C283.9 209.25 282.439 209.469 280.798 209.469ZM321.415 174.875V209H314.407V174.875H321.415ZM331.915 174.875V180.383H304.071V174.875H331.915ZM330.345 196.578V196.086C330.345 194.227 330.61 192.516 331.142 190.953C331.673 189.375 332.446 188.008 333.462 186.852C334.478 185.695 335.728 184.797 337.212 184.156C338.696 183.5 340.4 183.172 342.321 183.172C344.243 183.172 345.954 183.5 347.454 184.156C348.954 184.797 350.212 185.695 351.228 186.852C352.259 188.008 353.04 189.375 353.571 190.953C354.103 192.516 354.368 194.227 354.368 196.086V196.578C354.368 198.422 354.103 200.133 353.571 201.711C353.04 203.273 352.259 204.641 351.228 205.812C350.212 206.969 348.962 207.867 347.478 208.508C345.993 209.148 344.29 209.469 342.368 209.469C340.446 209.469 338.735 209.148 337.235 208.508C335.751 207.867 334.493 206.969 333.462 205.812C332.446 204.641 331.673 203.273 331.142 201.711C330.61 200.133 330.345 198.422 330.345 196.578ZM337.095 196.086V196.578C337.095 197.641 337.189 198.633 337.376 199.555C337.564 200.477 337.86 201.289 338.267 201.992C338.689 202.68 339.235 203.219 339.907 203.609C340.579 204 341.4 204.195 342.368 204.195C343.306 204.195 344.11 204 344.782 203.609C345.454 203.219 345.993 202.68 346.4 201.992C346.806 201.289 347.103 200.477 347.29 199.555C347.493 198.633 347.595 197.641 347.595 196.578V196.086C347.595 195.055 347.493 194.086 347.29 193.18C347.103 192.258 346.798 191.445 346.376 190.742C345.97 190.023 345.431 189.461 344.759 189.055C344.087 188.648 343.275 188.445 342.321 188.445C341.368 188.445 340.556 188.648 339.884 189.055C339.228 189.461 338.689 190.023 338.267 190.742C337.86 191.445 337.564 192.258 337.376 193.18C337.189 194.086 337.095 195.055 337.095 196.086ZM388.657 200.07C388.657 199.461 388.564 198.914 388.376 198.43C388.204 197.93 387.876 197.477 387.392 197.07C386.907 196.648 386.228 196.234 385.353 195.828C384.478 195.422 383.345 195 381.954 194.562C380.407 194.062 378.939 193.5 377.548 192.875C376.173 192.25 374.954 191.523 373.892 190.695C372.845 189.852 372.017 188.875 371.407 187.766C370.814 186.656 370.517 185.367 370.517 183.898C370.517 182.477 370.829 181.188 371.454 180.031C372.079 178.859 372.954 177.859 374.079 177.031C375.204 176.188 376.532 175.539 378.064 175.086C379.61 174.633 381.306 174.406 383.15 174.406C385.665 174.406 387.86 174.859 389.735 175.766C391.61 176.672 393.064 177.914 394.095 179.492C395.142 181.07 395.665 182.875 395.665 184.906H388.681C388.681 183.906 388.47 183.031 388.048 182.281C387.642 181.516 387.017 180.914 386.173 180.477C385.345 180.039 384.298 179.82 383.032 179.82C381.814 179.82 380.798 180.008 379.985 180.383C379.173 180.742 378.564 181.234 378.157 181.859C377.751 182.469 377.548 183.156 377.548 183.922C377.548 184.5 377.689 185.023 377.97 185.492C378.267 185.961 378.704 186.398 379.282 186.805C379.86 187.211 380.571 187.594 381.415 187.953C382.259 188.312 383.235 188.664 384.345 189.008C386.204 189.57 387.837 190.203 389.243 190.906C390.665 191.609 391.853 192.398 392.806 193.273C393.759 194.148 394.478 195.141 394.962 196.25C395.446 197.359 395.689 198.617 395.689 200.023C395.689 201.508 395.4 202.836 394.821 204.008C394.243 205.18 393.407 206.172 392.314 206.984C391.22 207.797 389.915 208.414 388.4 208.836C386.884 209.258 385.189 209.469 383.314 209.469C381.626 209.469 379.962 209.25 378.321 208.812C376.681 208.359 375.189 207.68 373.845 206.773C372.517 205.867 371.454 204.711 370.657 203.305C369.86 201.898 369.462 200.234 369.462 198.312H376.517C376.517 199.375 376.681 200.273 377.009 201.008C377.337 201.742 377.798 202.336 378.392 202.789C379.001 203.242 379.72 203.57 380.548 203.773C381.392 203.977 382.314 204.078 383.314 204.078C384.532 204.078 385.532 203.906 386.314 203.562C387.11 203.219 387.696 202.742 388.071 202.133C388.462 201.523 388.657 200.836 388.657 200.07ZM412.47 183.641V188.422H397.704V183.641H412.47ZM401.36 177.383H408.11V201.359C408.11 202.094 408.204 202.656 408.392 203.047C408.595 203.438 408.892 203.711 409.282 203.867C409.673 204.008 410.165 204.078 410.759 204.078C411.181 204.078 411.556 204.062 411.884 204.031C412.228 203.984 412.517 203.938 412.751 203.891L412.775 208.859C412.196 209.047 411.571 209.195 410.9 209.305C410.228 209.414 409.485 209.469 408.673 209.469C407.189 209.469 405.892 209.227 404.782 208.742C403.689 208.242 402.845 207.445 402.251 206.352C401.657 205.258 401.36 203.82 401.36 202.039V177.383ZM430.001 203.281V191.984C430.001 191.172 429.868 190.477 429.603 189.898C429.337 189.305 428.923 188.844 428.36 188.516C427.814 188.188 427.103 188.023 426.228 188.023C425.478 188.023 424.829 188.156 424.282 188.422C423.735 188.672 423.314 189.039 423.017 189.523C422.72 189.992 422.571 190.547 422.571 191.188H415.821C415.821 190.109 416.071 189.086 416.571 188.117C417.071 187.148 417.798 186.297 418.751 185.562C419.704 184.812 420.837 184.227 422.15 183.805C423.478 183.383 424.962 183.172 426.603 183.172C428.571 183.172 430.321 183.5 431.853 184.156C433.384 184.812 434.587 185.797 435.462 187.109C436.353 188.422 436.798 190.062 436.798 192.031V202.883C436.798 204.273 436.884 205.414 437.056 206.305C437.228 207.18 437.478 207.945 437.806 208.602V209H430.985C430.657 208.312 430.407 207.453 430.235 206.422C430.079 205.375 430.001 204.328 430.001 203.281ZM430.892 193.555L430.939 197.375H427.165C426.275 197.375 425.501 197.477 424.845 197.68C424.189 197.883 423.65 198.172 423.228 198.547C422.806 198.906 422.493 199.328 422.29 199.812C422.103 200.297 422.009 200.828 422.009 201.406C422.009 201.984 422.142 202.508 422.407 202.977C422.673 203.43 423.056 203.789 423.556 204.055C424.056 204.305 424.642 204.43 425.314 204.43C426.329 204.43 427.212 204.227 427.962 203.82C428.712 203.414 429.29 202.914 429.696 202.32C430.118 201.727 430.337 201.164 430.353 200.633L432.134 203.492C431.884 204.133 431.54 204.797 431.103 205.484C430.681 206.172 430.142 206.82 429.485 207.43C428.829 208.023 428.04 208.516 427.118 208.906C426.196 209.281 425.103 209.469 423.837 209.469C422.228 209.469 420.767 209.148 419.454 208.508C418.157 207.852 417.126 206.953 416.36 205.812C415.61 204.656 415.235 203.344 415.235 201.875C415.235 200.547 415.485 199.367 415.985 198.336C416.485 197.305 417.22 196.438 418.189 195.734C419.173 195.016 420.4 194.477 421.868 194.117C423.337 193.742 425.04 193.555 426.978 193.555H430.892ZM448.751 189.172V209H442.001V183.641H448.353L448.751 189.172ZM456.392 183.477L456.275 189.734C455.946 189.688 455.548 189.648 455.079 189.617C454.626 189.57 454.212 189.547 453.837 189.547C452.884 189.547 452.056 189.672 451.353 189.922C450.665 190.156 450.087 190.508 449.618 190.977C449.165 191.445 448.821 192.016 448.587 192.688C448.368 193.359 448.243 194.125 448.212 194.984L446.853 194.562C446.853 192.922 447.017 191.414 447.345 190.039C447.673 188.648 448.15 187.438 448.775 186.406C449.415 185.375 450.196 184.578 451.118 184.016C452.04 183.453 453.095 183.172 454.282 183.172C454.657 183.172 455.04 183.203 455.431 183.266C455.821 183.312 456.142 183.383 456.392 183.477ZM473.173 183.641V188.422H458.407V183.641H473.173ZM462.064 177.383H468.814V201.359C468.814 202.094 468.907 202.656 469.095 203.047C469.298 203.438 469.595 203.711 469.985 203.867C470.376 204.008 470.868 204.078 471.462 204.078C471.884 204.078 472.259 204.062 472.587 204.031C472.931 203.984 473.22 203.938 473.454 203.891L473.478 208.859C472.9 209.047 472.275 209.195 471.603 209.305C470.931 209.414 470.189 209.469 469.376 209.469C467.892 209.469 466.595 209.227 465.485 208.742C464.392 208.242 463.548 207.445 462.954 206.352C462.36 205.258 462.064 203.82 462.064 202.039V177.383ZM78.6026 256.07C78.6026 255.461 78.5089 254.914 78.3214 254.43C78.1495 253.93 77.8214 253.477 77.337 253.07C76.8526 252.648 76.1729 252.234 75.2979 251.828C74.4229 251.422 73.2901 251 71.8995 250.562C70.3526 250.062 68.8839 249.5 67.4933 248.875C66.1183 248.25 64.8995 247.523 63.837 246.695C62.7901 245.852 61.962 244.875 61.3526 243.766C60.7589 242.656 60.462 241.367 60.462 239.898C60.462 238.477 60.7745 237.188 61.3995 236.031C62.0245 234.859 62.8995 233.859 64.0245 233.031C65.1495 232.188 66.4776 231.539 68.0089 231.086C69.5558 230.633 71.2511 230.406 73.0948 230.406C75.6104 230.406 77.8058 230.859 79.6808 231.766C81.5558 232.672 83.0089 233.914 84.0401 235.492C85.087 237.07 85.6104 238.875 85.6104 240.906H78.6261C78.6261 239.906 78.4151 239.031 77.9933 238.281C77.587 237.516 76.962 236.914 76.1183 236.477C75.2901 236.039 74.2433 235.82 72.9776 235.82C71.7589 235.82 70.7433 236.008 69.9308 236.383C69.1183 236.742 68.5089 237.234 68.1026 237.859C67.6964 238.469 67.4933 239.156 67.4933 239.922C67.4933 240.5 67.6339 241.023 67.9151 241.492C68.212 241.961 68.6495 242.398 69.2276 242.805C69.8058 243.211 70.5167 243.594 71.3604 243.953C72.2042 244.312 73.1808 244.664 74.2901 245.008C76.1495 245.57 77.7823 246.203 79.1886 246.906C80.6104 247.609 81.7979 248.398 82.7511 249.273C83.7042 250.148 84.4229 251.141 84.9073 252.25C85.3917 253.359 85.6339 254.617 85.6339 256.023C85.6339 257.508 85.3448 258.836 84.7667 260.008C84.1886 261.18 83.3526 262.172 82.2589 262.984C81.1651 263.797 79.8604 264.414 78.3448 264.836C76.8292 265.258 75.1339 265.469 73.2589 265.469C71.5714 265.469 69.9073 265.25 68.2667 264.812C66.6261 264.359 65.1339 263.68 63.7901 262.773C62.462 261.867 61.3995 260.711 60.6026 259.305C59.8058 257.898 59.4073 256.234 59.4073 254.312H66.462C66.462 255.375 66.6261 256.273 66.9542 257.008C67.2823 257.742 67.7433 258.336 68.337 258.789C68.9464 259.242 69.6651 259.57 70.4933 259.773C71.337 259.977 72.2589 260.078 73.2589 260.078C74.4776 260.078 75.4776 259.906 76.2589 259.562C77.0558 259.219 77.6417 258.742 78.0167 258.133C78.4073 257.523 78.6026 256.836 78.6026 256.07ZM96.5792 229V265H89.8292V229H96.5792ZM95.6183 251.43H93.7667C93.7823 249.664 94.0167 248.039 94.4698 246.555C94.9229 245.055 95.5714 243.758 96.4151 242.664C97.2589 241.555 98.2667 240.695 99.4386 240.086C100.626 239.477 101.939 239.172 103.376 239.172C104.626 239.172 105.759 239.352 106.775 239.711C107.806 240.055 108.689 240.617 109.423 241.398C110.173 242.164 110.751 243.172 111.157 244.422C111.564 245.672 111.767 247.188 111.767 248.969V265H104.97V248.922C104.97 247.797 104.806 246.914 104.478 246.273C104.165 245.617 103.704 245.156 103.095 244.891C102.501 244.609 101.767 244.469 100.892 244.469C99.9229 244.469 99.0948 244.648 98.4073 245.008C97.7354 245.367 97.1964 245.867 96.7901 246.508C96.3839 247.133 96.087 247.867 95.8995 248.711C95.712 249.555 95.6183 250.461 95.6183 251.43ZM130.587 259.281V247.984C130.587 247.172 130.454 246.477 130.189 245.898C129.923 245.305 129.509 244.844 128.946 244.516C128.4 244.188 127.689 244.023 126.814 244.023C126.064 244.023 125.415 244.156 124.868 244.422C124.321 244.672 123.9 245.039 123.603 245.523C123.306 245.992 123.157 246.547 123.157 247.188H116.407C116.407 246.109 116.657 245.086 117.157 244.117C117.657 243.148 118.384 242.297 119.337 241.562C120.29 240.812 121.423 240.227 122.735 239.805C124.064 239.383 125.548 239.172 127.189 239.172C129.157 239.172 130.907 239.5 132.439 240.156C133.97 240.812 135.173 241.797 136.048 243.109C136.939 244.422 137.384 246.062 137.384 248.031V258.883C137.384 260.273 137.47 261.414 137.642 262.305C137.814 263.18 138.064 263.945 138.392 264.602V265H131.571C131.243 264.312 130.993 263.453 130.821 262.422C130.665 261.375 130.587 260.328 130.587 259.281ZM131.478 249.555L131.525 253.375H127.751C126.86 253.375 126.087 253.477 125.431 253.68C124.775 253.883 124.235 254.172 123.814 254.547C123.392 254.906 123.079 255.328 122.876 255.812C122.689 256.297 122.595 256.828 122.595 257.406C122.595 257.984 122.728 258.508 122.993 258.977C123.259 259.43 123.642 259.789 124.142 260.055C124.642 260.305 125.228 260.43 125.9 260.43C126.915 260.43 127.798 260.227 128.548 259.82C129.298 259.414 129.876 258.914 130.282 258.32C130.704 257.727 130.923 257.164 130.939 256.633L132.72 259.492C132.47 260.133 132.126 260.797 131.689 261.484C131.267 262.172 130.728 262.82 130.071 263.43C129.415 264.023 128.626 264.516 127.704 264.906C126.782 265.281 125.689 265.469 124.423 265.469C122.814 265.469 121.353 265.148 120.04 264.508C118.743 263.852 117.712 262.953 116.946 261.812C116.196 260.656 115.821 259.344 115.821 257.875C115.821 256.547 116.071 255.367 116.571 254.336C117.071 253.305 117.806 252.438 118.775 251.734C119.759 251.016 120.985 250.477 122.454 250.117C123.923 249.742 125.626 249.555 127.564 249.555H131.478ZM149.337 245.172V265H142.587V239.641H148.939L149.337 245.172ZM156.978 239.477L156.86 245.734C156.532 245.688 156.134 245.648 155.665 245.617C155.212 245.57 154.798 245.547 154.423 245.547C153.47 245.547 152.642 245.672 151.939 245.922C151.251 246.156 150.673 246.508 150.204 246.977C149.751 247.445 149.407 248.016 149.173 248.688C148.954 249.359 148.829 250.125 148.798 250.984L147.439 250.562C147.439 248.922 147.603 247.414 147.931 246.039C148.259 244.648 148.735 243.438 149.36 242.406C150.001 241.375 150.782 240.578 151.704 240.016C152.626 239.453 153.681 239.172 154.868 239.172C155.243 239.172 155.626 239.203 156.017 239.266C156.407 239.312 156.728 239.383 156.978 239.477ZM167.29 239.641V265H160.517V239.641H167.29ZM160.095 233.031C160.095 232.047 160.439 231.234 161.126 230.594C161.814 229.953 162.735 229.633 163.892 229.633C165.032 229.633 165.946 229.953 166.634 230.594C167.337 231.234 167.689 232.047 167.689 233.031C167.689 234.016 167.337 234.828 166.634 235.469C165.946 236.109 165.032 236.43 163.892 236.43C162.735 236.43 161.814 236.109 161.126 235.469C160.439 234.828 160.095 234.016 160.095 233.031ZM179.478 245.055V265H172.728V239.641H179.056L179.478 245.055ZM178.493 251.43H176.665C176.665 249.555 176.907 247.867 177.392 246.367C177.876 244.852 178.556 243.562 179.431 242.5C180.306 241.422 181.345 240.602 182.548 240.039C183.767 239.461 185.126 239.172 186.626 239.172C187.814 239.172 188.9 239.344 189.884 239.688C190.868 240.031 191.712 240.578 192.415 241.328C193.134 242.078 193.681 243.07 194.056 244.305C194.446 245.539 194.642 247.047 194.642 248.828V265H187.845V248.805C187.845 247.68 187.689 246.805 187.376 246.18C187.064 245.555 186.603 245.117 185.993 244.867C185.4 244.602 184.665 244.469 183.79 244.469C182.884 244.469 182.095 244.648 181.423 245.008C180.767 245.367 180.22 245.867 179.782 246.508C179.36 247.133 179.04 247.867 178.821 248.711C178.603 249.555 178.493 250.461 178.493 251.43ZM215.829 239.641H221.946V264.156C221.946 266.469 221.431 268.43 220.4 270.039C219.384 271.664 217.962 272.891 216.134 273.719C214.306 274.562 212.181 274.984 209.759 274.984C208.696 274.984 207.571 274.844 206.384 274.562C205.212 274.281 204.087 273.844 203.009 273.25C201.946 272.656 201.056 271.906 200.337 271L203.314 267.016C204.095 267.922 205.001 268.625 206.032 269.125C207.064 269.641 208.204 269.898 209.454 269.898C210.673 269.898 211.704 269.672 212.548 269.219C213.392 268.781 214.04 268.133 214.493 267.273C214.946 266.43 215.173 265.406 215.173 264.203V245.5L215.829 239.641ZM198.767 252.625V252.133C198.767 250.195 199.001 248.438 199.47 246.859C199.954 245.266 200.634 243.898 201.509 242.758C202.4 241.617 203.478 240.734 204.743 240.109C206.009 239.484 207.439 239.172 209.032 239.172C210.72 239.172 212.134 239.484 213.275 240.109C214.415 240.734 215.353 241.625 216.087 242.781C216.821 243.922 217.392 245.273 217.798 246.836C218.22 248.383 218.548 250.078 218.782 251.922V253C218.548 254.766 218.196 256.406 217.728 257.922C217.259 259.438 216.642 260.766 215.876 261.906C215.11 263.031 214.157 263.906 213.017 264.531C211.892 265.156 210.548 265.469 208.985 265.469C207.423 265.469 206.009 265.148 204.743 264.508C203.493 263.867 202.423 262.969 201.532 261.812C200.642 260.656 199.954 259.297 199.47 257.734C199.001 256.172 198.767 254.469 198.767 252.625ZM205.517 252.133V252.625C205.517 253.672 205.618 254.648 205.821 255.555C206.025 256.461 206.337 257.266 206.759 257.969C207.196 258.656 207.735 259.195 208.376 259.586C209.032 259.961 209.806 260.148 210.696 260.148C211.931 260.148 212.939 259.891 213.72 259.375C214.501 258.844 215.087 258.117 215.478 257.195C215.868 256.273 216.095 255.211 216.157 254.008V250.938C216.126 249.953 215.993 249.07 215.759 248.289C215.525 247.492 215.196 246.812 214.775 246.25C214.353 245.688 213.806 245.25 213.134 244.938C212.462 244.625 211.665 244.469 210.743 244.469C209.853 244.469 209.079 244.672 208.423 245.078C207.782 245.469 207.243 246.008 206.806 246.695C206.384 247.383 206.064 248.195 205.845 249.133C205.626 250.055 205.517 251.055 205.517 252.133ZM244.259 230.875L251.384 246.438L258.509 230.875H266.173L254.946 252.578V265H247.821V252.578L236.571 230.875H244.259ZM266.243 252.578V252.086C266.243 250.227 266.509 248.516 267.04 246.953C267.571 245.375 268.345 244.008 269.36 242.852C270.376 241.695 271.626 240.797 273.11 240.156C274.595 239.5 276.298 239.172 278.22 239.172C280.142 239.172 281.853 239.5 283.353 240.156C284.853 240.797 286.11 241.695 287.126 242.852C288.157 244.008 288.939 245.375 289.47 246.953C290.001 248.516 290.267 250.227 290.267 252.086V252.578C290.267 254.422 290.001 256.133 289.47 257.711C288.939 259.273 288.157 260.641 287.126 261.812C286.11 262.969 284.86 263.867 283.376 264.508C281.892 265.148 280.189 265.469 278.267 265.469C276.345 265.469 274.634 265.148 273.134 264.508C271.65 263.867 270.392 262.969 269.36 261.812C268.345 260.641 267.571 259.273 267.04 257.711C266.509 256.133 266.243 254.422 266.243 252.578ZM272.993 252.086V252.578C272.993 253.641 273.087 254.633 273.275 255.555C273.462 256.477 273.759 257.289 274.165 257.992C274.587 258.68 275.134 259.219 275.806 259.609C276.478 260 277.298 260.195 278.267 260.195C279.204 260.195 280.009 260 280.681 259.609C281.353 259.219 281.892 258.68 282.298 257.992C282.704 257.289 283.001 256.477 283.189 255.555C283.392 254.633 283.493 253.641 283.493 252.578V252.086C283.493 251.055 283.392 250.086 283.189 249.18C283.001 248.258 282.696 247.445 282.275 246.742C281.868 246.023 281.329 245.461 280.657 245.055C279.985 244.648 279.173 244.445 278.22 244.445C277.267 244.445 276.454 244.648 275.782 245.055C275.126 245.461 274.587 246.023 274.165 246.742C273.759 247.445 273.462 248.258 273.275 249.18C273.087 250.086 272.993 251.055 272.993 252.086ZM309.415 258.93V239.641H316.165V265H309.814L309.415 258.93ZM310.165 253.727L312.157 253.68C312.157 255.367 311.962 256.938 311.571 258.391C311.181 259.828 310.595 261.078 309.814 262.141C309.032 263.188 308.048 264.008 306.86 264.602C305.673 265.18 304.275 265.469 302.665 265.469C301.431 265.469 300.29 265.297 299.243 264.953C298.212 264.594 297.321 264.039 296.571 263.289C295.837 262.523 295.259 261.547 294.837 260.359C294.431 259.156 294.228 257.711 294.228 256.023V239.641H300.978V256.07C300.978 256.82 301.064 257.453 301.235 257.969C301.423 258.484 301.681 258.906 302.009 259.234C302.337 259.562 302.72 259.797 303.157 259.938C303.61 260.078 304.11 260.148 304.657 260.148C306.048 260.148 307.142 259.867 307.939 259.305C308.751 258.742 309.321 257.977 309.65 257.008C309.993 256.023 310.165 254.93 310.165 253.727ZM328.071 245.172V265H321.321V239.641H327.673L328.071 245.172ZM335.712 239.477L335.595 245.734C335.267 245.688 334.868 245.648 334.4 245.617C333.946 245.57 333.532 245.547 333.157 245.547C332.204 245.547 331.376 245.672 330.673 245.922C329.985 246.156 329.407 246.508 328.939 246.977C328.485 247.445 328.142 248.016 327.907 248.688C327.689 249.359 327.564 250.125 327.532 250.984L326.173 250.562C326.173 248.922 326.337 247.414 326.665 246.039C326.993 244.648 327.47 243.438 328.095 242.406C328.735 241.375 329.517 240.578 330.439 240.016C331.36 239.453 332.415 239.172 333.603 239.172C333.978 239.172 334.36 239.203 334.751 239.266C335.142 239.312 335.462 239.383 335.712 239.477ZM369.04 256.07C369.04 255.461 368.946 254.914 368.759 254.43C368.587 253.93 368.259 253.477 367.775 253.07C367.29 252.648 366.61 252.234 365.735 251.828C364.86 251.422 363.728 251 362.337 250.562C360.79 250.062 359.321 249.5 357.931 248.875C356.556 248.25 355.337 247.523 354.275 246.695C353.228 245.852 352.4 244.875 351.79 243.766C351.196 242.656 350.9 241.367 350.9 239.898C350.9 238.477 351.212 237.188 351.837 236.031C352.462 234.859 353.337 233.859 354.462 233.031C355.587 232.188 356.915 231.539 358.446 231.086C359.993 230.633 361.689 230.406 363.532 230.406C366.048 230.406 368.243 230.859 370.118 231.766C371.993 232.672 373.446 233.914 374.478 235.492C375.525 237.07 376.048 238.875 376.048 240.906H369.064C369.064 239.906 368.853 239.031 368.431 238.281C368.025 237.516 367.4 236.914 366.556 236.477C365.728 236.039 364.681 235.82 363.415 235.82C362.196 235.82 361.181 236.008 360.368 236.383C359.556 236.742 358.946 237.234 358.54 237.859C358.134 238.469 357.931 239.156 357.931 239.922C357.931 240.5 358.071 241.023 358.353 241.492C358.65 241.961 359.087 242.398 359.665 242.805C360.243 243.211 360.954 243.594 361.798 243.953C362.642 244.312 363.618 244.664 364.728 245.008C366.587 245.57 368.22 246.203 369.626 246.906C371.048 247.609 372.235 248.398 373.189 249.273C374.142 250.148 374.86 251.141 375.345 252.25C375.829 253.359 376.071 254.617 376.071 256.023C376.071 257.508 375.782 258.836 375.204 260.008C374.626 261.18 373.79 262.172 372.696 262.984C371.603 263.797 370.298 264.414 368.782 264.836C367.267 265.258 365.571 265.469 363.696 265.469C362.009 265.469 360.345 265.25 358.704 264.812C357.064 264.359 355.571 263.68 354.228 262.773C352.9 261.867 351.837 260.711 351.04 259.305C350.243 257.898 349.845 256.234 349.845 254.312H356.9C356.9 255.375 357.064 256.273 357.392 257.008C357.72 257.742 358.181 258.336 358.775 258.789C359.384 259.242 360.103 259.57 360.931 259.773C361.775 259.977 362.696 260.078 363.696 260.078C364.915 260.078 365.915 259.906 366.696 259.562C367.493 259.219 368.079 258.742 368.454 258.133C368.845 257.523 369.04 256.836 369.04 256.07ZM390.907 260.195C391.735 260.195 392.47 260.039 393.11 259.727C393.751 259.398 394.251 258.945 394.61 258.367C394.985 257.773 395.181 257.078 395.196 256.281H401.548C401.532 258.062 401.056 259.648 400.118 261.039C399.181 262.414 397.923 263.5 396.345 264.297C394.767 265.078 393.001 265.469 391.048 265.469C389.079 265.469 387.36 265.141 385.892 264.484C384.439 263.828 383.228 262.922 382.259 261.766C381.29 260.594 380.564 259.234 380.079 257.688C379.595 256.125 379.353 254.453 379.353 252.672V251.992C379.353 250.195 379.595 248.523 380.079 246.977C380.564 245.414 381.29 244.055 382.259 242.898C383.228 241.727 384.439 240.812 385.892 240.156C387.345 239.5 389.048 239.172 391.001 239.172C393.079 239.172 394.9 239.57 396.462 240.367C398.04 241.164 399.275 242.305 400.165 243.789C401.071 245.258 401.532 247 401.548 249.016H395.196C395.181 248.172 395.001 247.406 394.657 246.719C394.329 246.031 393.845 245.484 393.204 245.078C392.579 244.656 391.806 244.445 390.884 244.445C389.9 244.445 389.095 244.656 388.47 245.078C387.845 245.484 387.36 246.047 387.017 246.766C386.673 247.469 386.431 248.273 386.29 249.18C386.165 250.07 386.103 251.008 386.103 251.992V252.672C386.103 253.656 386.165 254.602 386.29 255.508C386.415 256.414 386.65 257.219 386.993 257.922C387.353 258.625 387.845 259.18 388.47 259.586C389.095 259.992 389.907 260.195 390.907 260.195ZM412.212 245.172V265H405.462V239.641H411.814L412.212 245.172ZM419.853 239.477L419.735 245.734C419.407 245.688 419.009 245.648 418.54 245.617C418.087 245.57 417.673 245.547 417.298 245.547C416.345 245.547 415.517 245.672 414.814 245.922C414.126 246.156 413.548 246.508 413.079 246.977C412.626 247.445 412.282 248.016 412.048 248.688C411.829 249.359 411.704 250.125 411.673 250.984L410.314 250.562C410.314 248.922 410.478 247.414 410.806 246.039C411.134 244.648 411.61 243.438 412.235 242.406C412.876 241.375 413.657 240.578 414.579 240.016C415.501 239.453 416.556 239.172 417.743 239.172C418.118 239.172 418.501 239.203 418.892 239.266C419.282 239.312 419.603 239.383 419.853 239.477ZM434.243 265.469C432.275 265.469 430.509 265.156 428.946 264.531C427.384 263.891 426.056 263.008 424.962 261.883C423.884 260.758 423.056 259.453 422.478 257.969C421.9 256.469 421.61 254.875 421.61 253.188V252.25C421.61 250.328 421.884 248.57 422.431 246.977C422.978 245.383 423.759 244 424.775 242.828C425.806 241.656 427.056 240.758 428.525 240.133C429.993 239.492 431.65 239.172 433.493 239.172C435.29 239.172 436.884 239.469 438.275 240.062C439.665 240.656 440.829 241.5 441.767 242.594C442.72 243.688 443.439 245 443.923 246.531C444.407 248.047 444.65 249.734 444.65 251.594V254.406H424.493V249.906H438.017V249.391C438.017 248.453 437.845 247.617 437.501 246.883C437.173 246.133 436.673 245.539 436.001 245.102C435.329 244.664 434.47 244.445 433.423 244.445C432.532 244.445 431.767 244.641 431.126 245.031C430.485 245.422 429.962 245.969 429.556 246.672C429.165 247.375 428.868 248.203 428.665 249.156C428.478 250.094 428.384 251.125 428.384 252.25V253.188C428.384 254.203 428.525 255.141 428.806 256C429.103 256.859 429.517 257.602 430.048 258.227C430.595 258.852 431.251 259.336 432.017 259.68C432.798 260.023 433.681 260.195 434.665 260.195C435.884 260.195 437.017 259.961 438.064 259.492C439.126 259.008 440.04 258.281 440.806 257.312L444.087 260.875C443.556 261.641 442.829 262.375 441.907 263.078C441.001 263.781 439.907 264.359 438.626 264.812C437.345 265.25 435.884 265.469 434.243 265.469ZM460.165 265.469C458.196 265.469 456.431 265.156 454.868 264.531C453.306 263.891 451.978 263.008 450.884 261.883C449.806 260.758 448.978 259.453 448.4 257.969C447.821 256.469 447.532 254.875 447.532 253.188V252.25C447.532 250.328 447.806 248.57 448.353 246.977C448.9 245.383 449.681 244 450.696 242.828C451.728 241.656 452.978 240.758 454.446 240.133C455.915 239.492 457.571 239.172 459.415 239.172C461.212 239.172 462.806 239.469 464.196 240.062C465.587 240.656 466.751 241.5 467.689 242.594C468.642 243.688 469.36 245 469.845 246.531C470.329 248.047 470.571 249.734 470.571 251.594V254.406H450.415V249.906H463.939V249.391C463.939 248.453 463.767 247.617 463.423 246.883C463.095 246.133 462.595 245.539 461.923 245.102C461.251 244.664 460.392 244.445 459.345 244.445C458.454 244.445 457.689 244.641 457.048 245.031C456.407 245.422 455.884 245.969 455.478 246.672C455.087 247.375 454.79 248.203 454.587 249.156C454.4 250.094 454.306 251.125 454.306 252.25V253.188C454.306 254.203 454.446 255.141 454.728 256C455.025 256.859 455.439 257.602 455.97 258.227C456.517 258.852 457.173 259.336 457.939 259.68C458.72 260.023 459.603 260.195 460.587 260.195C461.806 260.195 462.939 259.961 463.985 259.492C465.048 259.008 465.962 258.281 466.728 257.312L470.009 260.875C469.478 261.641 468.751 262.375 467.829 263.078C466.923 263.781 465.829 264.359 464.548 264.812C463.267 265.25 461.806 265.469 460.165 265.469ZM481.025 245.055V265H474.275V239.641H480.603L481.025 245.055ZM480.04 251.43H478.212C478.212 249.555 478.454 247.867 478.939 246.367C479.423 244.852 480.103 243.562 480.978 242.5C481.853 241.422 482.892 240.602 484.095 240.039C485.314 239.461 486.673 239.172 488.173 239.172C489.36 239.172 490.446 239.344 491.431 239.688C492.415 240.031 493.259 240.578 493.962 241.328C494.681 242.078 495.228 243.07 495.603 244.305C495.993 245.539 496.189 247.047 496.189 248.828V265H489.392V248.805C489.392 247.68 489.235 246.805 488.923 246.18C488.61 245.555 488.15 245.117 487.54 244.867C486.946 244.602 486.212 244.469 485.337 244.469C484.431 244.469 483.642 244.648 482.97 245.008C482.314 245.367 481.767 245.867 481.329 246.508C480.907 247.133 480.587 247.867 480.368 248.711C480.15 249.555 480.04 250.461 480.04 251.43Z" fill="#3ac5f1"/>
<path d="M194.75 25.125C194.75 18.4614 197.397 12.0708 202.109 7.35894C206.821 2.64709 213.211 0 219.875 0H337.125C343.789 0 350.179 2.64709 354.891 7.35894C359.603 12.0708 362.25 18.4614 362.25 25.125V92.125C362.25 98.7886 359.603 105.179 354.891 109.891C350.179 114.603 343.789 117.25 337.125 117.25H219.875C213.211 117.25 206.821 114.603 202.109 109.891C197.397 105.179 194.75 98.7886 194.75 92.125V25.125ZM186.375 134C184.154 134 182.024 134.882 180.453 136.453C178.882 138.024 178 140.154 178 142.375C178 144.596 178.882 146.726 180.453 148.297C182.024 149.868 184.154 150.75 186.375 150.75H370.625C372.846 150.75 374.976 149.868 376.547 148.297C378.118 146.726 379 144.596 379 142.375C379 140.154 378.118 138.024 376.547 136.453C374.976 134.882 372.846 134 370.625 134H186.375Z" fill="#3ac5f1"/>
<path d="M282.257 41.6266V27.9829L297.095 42.8214L308.993 54.7187L296.884 64.8096L282.257 77V63.6495C256.577 61.7139 247.58 76.5744 247.58 76.5744C247.58 67.3158 248.343 57.7072 255.622 50.4314C264.083 41.9671 276.337 41.3681 282.257 41.6266Z" fill="white"/>
</svg>
