<svg width="16" height="16" viewBox="0 0 16 16" fill="none" xmlns="http://www.w3.org/2000/svg">
<path d="M15.3503 8.17095C15.3509 7.65987 15.3077 7.14968 15.2211 6.646H8.14844V9.53444H12.1993C12.1165 9.99577 11.941 10.4355 11.6836 10.8272C11.4261 11.2189 11.0921 11.5544 10.7015 11.8135V13.6885H13.1191C14.5347 12.3833 15.3503 10.4532 15.3503 8.17095Z" fill="#4285F4"/>
<path d="M8.14906 15.4999C10.173 15.4999 11.8771 14.8354 13.1197 13.6896L10.7021 11.8146C10.0292 12.2709 9.16257 12.5313 8.14906 12.5313C6.19288 12.5313 4.53252 11.2126 3.93879 9.43555H1.44824V11.3678C2.07246 12.6099 3.02963 13.6541 4.21288 14.3838C5.39614 15.1134 6.75891 15.4999 8.14906 15.4999Z" fill="#34A853"/>
<path d="M3.93855 9.43578C3.62466 8.50461 3.62466 7.49621 3.93855 6.56504V4.63281H1.448C0.922892 5.67773 0.649414 6.83097 0.649414 8.00041C0.649414 9.16985 0.922892 10.3231 1.448 11.368L3.93855 9.43578Z" fill="#FBBC04"/>
<path d="M8.14906 3.46914C9.2186 3.45167 10.2521 3.85577 11.0261 4.59411L13.1666 2.45355C11.8093 1.17867 10.0111 0.478744 8.14906 0.500492C6.75891 0.500555 5.39614 0.886995 4.21288 1.61667C3.02963 2.34634 2.07246 3.39052 1.44824 4.63265L3.93879 6.56488C4.53252 4.78785 6.19288 3.46914 8.14906 3.46914Z" fill="#EA4335"/>
</svg>
